<svg width="154" height="68" viewBox="0 0 154 68" fill="none" xmlns="http://www.w3.org/2000/svg">
<path d="M37.6106 53.2311L37.3088 51.3053C36.646 47.1502 31.5279 42.0932 25.4469 39.3824C23.4601 38.5399 20.0882 37.0938 17.3791 35.8291C10.4539 47.3909 4.67471 58.5899 1.6028 65.7559C0.699192 67.8631 -0.322983 66.9595 0.0973843 65.8762C3.83039 57.0863 7.50411 49.6796 16.0552 35.2273C14.9108 34.7458 13.9479 34.2644 13.4665 34.0237C11.6593 33.1201 12.0814 30.1092 19.1864 29.9889L20.8714 27.2799C32.4333 8.19276 44.2341 -0.176815 45.921 0.0028286C47.606 0.184268 48.5096 1.26751 48.1486 3.07472C47.8468 4.88014 44.897 16.2605 42.0065 30.7128C42.7898 30.8943 43.6916 31.135 44.5952 31.6164C45.8599 32.3386 48.8096 33.2422 42.0065 32.3386H41.7047C39.6568 43.1765 39.3568 46.3077 38.8735 52.7515C38.8125 52.9329 38.8735 53.1126 38.8125 53.294C39.4143 57.2084 39.2939 57.7509 39.2346 58.5324C39.1735 59.436 38.031 60.3989 37.6088 60.3396C37.1867 60.2785 36.7663 60.4007 36.946 59.7971C37.1274 59.1342 37.3681 55.7623 37.6088 53.2329L37.6106 53.2311ZM16.7163 34.144L18.1606 31.735C13.9461 32.0368 13.8258 32.8793 14.3072 32.9997L16.7163 34.144ZM37.9735 49.2574C38.3346 45.4041 38.6957 41.8507 40.5029 32.1572C33.9998 31.4943 25.208 31.5554 19.9103 31.6757C19.2474 32.6997 18.6456 33.7219 18.0438 34.7458L25.8709 38.4788C33.3369 42.0322 36.7088 45.7651 37.9735 49.2574ZM40.8622 30.5314C43.873 15.1773 47.0042 4.15797 47.1246 3.07472C47.2449 2.05076 47.3653 1.08787 46.2821 0.967512C45.1377 0.847151 30.5668 14.7569 22.1972 28.0038L20.9325 29.9907C28.1578 29.9296 39.5993 30.4721 40.864 30.5332L40.8622 30.5314Z" fill="#D9D9D9"/>
<path d="M46.0396 39.8191C46.4006 39.8191 46.5821 39.9394 46.521 40.482C46.4006 41.6263 45.6174 43.7335 45.497 44.215C45.4359 44.3353 45.497 44.4557 45.6785 44.4557C45.8599 44.4557 47.606 43.6131 48.8097 43.0113C50.5558 42.1077 51.7594 41.4466 52.663 41.4466C53.5666 41.4466 54.2888 42.1688 54.2888 43.3742C54.1684 45.0593 54.2277 46.0832 54.7702 46.1443C55.8535 46.385 59.7679 45.1814 62.7788 43.9167L72.052 40.0634C72.5945 39.8227 72.8945 40.6652 72.2334 40.967C69.7651 42.2317 66.3321 43.6167 63.1417 45C60.0105 46.3258 55.9164 47.6497 54.1092 47.2887C52.8445 47.0479 52.5427 45.7832 52.6648 44.0982C52.7259 43.1946 52.6648 42.8335 52.4834 42.7131C52.1816 42.5317 51.5205 42.7742 50.3762 43.376C49.4133 43.8575 46.1006 45.5425 45.5581 45.5425C45.197 45.5425 44.1138 45.1204 44.1138 44.6389C44.1138 44.3371 44.897 42.291 45.197 40.3634C45.3174 39.882 45.7395 39.882 46.0396 39.8209V39.8191Z" fill="#D9D9D9"/>
<path d="M69.2227 42.8298C70.4874 40.0597 73.0168 38.9764 74.2815 39.2171C75.2444 39.3986 75.7258 40.6022 74.9444 42.1669C74.1018 44.0334 72.0539 44.9963 69.8263 45.7202C69.9467 47.5256 71.2114 48.9125 73.8 48.731C80.6642 47.9478 87.5284 32.2326 93.3686 17.6007C93.6094 17.0581 94.1519 17.0581 93.9112 17.8414C87.1673 36.5674 81.3864 48.731 74.1018 49.9346C71.2114 50.4161 66.9969 47.8885 69.2245 42.8298H69.2227ZM69.8245 44.9981C71.5706 44.4555 73.1964 43.1926 74.039 41.7465C74.4611 41.0243 74.4611 40.2411 74.1 40.1207C73.4371 39.9393 71.3892 40.7225 70.306 43.2519C70.0652 43.8537 69.8838 44.4555 69.8245 44.9981Z" fill="#D9D9D9"/>
<path d="M114.202 25.6703H110.469C110.047 27.6572 109.627 29.8847 109.205 32.2938C108.662 35.2453 107.76 40.4226 106.977 46.8053C106.555 50.1773 105.894 58.7875 106.255 61.6187C106.557 63.9667 107.038 64.1481 106.194 64.3277C105.472 64.4481 104.87 62.1002 104.99 57.5839C105.051 53.912 106.014 41.3262 107.82 31.6327C108.181 29.4644 108.603 27.4775 108.964 25.6721H105.892C98.426 39.7615 90.236 50.9623 87.4659 50.9623C85.1772 50.9623 84.8772 48.1311 88.1288 33.801C88.8509 30.6698 89.5138 27.8997 90.1749 25.4314C88.1288 25.3703 86.1401 25.2499 84.2143 25.1296C82.2867 24.9481 81.746 25.0092 81.0831 25.0092C80.4202 25.0092 80.7813 24.4667 81.2035 24.3463C82.1071 24.1056 84.0329 24.2852 86.3826 24.2852C86.503 24.2852 88.0695 24.3463 90.4767 24.4056C92.4636 17.3007 94.0893 13.3863 94.8115 13.3863C95.354 13.3863 96.1355 14.2288 95.7744 15.3139C95.5337 15.9768 94.2079 18.2043 93.5468 19.408C93.4265 19.5283 92.7636 21.6355 91.9821 24.4056L105.229 24.5871C106.975 21.517 108.601 18.5061 109.986 15.736C111.13 13.5085 111.371 12.6048 112.877 13.327C113.358 13.5677 114.141 14.0492 113.96 14.5917C113.778 15.3139 113.238 15.1935 112.695 16.9397C112.273 18.2636 111.491 21.0337 110.708 24.6463H114.382C119.922 24.6463 121.366 24.4056 121.487 25.0685C121.668 25.7907 118.717 25.6703 114.2 25.6703H114.202ZM104.627 25.6703C99.9906 25.6703 95.6558 25.6092 91.6821 25.4889C90.8989 28.3183 90.0563 31.6309 89.5156 34.0992C87.4677 43.3723 86.1437 49.7551 87.7084 49.7551C89.636 49.7551 97.8241 37.5914 104.629 25.6703H104.627ZM109.144 24.6463C110.047 20.4319 110.829 17.36 111.432 15.8546C111.614 15.3121 111.251 14.8917 110.649 16.0953C109.325 18.9858 107.94 21.8762 106.494 24.5853C107.397 24.5853 108.299 24.6463 109.144 24.6463Z" fill="#D9D9D9"/>
<path d="M51.9733 54.4584C51.9733 54.9219 51.8152 55.3225 51.4972 55.6584C51.1649 56.0087 50.6726 56.1848 50.0241 56.1848C49.7223 56.1848 49.3702 56.1309 48.966 56.0249C48.9409 56.0195 48.9301 56.0285 48.9301 56.0519V57.5393C48.9301 58.2345 48.993 58.583 49.1169 58.583H49.9415C49.9774 58.583 49.9972 58.601 49.9972 58.6387V58.7627C49.9972 58.7986 49.9882 58.8184 49.9702 58.8184H47.5037C47.4786 58.8184 47.4678 58.8058 47.4678 58.7824V58.6405C47.4678 58.6046 47.4822 58.5848 47.5127 58.5848H48.1451C48.1936 58.5848 48.2187 58.5471 48.2187 58.4698V53.756C48.2187 53.1883 48.181 52.9045 48.1037 52.9045H47.4768C47.4337 52.9045 47.4121 52.8919 47.4121 52.8686V52.7087C47.4121 52.6746 47.4301 52.6584 47.4678 52.6584H48.6121C48.6642 52.6584 48.8654 52.653 49.2193 52.644C49.5714 52.635 49.7565 52.6296 49.7762 52.6296C50.1122 52.6296 50.387 52.653 50.6008 52.6979C50.9511 52.768 51.2583 52.9386 51.5206 53.2099C51.826 53.5279 51.9787 53.9428 51.9787 54.4602L51.9733 54.4584ZM51.2547 54.5213C51.2547 54.1153 51.1038 53.7632 50.802 53.4632C50.4481 53.1057 49.9523 52.9279 49.3145 52.9279C49.1367 52.9279 49.0361 52.9314 49.0127 52.9368C48.9894 52.9422 48.9732 52.9728 48.9678 53.0284C48.9499 53.1901 48.9409 53.6608 48.9409 54.4387C48.9409 54.4656 48.9409 54.6812 48.9355 55.0872C48.9301 55.4932 48.9301 55.7033 48.9301 55.7213C48.9301 55.7608 48.9517 55.7896 48.9948 55.8075C49.1906 55.8812 49.4834 55.9171 49.8732 55.9171C50.3313 55.9171 50.6691 55.8075 50.89 55.5884C51.1343 55.3476 51.2565 54.992 51.2565 54.5213H51.2547Z" fill="#D9D9D9"/>
<path d="M62.8075 58.761C62.8075 58.797 62.795 58.8167 62.7716 58.8167H60.4093C60.3698 58.8167 60.35 58.8024 60.35 58.7718V58.6209C60.35 58.5904 60.3734 58.576 60.4183 58.576H61.0812C61.1368 58.576 61.1692 58.5616 61.1818 58.5311C61.1943 58.5005 61.2015 58.4035 61.2051 58.2383C61.2105 57.9059 61.2141 57.0652 61.2141 55.7161C61.2141 55.6604 61.1889 55.6334 61.1368 55.6334H57.923C57.8673 55.6334 57.8404 55.6676 57.8404 55.734C57.8404 56.7221 57.844 57.3293 57.8494 57.5556C57.8673 58.2365 57.9356 58.576 58.056 58.576H58.8248C58.85 58.576 58.8608 58.594 58.8608 58.6317V58.7736C58.8608 58.8042 58.8482 58.8185 58.8248 58.8185H56.4499C56.414 58.8185 56.3942 58.8042 56.3942 58.7736V58.6317C56.3942 58.5958 56.4122 58.576 56.4499 58.576H57.0212C57.0949 58.576 57.138 58.5616 57.1523 58.5311C57.1667 58.5005 57.1721 58.4035 57.1721 58.2383C57.1721 58.1862 57.1685 57.7712 57.1631 56.9915C57.1577 56.2119 57.1541 55.7808 57.1541 55.6963C57.1541 55.6119 57.1505 55.2813 57.1452 54.7029C57.1398 54.1244 57.1362 53.8154 57.1362 53.7759C57.1362 53.1562 57.0859 52.8472 56.9853 52.8472H56.3404C56.3044 52.8472 56.2847 52.8328 56.2847 52.8023V52.6514C56.2847 52.6208 56.3026 52.6064 56.3404 52.6064H58.6739C58.7099 52.6064 58.7296 52.6298 58.7296 52.6747V52.8023C58.7296 52.8328 58.7117 52.8472 58.6739 52.8472H57.9877C57.9176 52.8472 57.8763 52.8526 57.8655 52.8633C57.8548 52.8741 57.8494 52.91 57.8494 52.9711C57.8494 54.5969 57.8458 55.3352 57.8404 55.1825C57.844 55.2526 57.8673 55.2885 57.914 55.2885H61.1279C61.18 55.2885 61.2051 55.2598 61.2051 55.2023C61.2051 55.1807 61.2051 54.9382 61.1997 54.4729C61.1943 54.0077 61.1943 53.7526 61.1943 53.7059C61.1943 53.1346 61.1351 52.8508 61.0165 52.8508H60.3123C60.2817 52.8508 60.2674 52.8328 60.2674 52.7951V52.6532C60.2674 52.6226 60.2889 52.6082 60.332 52.6082H62.6746C62.7141 52.6082 62.7339 52.6316 62.7339 52.6765V52.7951C62.7339 52.831 62.7141 52.8508 62.6746 52.8508H62.0746C61.9866 52.8508 61.9345 52.8579 61.9183 52.8741C61.9021 52.8903 61.8949 52.9388 61.8949 53.0214V55.5059C61.8949 56.7418 61.8985 57.4568 61.9039 57.6526C61.9255 58.2724 61.9848 58.5814 62.0818 58.5814H62.7501C62.786 58.5814 62.8057 58.5994 62.8057 58.6371V58.77L62.8075 58.761Z" fill="#D9D9D9"/>
<path d="M73.2575 55.5701C73.2575 56.5348 73.0258 57.2875 72.5623 57.8318C72.4006 58.024 72.2659 58.1624 72.1599 58.2486C71.9371 58.4264 71.6479 58.5791 71.2904 58.7103C71.003 58.8163 70.6311 58.8702 70.173 58.8702C69.4437 58.8702 68.894 58.7768 68.5257 58.5917C68.258 58.457 68.0317 58.2845 67.8484 58.0743C67.6221 57.8175 67.4604 57.5354 67.3634 57.2282C67.2448 56.8581 67.1855 56.3731 67.1855 55.7677C67.1855 55.3563 67.2412 54.9647 67.3544 54.5965C67.4891 54.1599 67.6885 53.7917 67.9544 53.4934C68.2203 53.1952 68.6011 52.9473 69.0988 52.7515C69.4491 52.615 69.8407 52.5449 70.27 52.5449C70.9221 52.5449 71.4216 52.6222 71.7665 52.7785C72.1545 52.9527 72.4581 53.1898 72.6773 53.4916C73.0653 54.0198 73.2593 54.7114 73.2593 55.5701H73.2575ZM72.5353 55.8162C72.5353 55.3761 72.485 54.9917 72.3844 54.6629C72.2713 54.2821 72.0916 53.9497 71.8437 53.6695C71.6174 53.4126 71.3497 53.2186 71.0389 53.0874C70.6796 52.9383 70.3185 52.8629 69.9593 52.8629C69.4922 52.8629 69.1544 52.9383 68.9479 53.0874C68.5688 53.3551 68.3101 53.6515 68.17 53.9749C67.9814 54.4024 67.8862 54.9234 67.8862 55.5396C67.8862 56.4486 68.055 57.1635 68.3945 57.6863C68.5993 58.0043 68.9065 58.2576 69.3143 58.4462C69.6341 58.5953 69.9844 58.6708 70.3617 58.6708C70.7892 58.6708 71.1826 58.5522 71.5419 58.3133C71.8222 58.13 72.0629 57.8157 72.2659 57.3701C72.4455 56.9641 72.5353 56.445 72.5353 55.8144V55.8162Z" fill="#D9D9D9"/>
<path d="M82.9437 52.6546C82.9168 52.8469 82.8683 53.0696 82.8018 53.3229C82.7892 53.366 82.7713 53.3876 82.7461 53.3876C82.7156 53.3876 82.6868 53.3624 82.6599 53.3139C82.5898 53.1774 82.4677 53.0876 82.2934 53.0481C81.9916 52.9816 81.4491 52.9475 80.664 52.9475C80.6155 52.9475 80.5886 52.9672 80.5868 53.0067C80.585 53.0463 80.5742 53.7576 80.5598 55.1391C80.5419 56.4667 80.5329 57.1763 80.5329 57.2679C80.5329 58.1374 80.6083 58.5721 80.7574 58.5721H81.5443C81.5658 58.5721 81.5766 58.5847 81.5766 58.608V58.7679C81.5766 58.7984 81.5658 58.8128 81.5443 58.8128H79.0275C78.9933 58.8128 78.9772 58.7984 78.9772 58.7679V58.617C78.9772 58.5865 78.9933 58.5721 79.0275 58.5721H79.764C79.8215 58.5721 79.8502 58.5326 79.8502 58.4535C79.8377 57.8122 79.8323 57.4619 79.8323 57.4008C79.8323 57.3487 79.8395 56.8331 79.8556 55.8559C79.8718 54.8786 79.879 54.3684 79.879 54.3253C79.879 53.4074 79.8251 52.9475 79.7191 52.9475C78.9323 52.9475 78.3772 52.9924 78.0538 53.0804C77.8185 53.1415 77.6676 53.2259 77.6011 53.3319C77.567 53.3876 77.5364 53.4145 77.5095 53.4145C77.47 53.4145 77.4502 53.402 77.4502 53.3786C77.4502 53.3445 77.461 53.3049 77.4825 53.26C77.5688 52.951 77.637 52.7229 77.6891 52.5738C77.7017 52.5343 77.734 52.5181 77.7897 52.5289C77.8544 52.5379 78.1688 52.5558 78.7329 52.5846C79.3921 52.6151 79.9239 52.6295 80.3299 52.6295C81.6359 52.6295 82.3778 52.6259 82.5539 52.6205C82.6365 52.6169 82.7138 52.6097 82.7856 52.6007C82.8575 52.5918 82.8916 52.5846 82.888 52.5846C82.9275 52.5846 82.9473 52.6097 82.9473 52.6582L82.9437 52.6546Z" fill="#D9D9D9"/>
<path d="M93.2609 55.5701C93.2609 56.5348 93.0292 57.2875 92.5657 57.8318C92.404 58.024 92.2693 58.1624 92.1633 58.2486C91.9405 58.4264 91.6513 58.5791 91.2938 58.7103C91.0064 58.8163 90.6345 58.8702 90.1764 58.8702C89.4471 58.8702 88.8974 58.7768 88.5291 58.5917C88.2614 58.457 88.0351 58.2845 87.8518 58.0743C87.6255 57.8175 87.4638 57.5354 87.3668 57.2282C87.2482 56.8581 87.189 56.3731 87.189 55.7677C87.189 55.3563 87.2447 54.9647 87.3578 54.5965C87.4926 54.1599 87.692 53.7917 87.9578 53.4934C88.2237 53.1952 88.6046 52.9473 89.1022 52.7515C89.4525 52.615 89.8441 52.5449 90.2735 52.5449C90.9256 52.5449 91.425 52.6222 91.7699 52.7785C92.1579 52.9527 92.4615 53.1898 92.6807 53.4916C93.0687 54.0198 93.2627 54.7114 93.2627 55.5701H93.2609ZM92.5388 55.8162C92.5388 55.3761 92.4885 54.9917 92.3879 54.6629C92.2747 54.2821 92.095 53.9497 91.8471 53.6695C91.6208 53.4126 91.3531 53.2186 91.0423 53.0874C90.683 52.9383 90.322 52.8629 89.9627 52.8629C89.4956 52.8629 89.1579 52.9383 88.9513 53.0874C88.5722 53.3551 88.3135 53.6515 88.1734 53.9749C87.9848 54.4024 87.8896 54.9234 87.8896 55.5396C87.8896 56.4486 88.0584 57.1635 88.398 57.6863C88.6028 58.0043 88.91 58.2576 89.3177 58.4462C89.6375 58.5953 89.9878 58.6708 90.3651 58.6708C90.7926 58.6708 91.186 58.5522 91.5453 58.3133C91.8256 58.13 92.0663 57.8157 92.2693 57.3701C92.4489 56.9641 92.5388 56.445 92.5388 55.8144V55.8162Z" fill="#D9D9D9"/>
<path d="M103.89 56.1235C103.89 56.163 103.872 56.1828 103.835 56.1828H103.181C103.145 56.1828 103.125 56.2008 103.125 56.2385C103.125 56.2133 103.121 56.3103 103.114 56.5295C103.107 56.7469 103.104 56.9606 103.104 57.1672C103.104 57.5463 103.114 57.8948 103.136 58.2146C103.136 58.2577 103.12 58.281 103.086 58.2882C102.981 58.2882 102.757 58.3673 102.412 58.5254C101.891 58.7607 101.336 58.8774 100.75 58.8774C100.091 58.8774 99.6256 58.8254 99.3544 58.7212C98.8567 58.5253 98.4669 58.2253 98.1831 57.8193C97.8651 57.3613 97.707 56.7325 97.707 55.9331C97.707 55.1337 97.9639 54.4277 98.4759 53.7953C98.8424 53.3462 99.3975 53.0067 100.141 52.775C100.547 52.6492 101.072 52.5881 101.715 52.5881C102.358 52.5881 102.877 52.6438 103.197 52.757C103.233 52.7696 103.253 52.7911 103.253 52.8217C103.253 52.8361 103.245 52.9061 103.229 53.0283C103.211 53.1648 103.201 53.2456 103.197 53.2654C103.166 53.5762 103.145 53.7594 103.132 53.8151C103.123 53.8492 103.107 53.8654 103.082 53.8654C103.039 53.8654 103.017 53.851 103.017 53.8241C103.017 53.7504 103.008 53.6786 102.99 53.6085C102.956 53.49 102.875 53.3875 102.748 53.3013C102.394 53.0696 101.855 52.9528 101.133 52.9528C100.736 52.9528 100.407 52.9977 100.145 53.0893C99.7999 53.2115 99.4765 53.4343 99.1747 53.7576C98.6897 54.2822 98.4472 54.9505 98.4472 55.7624C98.4472 56.6571 98.7058 57.363 99.225 57.8822C99.5214 58.1804 99.8574 58.3834 100.233 58.4858C100.483 58.5523 100.818 58.5864 101.241 58.5864C101.616 58.5864 101.981 58.4679 102.335 58.2289C102.362 58.1948 102.376 58.1678 102.376 58.1463V57.3361C102.376 57.0469 102.372 56.8439 102.367 56.7271C102.345 56.3606 102.313 56.1774 102.27 56.1774H101.286C101.25 56.1774 101.23 56.1487 101.23 56.0912V55.9996C101.23 55.9546 101.251 55.9313 101.295 55.9313H103.826C103.869 55.9313 103.89 55.951 103.89 55.9906V56.1181V56.1235Z" fill="#D9D9D9"/>
<path d="M114.267 58.7605C114.267 58.7964 114.254 58.8162 114.231 58.8162H112.743C112.709 58.8162 112.672 58.7982 112.628 58.7605C112.512 58.6599 112.3 58.403 111.987 57.9916C111.822 57.7688 111.658 57.5461 111.493 57.3233C111.31 57.0485 111.057 56.6209 110.733 56.0425C110.712 55.9904 110.688 55.9652 110.66 55.9652C110.516 55.9652 110.263 55.9472 109.9 55.9095C109.851 55.8952 109.826 55.9095 109.826 55.9544C109.826 56.0119 109.826 56.2059 109.831 56.5329C109.835 56.8616 109.837 57.2065 109.837 57.5694C109.837 58.2377 109.905 58.5718 110.043 58.5718H110.859C110.889 58.5718 110.904 58.5862 110.904 58.6168V58.7677C110.904 58.7982 110.891 58.8126 110.868 58.8126H108.443C108.416 58.8126 108.398 58.8072 108.392 58.7982C108.387 58.7892 108.383 58.7784 108.383 58.7659V58.6239C108.383 58.597 108.389 58.5808 108.398 58.5754C108.407 58.57 108.419 58.5683 108.434 58.5683H109.034C109.082 58.5683 109.107 58.5215 109.107 58.4263V54.0879C109.102 53.249 109.048 52.8286 108.948 52.8286H108.365C108.335 52.8286 108.321 52.8161 108.321 52.7927V52.6238C108.321 52.5987 108.333 52.5879 108.356 52.5879H109.725C109.768 52.5879 109.943 52.5825 110.25 52.57C110.557 52.5574 110.728 52.552 110.766 52.552C110.963 52.552 111.157 52.5664 111.348 52.5969C111.768 52.6634 112.107 52.8215 112.364 53.0676C112.663 53.3514 112.813 53.7107 112.813 54.1436C112.813 54.6377 112.666 55.0436 112.373 55.3616C112.194 55.5574 111.899 55.7227 111.489 55.861C111.464 55.8736 111.455 55.8916 111.463 55.9167C111.597 56.267 111.906 56.7179 112.391 57.2676C112.645 57.5551 112.83 57.7598 112.945 57.8856C113.149 58.0994 113.324 58.2593 113.466 58.3671C113.661 58.5108 113.906 58.5826 114.199 58.5826C114.247 58.5826 114.272 58.5952 114.272 58.6185V58.7605H114.267ZM112.048 54.388C112.048 53.982 111.913 53.6514 111.646 53.3945C111.27 53.0406 110.728 52.8628 110.016 52.8628C109.912 52.8628 109.857 52.8843 109.848 52.9275C109.848 53.8023 109.842 54.3502 109.83 54.5658V55.6095C109.83 55.6436 109.851 55.6652 109.894 55.6742C109.964 55.6868 110.158 55.6922 110.476 55.6922C110.607 55.6922 110.755 55.6796 110.918 55.6562C111.082 55.6329 111.155 55.6203 111.141 55.6203C111.748 55.4622 112.052 55.0508 112.052 54.3897L112.048 54.388Z" fill="#D9D9D9"/>
<path d="M124.149 58.7698C124.149 58.8004 124.14 58.8147 124.122 58.8147H122.011C121.98 58.8147 121.966 58.7968 121.966 58.759V58.6351C121.966 58.592 121.98 58.5704 122.011 58.5704H122.638C122.686 58.5704 122.706 58.5435 122.697 58.4878C122.67 58.3908 122.564 58.0728 122.381 57.5339C122.198 56.9949 122.097 56.7057 122.079 56.6662C122.054 56.6051 122.024 56.5746 121.982 56.5746H119.771C119.744 56.58 119.721 56.5997 119.703 56.6303C119.659 56.7129 119.586 56.9051 119.483 57.2087C119.379 57.5123 119.316 57.7189 119.291 57.8285C119.243 58.0728 119.218 58.2183 119.218 58.2686C119.218 58.4698 119.243 58.5704 119.291 58.5704H119.986C120.022 58.5704 120.042 58.592 120.042 58.6351V58.768C120.042 58.7986 120.028 58.8129 119.997 58.8129H118.149C118.118 58.8129 118.104 58.7986 118.104 58.768V58.6171C118.104 58.5866 118.116 58.5722 118.14 58.5722H118.533C118.6 58.5722 118.691 58.4285 118.806 58.1429C118.921 57.8572 119.262 57.0273 119.828 55.6584C120.191 54.7943 120.633 53.7488 121.151 52.5182C121.185 52.423 121.217 52.3709 121.251 52.3583C121.337 52.3332 121.447 52.2955 121.58 52.2434C121.601 52.2344 121.625 52.2506 121.654 52.2919C121.682 52.3332 121.668 52.3799 121.618 52.432C121.526 52.5272 121.481 52.6188 121.481 52.7069C121.477 52.7985 121.499 52.9134 121.546 53.05C121.711 53.5081 122.007 54.365 122.439 55.6207C122.868 56.8764 123.168 57.6884 123.335 58.0584C123.497 58.4033 123.613 58.5758 123.684 58.5758H124.113C124.138 58.5758 124.149 58.5974 124.149 58.6405V58.7734V58.7698ZM121.883 56.1596C121.758 55.7967 121.625 55.3979 121.481 54.965C121.337 54.532 121.19 54.0793 121.037 53.6105C121.028 53.5709 121.016 53.5458 121.001 53.5368C120.989 53.5494 120.974 53.5727 120.957 53.6105C120.576 54.5446 120.301 55.2057 120.136 55.5973C119.97 55.9889 119.886 56.1901 119.886 56.2009C119.886 56.2189 119.9 56.2279 119.927 56.2279H121.864C121.894 56.2279 121.901 56.2045 121.887 56.1596H121.883Z" fill="#D9D9D9"/>
<path d="M132.874 54.4584C132.874 54.9219 132.716 55.3225 132.398 55.6584C132.066 56.0087 131.574 56.1848 130.925 56.1848C130.623 56.1848 130.271 56.1309 129.867 56.0249C129.842 56.0195 129.831 56.0285 129.831 56.0519V57.5393C129.831 58.2345 129.894 58.583 130.018 58.583H130.842C130.878 58.583 130.898 58.601 130.898 58.6387V58.7627C130.898 58.7986 130.889 58.8184 130.871 58.8184H128.405C128.379 58.8184 128.369 58.8058 128.369 58.7824V58.6405C128.369 58.6046 128.383 58.5848 128.414 58.5848H129.046C129.094 58.5848 129.12 58.5471 129.12 58.4698V53.756C129.12 53.1883 129.082 52.9045 129.005 52.9045H128.378C128.335 52.9045 128.313 52.8919 128.313 52.8686V52.7087C128.313 52.6746 128.331 52.6584 128.369 52.6584H129.513C129.565 52.6584 129.766 52.653 130.12 52.644C130.472 52.635 130.657 52.6296 130.677 52.6296C131.013 52.6296 131.288 52.653 131.502 52.6979C131.852 52.768 132.159 52.9386 132.421 53.2099C132.727 53.5279 132.88 53.9428 132.88 54.4602L132.874 54.4584ZM132.156 54.5213C132.156 54.1153 132.005 53.7632 131.703 53.4632C131.349 53.1057 130.853 52.9279 130.215 52.9279C130.038 52.9279 129.937 52.9314 129.914 52.9368C129.89 52.9422 129.874 52.9728 129.869 53.0284C129.851 53.1901 129.842 53.6608 129.842 54.4387C129.842 54.4656 129.842 54.6812 129.836 55.0872C129.833 55.4914 129.831 55.7033 129.831 55.7213C129.831 55.7608 129.853 55.7896 129.896 55.8075C130.091 55.8812 130.384 55.9171 130.774 55.9171C131.232 55.9171 131.57 55.8075 131.791 55.5884C132.035 55.3476 132.157 54.992 132.157 54.5213H132.156Z" fill="#D9D9D9"/>
<path d="M143.708 58.761C143.708 58.797 143.696 58.8167 143.672 58.8167H141.31C141.271 58.8167 141.251 58.8024 141.251 58.7718V58.6209C141.251 58.5904 141.274 58.576 141.319 58.576H141.982C142.038 58.576 142.07 58.5616 142.083 58.5311C142.095 58.5005 142.102 58.4035 142.106 58.2383C142.111 57.9059 142.115 57.0652 142.115 55.7161C142.115 55.6604 142.09 55.6334 142.038 55.6334H138.824C138.768 55.6334 138.741 55.6676 138.741 55.734C138.741 56.7221 138.745 57.3293 138.75 57.5556C138.768 58.2365 138.836 58.576 138.957 58.576H139.726C139.751 58.576 139.762 58.594 139.762 58.6317V58.7736C139.762 58.8042 139.749 58.8185 139.726 58.8185H137.351C137.315 58.8185 137.295 58.8042 137.295 58.7736V58.6317C137.295 58.5958 137.313 58.576 137.351 58.576H137.922C137.996 58.576 138.039 58.5616 138.053 58.5311C138.068 58.5005 138.073 58.4035 138.073 58.2383C138.073 58.1862 138.069 57.7712 138.064 56.9915C138.059 56.2119 138.055 55.7808 138.055 55.6963C138.055 55.6119 138.051 55.2813 138.046 54.7029C138.041 54.1244 138.037 53.8154 138.037 53.7759C138.037 53.1562 137.987 52.8472 137.886 52.8472H137.241C137.205 52.8472 137.186 52.8328 137.186 52.8023V52.6514C137.186 52.6208 137.204 52.6064 137.241 52.6064H139.575C139.611 52.6064 139.631 52.6298 139.631 52.6747V52.8023C139.631 52.8328 139.613 52.8472 139.575 52.8472H138.889C138.819 52.8472 138.777 52.8526 138.766 52.8633C138.756 52.8741 138.75 52.91 138.75 52.9711C138.75 54.5969 138.747 55.3352 138.741 55.1825C138.745 55.2526 138.768 55.2885 138.815 55.2885H142.029C142.081 55.2885 142.106 55.2598 142.106 55.2023C142.106 55.1807 142.106 54.9382 142.101 54.4729C142.095 54.0077 142.095 53.7526 142.095 53.7059C142.095 53.1346 142.036 52.8508 141.917 52.8508H141.213C141.183 52.8508 141.168 52.8328 141.168 52.7951V52.6532C141.168 52.6226 141.19 52.6082 141.233 52.6082H143.575C143.615 52.6082 143.635 52.6316 143.635 52.6765V52.7951C143.635 52.831 143.615 52.8508 143.575 52.8508H142.975C142.887 52.8508 142.835 52.8579 142.819 52.8741C142.803 52.8903 142.796 52.9388 142.796 53.0214V55.5059C142.796 56.7418 142.799 57.4568 142.805 57.6526C142.826 58.2724 142.886 58.5814 142.983 58.5814H143.651C143.687 58.5814 143.707 58.5994 143.707 58.6371V58.77L143.708 58.761Z" fill="#D9D9D9"/>
<path d="M153.221 52.7967C153.221 52.8219 153.212 52.8326 153.194 52.8326H152.874C152.795 52.8326 152.71 52.9045 152.622 53.0482C152.405 53.4057 152.143 53.8404 151.835 54.3524C151.539 54.8195 151.234 55.3099 150.916 55.8255C150.885 55.892 150.871 55.9423 150.871 55.9728C150.871 55.9854 150.871 56.2674 150.865 56.8189C150.862 57.3704 150.86 57.6705 150.86 57.7154C150.86 58.2866 150.919 58.5705 151.038 58.5705H151.825C151.839 58.5705 151.852 58.574 151.859 58.5794C151.866 58.5848 151.87 58.601 151.87 58.6243V58.7752C151.87 58.8004 151.857 58.8112 151.834 58.8112H149.367C149.324 58.8112 149.302 58.7932 149.302 58.7555V58.6315C149.302 58.5884 149.32 58.5669 149.358 58.5669H150.109C150.161 58.5669 150.186 58.5291 150.186 58.4519L150.172 56.007C150.172 55.9153 150.158 55.8507 150.127 55.8094C150.075 55.7393 149.795 55.2794 149.285 54.4315C149.065 54.0596 148.764 53.589 148.383 53.0213C148.277 52.8901 148.151 52.8237 148.007 52.8237H147.842C147.815 52.8237 147.797 52.8183 147.792 52.8093C147.786 52.8003 147.783 52.7895 147.783 52.777V52.644C147.783 52.6009 147.802 52.5793 147.842 52.5793H149.892C149.935 52.5793 149.956 52.5973 149.956 52.635V52.777C149.956 52.8075 149.944 52.8219 149.92 52.8219H149.394C149.315 52.8219 149.276 52.8542 149.276 52.9189C149.276 52.9638 149.294 53.0267 149.331 53.1057C149.52 53.4237 149.746 53.8045 150.008 54.25C150.375 54.9021 150.614 55.3081 150.727 55.468C150.763 55.5201 150.795 55.5291 150.824 55.495C150.93 55.3584 151.113 55.071 151.37 54.6345C151.627 54.1979 151.798 53.8889 151.88 53.7057C152.017 53.4075 152.087 53.1506 152.087 52.9368C152.087 52.8614 152.047 52.8219 151.968 52.8219H151.566C151.539 52.8219 151.525 52.8093 151.525 52.7859V52.6261C151.525 52.5955 151.539 52.5811 151.566 52.5811H153.186C153.212 52.5811 153.222 52.5937 153.222 52.6171V52.7859L153.221 52.7967Z" fill="#D9D9D9"/>
</svg>
