<svg width="121" height="64" viewBox="0 0 121 64" fill="none" xmlns="http://www.w3.org/2000/svg">
<path d="M44.2849 40.2897V40.3134L44.2987 40.3312C44.3125 40.347 44.3303 40.3647 44.3776 40.3647C44.5039 40.3647 44.8394 40.2443 45.8834 39.6484C46.6352 39.2202 47.3989 38.7465 47.5469 38.6518C47.8706 38.4466 48.4823 37.9888 49.1927 37.4579C50.3393 36.6015 51.766 35.5339 52.1311 35.4391C52.4745 35.3503 52.9777 35.376 53.3823 35.3977L53.5105 35.4036C55.334 35.4904 57.1376 35.7253 58.8821 35.9522C65.0194 36.7475 70.8153 37.4994 75.7428 31.5535C77.7557 29.1243 79.2279 24.9427 79.6817 20.3644C80.1435 15.6993 79.5199 11.4407 77.9688 8.67796C75.3403 3.99904 70.0338 2.74791 64.6918 2.09472C58.9157 1.38825 51.0063 0.421301 44.2553 0.0147823L44.2 0.0108317C43.9455 -0.00692883 43.5587 -0.0306028 43.4028 0.190417L43.3949 0.202245L39.971 34.0597L39.9651 34.117L44.7545 34.4366L44.2809 40.2838L44.2849 40.2897ZM62.4283 14.6633C62.3573 14.4284 62.1954 14.3653 62.0731 14.3534C61.7159 14.3199 61.2581 14.6731 61.0824 15.0086C60.597 15.946 60.0859 21.0551 60.2793 22.1523C60.3957 22.8114 60.6898 23.1311 61.1752 23.1311C61.9271 23.1311 62.0869 22.0082 62.1915 21.2643C62.2231 21.0373 62.2645 20.7571 62.2981 20.7176L71.648 22.1957L72.3466 22.5549C72.1611 24.5815 71.2336 26.5233 69.7279 28.0271C68.2124 29.5407 66.2488 30.476 64.1985 30.6596C57.7533 31.2338 52.2436 29.1105 49.6426 26.7523C47.8094 25.0907 46.87 23.0245 46.8483 20.6111C46.7832 13.3016 49.2342 9.30354 54.5643 8.0307C56.2477 7.62813 58.1362 7.40908 60.0464 7.40908C64.0682 7.40908 68.1808 8.38393 70.6653 10.6849C72.7137 12.5833 73.5011 15.1645 73.0058 18.3575L62.4303 17.1853V14.6652L62.4283 14.6633Z" fill="#D9D9D9"/>
<path d="M99.4276 54.7112L96.0136 47.5044H90.0105V63.7277H94.9026V55.9939L98.6382 63.7277H104.479V47.5044H99.4276V54.7112Z" fill="#D9D9D9"/>
<path d="M10.1985 48.1004C9.85515 47.9563 8.5014 47.5044 8.03173 47.5044H0V63.7454L0.469646 63.7277C1.30637 63.6941 2.17863 63.7099 3.10415 63.7237C7.52852 63.7967 12.5429 63.8816 13.7487 58.2712C14.5735 54.431 13.8158 49.61 10.1985 48.0984V48.1004ZM5.37752 51.2677C6.79836 51.2302 7.63903 51.2973 8.13632 52.4122C8.62178 53.4996 8.66319 57.2214 8.20339 58.4469C7.6982 59.7908 6.35236 59.9585 5.51367 59.921L5.37752 51.2677Z" fill="#D9D9D9"/>
<path d="M120.719 53.8631C120.425 51.2088 119.353 49.1368 117.78 48.1797C116.44 47.3627 114.489 46.9917 112.563 47.1851C110.512 47.3903 108.758 48.2073 107.749 49.4229C106.625 50.7786 105.973 53.2908 106.048 55.9805C106.125 58.7669 106.956 61.1449 108.27 62.3407C109.452 63.4162 111.4 63.951 113.348 63.951C115.296 63.951 117.334 63.3886 118.493 62.2697C120.174 60.6456 121.092 57.1882 120.723 53.8631H120.719ZM111.911 52.4244C112.124 51.714 112.74 50.8872 113.285 50.8359C113.652 50.8003 113.952 50.8852 114.2 51.0944C114.84 51.6292 115.023 52.827 115.075 53.494C115.268 55.9391 115.114 58.9485 114.321 59.7832C114.058 60.0595 113.707 60.1878 113.332 60.1444C112.896 60.095 112.495 59.8306 112.261 59.4339C111.528 58.2006 111.489 53.8374 111.911 52.4264V52.4244Z" fill="#D9D9D9"/>
<path d="M33.5457 54.4985C32.9675 54.1847 31.9039 53.8788 30.781 53.5532C29.8259 53.2769 28.3813 52.8586 28.1623 52.6336C27.817 52.2034 27.7499 51.8324 27.965 51.5305C28.2787 51.0865 29.0819 50.8812 29.6858 51.0924C30.2521 51.2897 30.5284 51.7969 30.485 52.5606L30.4573 53.0382H35.6711L35.6947 52.6119C35.7954 50.8615 35.1541 49.4229 33.8398 48.45C31.6888 46.8595 28.2412 46.8831 25.9481 47.7297C24.4543 48.2803 23.3077 49.4209 22.8025 50.8595C22.3092 52.2626 22.473 53.7604 23.2643 55.0767C24.1208 56.5054 26.2165 57.1389 28.0636 57.6973C28.9813 57.9756 30.3666 58.3939 30.4692 58.7334C30.6192 59.2326 30.5323 59.6115 30.2107 59.8602C29.741 60.2233 28.8846 60.2312 28.3024 59.8779C27.9492 59.6648 27.5604 59.2366 27.7084 58.4097L27.8031 57.8789H22.3763L22.3447 58.2953C22.2125 60.0378 22.771 61.4843 23.9629 62.4789C25.2436 63.5465 27.0848 63.9727 28.8905 63.9727C29.9127 63.9727 30.9231 63.8366 31.8151 63.6037C34.0786 63.0097 35.7737 61.1666 36.0322 59.0136C36.2552 57.1507 35.3257 55.4615 33.5457 54.5005V54.4985Z" fill="#D9D9D9"/>
<path d="M63.194 47.9249L63.1545 47.8637C62.9375 47.5322 62.6 47.5124 62.4382 47.5045C62.4126 47.5045 62.3849 47.5026 62.3593 47.4986C62.0041 47.4533 60.5319 47.4394 59.3262 47.4493C56.6482 47.469 56.5022 47.5677 56.374 47.6525L56.2338 47.7453L51.7246 63.7278H56.9936L57.6488 60.7085L61.1989 60.6848L61.2187 60.7006L61.8482 63.7278H67.4329L63.2137 47.994L63.196 47.9249H63.194ZM60.228 56.7617H58.6414L59.5274 53.2175L60.228 56.7617Z" fill="#D9D9D9"/>
<path d="M78.2137 54.3265C77.7816 54.1193 77.0711 53.9259 76.2502 53.699C75.4865 53.4898 74.6222 53.253 73.9512 52.9886C73.002 52.6156 72.9033 52.3669 72.8954 52.3413C72.7514 51.8617 72.8362 51.4967 73.1441 51.2559C73.5605 50.9303 74.3084 50.9086 74.8096 51.2066C75.1175 51.3901 75.4589 51.7631 75.3346 52.511L75.2477 53.0359H80.497L80.5364 52.6294C80.8186 49.7621 78.7643 47.6347 75.301 47.2105C71.8653 46.7882 68.029 48.2879 67.5534 51.5243C66.9555 55.6013 69.7005 56.5584 72.3547 57.484C72.5738 57.5609 72.8559 57.632 73.1835 57.7129C73.9334 57.9003 75.3267 58.2516 75.4727 58.7331C75.6168 59.2146 75.524 59.5836 75.1964 59.8323C74.7011 60.2072 73.8269 60.2131 73.2487 59.8441C72.7415 59.5205 72.554 58.9758 72.706 58.2654L72.7948 57.849L72.3843 57.7346C72.2402 57.6951 72.0389 57.6931 71.8377 57.8786H67.36L67.3443 58.3128C67.2259 61.5412 69.1499 63.5719 72.625 63.8837C73.0533 63.9211 73.4697 63.9409 73.8762 63.9409C76.3331 63.9409 78.3736 63.2482 79.5872 61.9774C80.6745 60.8387 81.0929 59.3014 80.8344 57.405C80.6588 56.1144 79.7747 55.0784 78.2058 54.3285L78.2137 54.3265Z" fill="#D9D9D9"/>
<path d="M46.1264 57.1129C46.2626 58.1174 45.8244 59.3231 45.1515 59.7987C44.7292 60.0967 44.2378 60.1046 43.6892 59.8224C43.1189 59.5284 42.7163 58.5101 42.5585 56.9551C42.4203 55.6053 42.4953 54.1114 42.5999 53.2411C42.7874 51.6762 43.5077 50.7152 44.4332 50.7961C45.3212 50.8731 46.2172 51.9091 46.1244 53.6773L46.1007 54.1528H51.796L51.8157 53.7226C51.8907 52.0393 51.3579 50.5396 50.2705 49.3812C49.3055 48.353 47.9557 47.6328 46.3671 47.2973C44.6148 46.9263 42.7756 47.0704 41.1889 47.6999C39.4227 48.4004 38.1598 49.618 37.5362 51.2224C36.5396 53.7858 36.2732 57.8885 38.0433 60.8407C39.0793 62.5674 40.6758 63.6054 42.6591 63.8422C43.2788 63.9172 43.8688 63.9527 44.4292 63.9527C46.5132 63.9527 48.1787 63.4396 49.3904 62.4194C50.7698 61.259 51.5335 59.4613 51.6578 57.0774L51.6835 56.6018H46.0632L46.1323 57.1129H46.1264Z" fill="#D9D9D9"/>
<path d="M15.4792 63.2244L15.9845 63.7277H21.0107V47.5044H15.4792V63.2244Z" fill="#D9D9D9"/>
<path d="M87.8814 47.5044H82.5098V63.7277H87.8814V47.5044Z" fill="#D9D9D9"/>
</svg>
