<svg width="57" height="66" viewBox="0 0 57 66" fill="none" xmlns="http://www.w3.org/2000/svg">
<g clip-path="url(#clip0_86_1163)">
<path d="M16.5786 0C37.3526 0 50.4361 14.7655 50.4361 32.5426C50.4361 50.3196 37.3526 65.0851 16.5786 65.0851H56.5938V0H16.5786Z" fill="#D9D9D9"/>
<path d="M8.71282 34.9263L0 44.6394V58.0552H16.0809C19.6441 58.0552 22.937 57.4814 25.9039 56.4312L8.71461 34.9263H8.71282Z" fill="#D9D9D9"/>
<path d="M42.1478 32.5425C42.1478 22.8889 37.6016 14.8899 30.0509 10.5503L13.4775 29.6825L32.2604 53.0947C38.479 48.5458 42.1478 41.2108 42.1478 32.5406V32.5425Z" fill="#D9D9D9"/>
<path d="M0 7.03174V33.7821L23.1017 7.82748C20.9029 7.30781 18.5573 7.03174 16.0791 7.03174H0Z" fill="#D9D9D9"/>
</g>
<defs>
<clipPath id="clip0_86_1163">
<rect width="56.5957" height="65.0851" fill="white"/>
</clipPath>
</defs>
</svg>
