<svg width="20" height="21" viewBox="0 0 20 21" fill="none" xmlns="http://www.w3.org/2000/svg">
<path d="M14.9243 12.8485C14.9243 13.2508 14.9913 13.5286 15.1266 13.682C15.2618 13.8353 15.4318 13.912 15.639 13.912C15.9256 13.912 16.1998 13.7586 16.4615 13.4532C16.7233 13.1477 16.938 12.7165 17.1055 12.1609C17.2717 11.6053 17.3561 10.973 17.3561 10.264C17.3561 9.16908 17.1973 8.14205 16.8797 7.18416C16.562 6.22627 16.0931 5.38906 15.4727 4.67128C14.8524 3.95475 14.0931 3.39535 13.196 2.99183C12.2978 2.58957 11.268 2.38843 10.1079 2.38843C9.07444 2.38843 8.1005 2.59837 7.18735 3.01697C6.27295 3.43558 5.47022 4.01131 4.77916 4.74419C4.08809 5.47706 3.54715 6.32684 3.15757 7.29227C2.76799 8.25896 2.5732 9.28976 2.5732 10.3847C2.5732 11.4796 2.75558 12.4664 3.12159 13.3928C3.48759 14.3193 4 15.1238 4.66005 15.8089C5.31886 16.494 6.09057 17.0258 6.9727 17.4029C7.85484 17.7813 8.80521 17.9711 9.82258 17.9711C10.4901 17.9711 11.2208 17.8504 12.0161 17.6091C12.8114 17.3677 13.5422 16.9805 14.2097 16.45L15.4256 18.528C14.964 18.8988 14.4156 19.2244 13.7804 19.506C13.1439 19.7876 12.4814 20.0013 11.7891 20.1458C11.098 20.2904 10.4417 20.3633 9.82258 20.3633C8.42432 20.3633 7.12779 20.1131 5.93672 19.6141C4.74442 19.115 3.70347 18.4186 2.8139 17.5248C1.92308 16.6311 1.23201 15.5764 0.739454 14.3608C0.246898 13.1452 0 11.8202 0 10.3872C0 8.95412 0.261787 7.5814 0.786601 6.31678C1.31141 5.05217 2.03474 3.94972 2.95658 3.00691C3.87841 2.06411 4.95161 1.32747 6.17494 0.796983C7.39826 0.265242 8.70968 0 10.1092 0C11.5087 0 12.804 0.253928 13.995 0.760528C15.1873 1.26838 16.2246 1.97989 17.1067 2.89881C17.9888 3.81647 18.6762 4.89629 19.1687 6.13576C19.6613 7.37649 19.9082 8.7291 19.9082 10.1948C19.9082 11.3702 19.7097 12.401 19.3127 13.2872C18.9156 14.1735 18.3747 14.8573 17.6911 15.3413C17.0074 15.824 16.2208 16.0654 15.3313 16.0654C14.6154 16.0654 14.0124 15.9246 13.5186 15.643C13.0261 15.3614 12.6923 14.9063 12.5174 14.2778L12.4702 14.1094C12.0248 14.7379 11.5285 15.1804 10.9801 15.4381C10.4318 15.6958 9.87965 15.824 9.32258 15.824C8.49628 15.824 7.70471 15.594 6.95037 15.1351C6.19479 14.6763 5.5794 14.0365 5.10298 13.2143C4.62655 12.3935 4.38834 11.4268 4.38834 10.3155C4.38834 9.30107 4.57444 8.37084 4.94913 7.52483C5.32258 6.67882 5.85112 5.99874 6.53474 5.48334C7.21836 4.96795 8.02854 4.71025 8.9665 4.71025C9.39578 4.71025 9.78908 4.77938 10.1464 4.91515C10.5037 5.05217 10.8176 5.21684 11.0881 5.41043C11.3586 5.60402 11.5645 5.79761 11.7084 5.98994V4.99937H14.9268V12.851L14.9243 12.8485ZM9.63151 7.70207C9.28164 7.70207 8.97891 7.81898 8.72581 8.0528C8.47146 8.28661 8.27295 8.58831 8.13027 8.95915C7.98759 9.32998 7.91563 9.73979 7.91563 10.1911C7.91563 10.6738 7.98263 11.1213 8.11787 11.5324C8.2531 11.9434 8.45161 12.2728 8.71464 12.5229C8.97643 12.7731 9.29032 12.8975 9.65633 12.8975C10.0534 12.8975 10.3871 12.7769 10.6576 12.5355C10.928 12.2942 11.134 11.9673 11.2779 11.5575C11.4206 11.1464 11.4926 10.7002 11.4926 10.2162C11.4926 9.73224 11.4206 9.32621 11.2779 8.94783C11.1352 8.56945 10.9243 8.26776 10.6464 8.04148C10.3685 7.81647 10.0298 7.70333 9.63275 7.70333L9.63151 7.70207Z" fill="#D9D9D9"/>
</svg>
