<svg width="112" height="38" viewBox="0 0 112 38" fill="none" xmlns="http://www.w3.org/2000/svg">
<path d="M18.0889 0V3.15908H3.17005V9.10779H12.0274L12.3076 9.38644V12.2669H3.17005V19.8875H19.0203V22.8618H0V0H18.0889Z" fill="#D9D9D9"/>
<path d="M21.6316 5.29763C21.7631 4.87339 24.0815 4.86713 24.4431 5.28354L31.5112 15.0566L38.3068 5.19274C38.706 4.90314 40.5924 4.85461 41.0244 5.29919V37.5475H37.8544V10.9661L31.2372 20.0739L24.8016 10.9661V22.862H21.6316V5.29763Z" fill="#D9D9D9"/>
<path d="M84.0981 19.7029V22.862H70.4865V26.5799H79.4362V29.5527H70.4865V34.5715H84.8448V37.5459H67.3164V19.9815L67.5951 19.7029H84.0981Z" fill="#D9D9D9"/>
<path d="M49.0426 30.1116V37.5459H45.8726V19.7029H59.0193C59.5327 19.7029 61.2485 20.0864 61.7776 20.2993C65.8368 21.9368 65.5175 28.0874 61.4786 29.5871C61.0403 29.7499 59.5969 30.11 59.2071 30.11H49.0442L49.0426 30.1116ZM49.0426 26.9509H59.9507C60.0149 26.9509 60.7522 26.4969 60.8681 26.378C61.4614 25.7753 61.56 24.4525 61.142 23.7183C61.0058 23.4803 60.1151 22.8604 59.9507 22.8604H49.0426V26.9493V26.9509Z" fill="#D9D9D9"/>
<path d="M100.135 31.4122V19.9813L100.415 19.7027H103.305V37.5457L101.334 37.3735L90.8107 25.8361V37.5457H87.6406V19.9813C88.0148 19.5446 89.1701 19.5868 89.6115 19.8749L100.135 31.4122Z" fill="#D9D9D9"/>
<path d="M108.917 33.9953L111.323 34.0156L109.496 35.6187L110.203 37.7289L108.087 36.4499L106.29 37.7304L106.86 35.4418L104.983 34.0141L107.414 33.9264C107.827 33.6509 107.749 32.04 108.336 31.7817L108.915 33.9937L108.917 33.9953Z" fill="#D9D9D9"/>
</svg>
