<svg width="128" height="44" viewBox="0 0 128 44" fill="none" xmlns="http://www.w3.org/2000/svg">
<path d="M20.6768 0.0396335L22.3049 0C38.894 0.627794 48.8103 19.1018 39.6962 33.2319C31.7282 45.5848 13.7551 46.4806 4.64099 34.8981C-6.22814 21.0834 3.16504 0.821223 20.6768 0.0380659V0.0396335ZM20.5388 0.456578C19.9919 0.485115 16.7974 0.816463 16.5882 1.10341C16.52 1.56633 17.3317 4.69262 17.4998 4.80993C20.2281 4.31372 22.9945 4.31372 25.7245 4.80993L26.6345 1.10341C24.7067 0.539028 22.5396 0.350361 20.5373 0.456578H20.5388ZM30.7295 8.20413C25.5073 4.22176 17.6139 4.35651 12.3537 8.20413C15.0123 8.75266 15.1201 11.416 14.5827 13.6308C15.4451 12.8016 15.7844 11.8869 16.8513 11.2385C19.4148 9.68325 24.6925 9.64203 26.9722 11.7505C27.6047 12.3355 27.9012 13.1631 28.64 13.6292C27.9963 11.489 28.1707 8.78438 30.7295 8.20256V8.20413ZM4.95491 16.6698C5.93782 14.1016 7.38207 11.8488 8.99437 9.64046L6.29769 6.95647C3.91809 9.47082 2.19164 12.4576 1.21348 15.7852L4.95491 16.6698ZM41.8617 15.8502C41.1293 12.6336 39.3173 9.27424 36.8045 7.10233L34.2045 9.80534C35.9215 11.879 37.4767 14.1745 38.1092 16.83L41.8617 15.8502ZM36.1577 21.4893C36.256 22.1773 36.1577 23.249 36.1577 23.9925C36.1577 24.0147 36.0213 24.3984 35.8802 24.3397C35.8802 23.9228 35.8311 23.2252 35.4633 22.9494C36.1307 26.6036 34.4899 29.9994 31.2875 31.7845C30.0795 32.4583 28.6622 32.8213 27.4843 33.5489C26.5283 34.1387 25.7911 35.1057 24.7749 35.5703C22.8772 36.4358 19.8936 36.4057 18.0562 35.4038C17.2683 34.9742 16.8228 34.2957 16.1585 33.8216C14.914 32.9354 13.0275 32.4456 11.6546 31.645C8.47119 29.7885 7.01902 26.4324 7.75779 22.8099L7.06499 24.4776C6.96036 23.2125 6.78598 22.1694 7.195 20.9233C8.26511 17.6639 14.115 16.0104 13.6093 11.8853C13.3287 9.58973 8.97216 9.65473 9.14338 12.0264C9.28289 13.9526 12.7865 14.5376 10.4782 16.692C9.10058 17.9778 9.82984 16.7222 9.44143 16.1895C9.24801 15.9247 8.42681 15.7012 8.17632 15.3667L7.06499 14.0445C0.858366 26.3246 11.4786 40.2993 25.0254 37.4869C35.3793 35.3372 40.9185 23.6168 36.1561 14.1825C35.9421 14.1317 35.9341 14.2157 35.8184 14.3299C35.4712 14.6771 35.1716 15.1337 34.7673 15.5046C34.4312 15.8138 33.5545 16.161 33.5102 16.6191C33.4864 16.8696 33.7686 17.1803 33.5831 17.3801C32.8887 16.8839 31.8059 16.2038 31.8344 15.2193C31.8693 14.0096 34.9195 12.9427 33.7701 11.072C32.7825 9.46607 29.4358 10.1034 29.4723 12.2959C29.5388 16.4431 35.6773 18.0903 36.1577 21.4845V21.4893ZM33.7543 19.0907C33.4911 18.8021 31.9771 18.6594 31.5015 18.6309C28.3895 18.4423 25.3377 19.032 22.3065 19.1921C18.9551 19.3681 15.1566 18.4153 11.5832 18.6309C10.8952 18.6721 9.27337 18.6816 9.27813 19.5409C9.31459 20.1005 9.95826 20.3716 10.2658 20.7933C11.3153 22.228 10.8445 25.4621 12.693 26.296C13.6569 26.7304 15.9207 26.6813 16.9813 26.5291C18.3273 26.3373 19.1501 25.7142 19.659 24.4761C20.0506 23.5233 20.1298 21.8412 20.5071 21.15C20.8575 20.508 22.1004 20.4398 22.5237 20.9598C22.8566 21.3688 23.18 23.704 23.5225 24.5157C23.9347 25.4875 24.3881 26.0487 25.436 26.3594C26.5854 26.6987 29.1822 26.7621 30.3077 26.3531C32.4036 25.589 31.7567 22.1218 32.9775 20.6744C33.2914 20.3019 34.3773 19.7708 33.7543 19.0907ZM5.10868 26.4324L1.22141 27.4676C2.33433 30.6462 3.81663 33.9279 6.41818 36.1537L9.00387 33.3318C7.23621 31.385 5.74758 29.0086 5.11027 26.4324H5.10868ZM38.1203 26.4403C37.3831 29.1211 35.8929 31.3897 34.0761 33.4522L36.8045 36.1553C38.5198 34.6222 39.9752 32.4012 40.9153 30.2784C41.123 29.8107 42.0393 27.7086 41.8078 27.3947L38.1203 26.4419V26.4403ZM24.9842 27.856C24.3421 27.1775 14.8649 26.7051 19.2722 29.4604C19.7208 29.741 21.1524 30.4908 21.609 30.4718C22.1163 30.4496 24.2597 29.305 24.6734 28.9309C24.9683 28.6629 25.344 28.2365 24.9857 27.856H24.9842ZM27.5286 29.2099C27.1529 32.3663 24.1249 33.5204 21.5852 31.7322C18.8822 33.568 16.0079 32.3267 15.5545 29.0735C15.312 29.0402 15.4245 29.389 15.4182 29.5571C15.3009 32.6659 18.6745 35.7494 21.7453 35.6115C24.5656 35.4846 27.8299 32.6104 27.8124 29.7029C27.8108 29.4065 27.9297 29.1274 27.5302 29.2115L27.5286 29.2099ZM25.7166 38.2495C23.0294 39.0057 20.2043 38.8884 17.4982 38.3081L16.5422 42.1351C19.8698 42.9199 23.3608 42.9056 26.6884 42.1399L25.7166 38.2495Z" fill="#D9D9D9"/>
<path d="M62.3301 10.1526H58.0846C58.0101 10.1526 57.3664 9.23785 57.1096 9.03968C53.1098 5.95936 48.4837 11.5873 51.3342 15.5063C53.1066 17.9445 57.4473 17.8764 58.2938 14.7422H53.839V11.6824H62.8882C63.0816 15.5126 61.2838 18.9449 57.5329 20.1719C51.136 22.2662 45.0435 16.8586 46.9475 10.2905C49.0291 3.1121 60.2422 2.94881 62.3301 10.1526Z" fill="#D9D9D9"/>
<path d="M81.8188 22.8113L87.5261 31.8525V22.8113H91.2849V37.9037L91.0757 38.1114H87.8748L81.9599 29.0702L82.0979 38.1114H78.339V22.8113H81.8188Z" fill="#D9D9D9"/>
<path d="M71.4474 4.80493C81.7823 4.80493 82.0534 19.7166 72.4192 20.5822C60.862 21.6206 60.4166 4.80493 71.4474 4.80493ZM70.929 8.24511C65.1456 8.88559 66.834 18.8716 72.741 17.0105C77.161 15.6185 76.2145 7.66012 70.929 8.24511Z" fill="#D9D9D9"/>
<path d="M117.943 5.14453L123.721 14.1873V5.14453H127.34V20.3067H124.068L118.153 11.2655L118.291 20.3067H114.532V5.14453H117.943Z" fill="#D9D9D9"/>
<path d="M93.2333 38.1115V22.8098H99.8457C107.473 22.8098 109.022 35.8365 101.417 37.7326C98.7867 38.3889 95.9236 38.0053 93.2333 38.1099V38.1115ZM97.1316 34.6349H99.5683C99.665 34.6349 100.653 34.2829 100.8 34.1973C103.054 32.8926 102.999 28.2016 100.881 26.7859C100.68 26.6511 99.887 26.2896 99.7062 26.2896H97.1316V34.6365V34.6349Z" fill="#D9D9D9"/>
<path d="M90.0325 20.3067V5.14453H97.2014C97.7642 5.14453 99.3369 5.78025 99.8695 6.09415C104.405 8.76703 104.389 17.2898 99.4954 19.5394C98.9802 19.7756 97.2823 20.3067 96.7829 20.3067H90.0309H90.0325ZM93.9293 16.968C95.8079 17.0092 97.9751 16.9807 98.8708 15.0196C99.6206 13.3756 99.4019 10.1209 97.7357 9.0619C97.5169 8.92239 96.4135 8.48325 96.2264 8.48325H93.9293V16.968Z" fill="#D9D9D9"/>
<path d="M62.4681 38.1115L68.3307 22.8273L71.5918 22.8003L77.6415 38.1115H73.3262L72.6461 35.9681L67.4287 35.9047L66.644 38.1115H62.4681ZM71.5173 32.826L69.9161 27.6784L68.3149 32.826H71.5173Z" fill="#D9D9D9"/>
<path d="M120.658 38.1115H116.552L115.772 35.8999L110.341 35.9681L109.591 38.1115H105.485L111.465 22.8748C111.6 22.7828 114.282 22.7527 114.602 22.8114C114.758 22.8399 114.869 22.878 114.938 23.0317L120.658 38.1131V38.1115ZM111.539 32.826H114.672L112.933 27.6784L111.386 32.539L111.539 32.8276V32.826Z" fill="#D9D9D9"/>
<path d="M59.6146 22.8115C63.2291 23.1175 65.0063 25.5209 64.5212 29.1053C64.2644 31.0061 62.3223 33.2446 60.3121 33.2446H57.04V38.1132H53.1416V22.8115C55.2406 22.9415 57.5409 22.6355 59.6146 22.8115ZM57.04 29.9043H59.0581C59.9713 29.9043 60.8543 29.0466 60.9034 28.1303C60.9447 27.3694 60.2614 26.2866 59.4766 26.2866H57.04V29.9027V29.9043Z" fill="#D9D9D9"/>
<path d="M113.14 5.14453V8.48325H108.408V10.8486H113.001V14.3252H108.408V16.968H113.14V20.3067H104.51V5.14453H113.14Z" fill="#D9D9D9"/>
<path d="M84.7422 5.14453V16.7603L84.9515 16.968H89.3366V20.3067H80.8439V5.14453H84.7422Z" fill="#D9D9D9"/>
<path d="M25.8561 32.8276C23.9806 35.6305 19.1659 35.537 17.2255 32.8276C20.0553 33.5125 23.031 33.541 25.8561 32.8276Z" fill="#D9D9D9"/>
</svg>
