<svg width="195" height="33" viewBox="0 0 195 33" fill="none" xmlns="http://www.w3.org/2000/svg">
<path d="M67.9757 16.3081C68.0605 16.3811 68.1395 16.46 68.2125 16.5429H68.7848C68.8282 16.5922 68.8676 16.6416 68.9071 16.6929C69.1064 16.9613 69.2485 17.2711 69.3334 17.6223C69.4774 18.1591 69.4912 18.7866 69.3728 19.5069C69.136 20.8429 68.5144 21.8513 67.506 22.5321C66.5114 23.213 65.2149 23.5544 63.6164 23.5544C62.1226 23.5544 60.9188 23.2524 60.0012 22.6506C59.0973 22.0349 58.4816 21.1843 58.1541 20.097L61.5522 18.3485C61.9706 19.3964 62.7698 19.9194 63.948 19.9194C64.8774 19.9194 65.3885 19.6766 65.4813 19.1932C65.5069 19.0353 65.4813 18.8991 65.4024 18.7807C65.3234 18.6623 65.1853 18.5577 64.9899 18.4669C64.7926 18.3762 64.611 18.2972 64.4393 18.2321C64.2696 18.167 64.0269 18.0881 63.7131 17.9973C63.4112 17.9065 63.1764 17.8335 63.0066 17.7822C62.3515 17.5533 61.7989 17.277 61.347 16.9534H60.7747C60.6583 16.8705 60.5498 16.7836 60.4471 16.6948C59.4644 15.8384 59.0993 14.6958 59.3499 13.2651C59.5729 12.0337 60.1748 11.045 61.1576 10.2991C62.1403 9.55313 63.3382 9.18018 64.7531 9.18018C65.9312 9.18018 66.9396 9.45446 67.7783 10.005C68.617 10.5556 69.2525 11.347 69.6846 12.381L66.3654 14.1492C66.024 13.2592 65.4024 12.8132 64.4985 12.8132C63.8177 12.8132 63.425 13.048 63.3204 13.5197C63.2691 13.8078 63.3855 14.0426 63.6737 14.2261C63.9618 14.4097 64.5518 14.6524 65.4418 14.9523C66.0042 15.1359 66.47 15.3253 66.837 15.5227C67.2159 15.7062 67.5968 15.9686 67.9757 16.3081Z" fill="#D9D9D9"/>
<path d="M58.5645 9.49416L57.3252 16.5431H57.8975L56.7194 23.2408H53.5757L50.5624 16.9516H50.3591L49.254 23.2408H45.325L46.4301 16.9516H45.8578L47.1681 9.49219H50.3117L53.4751 16.0912L54.6335 9.49219H58.5625L58.5645 9.49416Z" fill="#D9D9D9"/>
<path d="M37.2283 16.7481L40.0759 16.3554L41.2816 9.4939H45.2107L43.9714 16.5428H44.5437L43.3655 23.2406H39.4365L40.4804 17.3085L37.2283 16.7481Z" fill="#D9D9D9"/>
<path fill-rule="evenodd" clip-rule="evenodd" d="M192.452 15.8305C192.493 15.1576 192.434 14.4985 192.278 13.8532C192.069 12.975 191.708 12.1896 191.199 11.4969C190.688 10.8023 189.987 10.2458 189.097 9.82743C188.207 9.39526 187.199 9.18018 186.072 9.18018C183.897 9.18018 182.064 9.86691 180.572 11.2424C179.092 12.604 178.196 14.234 177.88 16.1324C177.851 16.3219 177.827 16.5093 177.811 16.6948C177.803 16.7817 177.797 16.8685 177.793 16.9534H178.366C178.318 17.8888 178.453 18.7945 178.766 19.6668C179.185 20.7798 179.925 21.7092 180.986 22.4552C182.046 23.1893 183.325 23.5544 184.817 23.5544C187.017 23.5544 188.845 22.8597 190.297 21.4724C191.625 20.2154 192.476 18.7452 192.849 17.0599L195.005 16.5429L192.454 15.8285L192.452 15.8305ZM184.977 16.7481L188.736 17.3954C188.495 17.9105 188.144 18.3663 187.684 18.763C186.938 19.3905 186.08 19.7062 185.111 19.7062C184.142 19.7062 183.396 19.3925 182.871 18.763C182.409 18.1966 182.216 17.5059 182.295 16.6948C182.299 16.6455 182.305 16.5942 182.313 16.5449H181.74C181.748 16.4857 181.758 16.4284 181.768 16.3673C181.938 15.4121 182.397 14.6188 183.143 13.9913C183.889 13.35 184.748 13.0283 185.717 13.0283C186.686 13.0283 187.432 13.35 187.956 13.9913C188.462 14.5971 188.643 15.3529 188.505 16.2627L184.977 16.7501V16.7481Z" fill="#D9D9D9"/>
<path d="M172.582 23.2408L169.568 16.9516H169.365L168.26 23.2408H164.331L165.436 16.9516H164.864L166.174 9.49219H169.318L172.481 16.0912L173.64 9.49219H177.569L176.329 16.5411H176.902L175.723 23.2388H172.58L172.582 23.2408Z" fill="#D9D9D9"/>
<path d="M164.215 9.49416L162.975 16.5431H163.548L162.369 23.2408H158.44L159.546 16.9516H158.973L160.284 9.49219H164.213L164.215 9.49416Z" fill="#D9D9D9"/>
<path d="M151.449 17.7822C150.793 17.5533 150.241 17.277 149.789 16.9534H149.217C149.1 16.8705 148.992 16.7836 148.889 16.6948C147.906 15.8384 147.541 14.6958 147.792 13.2651C148.015 12.0337 148.617 11.045 149.599 10.2991C150.582 9.55313 151.78 9.18018 153.195 9.18018C154.373 9.18018 155.382 9.45446 156.22 10.005C157.059 10.5556 157.694 11.347 158.127 12.381L154.807 14.1492C154.468 13.2592 153.844 12.8132 152.94 12.8132C152.26 12.8132 151.867 13.048 151.762 13.5197C151.711 13.8078 151.827 14.0426 152.116 14.2261C152.404 14.4097 152.994 14.6524 153.884 14.9523C154.446 15.1359 154.912 15.3253 155.279 15.5227C155.66 15.7062 156.039 15.9686 156.418 16.3081C156.502 16.3811 156.581 16.46 156.654 16.5429H157.227C157.27 16.5922 157.31 16.6416 157.349 16.6929C157.548 16.9613 157.69 17.2711 157.775 17.6223C157.919 18.1591 157.933 18.7866 157.815 19.5069C157.578 20.8429 156.956 21.8513 155.948 22.5321C154.953 23.213 153.657 23.5544 152.058 23.5544C150.564 23.5544 149.361 23.2524 148.443 22.6506C147.539 22.0349 146.924 21.1843 146.596 20.097L149.994 18.3485C150.412 19.3964 151.212 19.9194 152.39 19.9194C153.319 19.9194 153.83 19.6766 153.923 19.1932C153.949 19.0353 153.923 18.8991 153.844 18.7807C153.765 18.6623 153.629 18.5577 153.432 18.4669C153.234 18.3762 153.053 18.2972 152.881 18.2321C152.712 18.167 152.469 18.0881 152.155 17.9973C151.853 17.9065 151.618 17.8335 151.449 17.7822Z" fill="#D9D9D9"/>
<path fill-rule="evenodd" clip-rule="evenodd" d="M143.891 9.49416L144.897 16.5431H145.469L146.426 23.2408H142.32L142.162 21.4726H138.193L137.408 23.2408H133.066L136.176 16.9516H135.604L139.292 9.49219H143.891V9.49416ZM141.741 16.9536H141.169L140.905 14.1099L139.817 16.5451H140.39L139.59 18.333H141.87L141.741 16.9536Z" fill="#D9D9D9"/>
<path d="M120.677 15.9965L117.036 16.7504L121.106 17.4509C121.084 19.0119 121.536 20.3459 122.457 21.455C123.635 22.8561 125.293 23.5566 127.428 23.5566C128.75 23.5566 129.962 23.2685 131.063 22.6923C132.176 22.1022 133.086 21.2852 133.794 20.2374L130.532 18.1752C129.747 19.1954 128.81 19.7065 127.722 19.7065C126.779 19.7065 126.073 19.3849 125.601 18.7435C125.187 18.1673 125.015 17.4845 125.086 16.6932C125.09 16.6438 125.096 16.5925 125.102 16.5432H124.529C124.537 16.484 124.545 16.4267 124.555 16.3656C124.725 15.3966 125.171 14.5974 125.891 13.9699C126.611 13.3424 127.444 13.0266 128.385 13.0266C129.552 13.0266 130.402 13.5042 130.939 14.4593L134.535 12.555C133.368 10.3033 131.436 9.17651 128.739 9.17651C126.722 9.17651 124.948 9.83167 123.414 11.14C121.938 12.4109 121.025 14.0291 120.673 15.9926L120.677 15.9965Z" fill="#D9D9D9"/>
<path d="M113.301 13.3045L112.731 16.5448H113.303L112.125 23.2425H108.196L109.303 16.9533H108.731L109.372 13.3045H106.13L106.797 9.4939H117.208L116.541 13.3045H113.299H113.301Z" fill="#D9D9D9"/>
<path d="M100.638 23.2408L97.6241 16.9516H97.4209L96.3158 23.2408H92.3867L93.4918 16.9516H92.9195L94.2299 9.49219H97.3735L100.537 16.0912L101.695 9.49219H105.624L104.385 16.5411H104.957L103.779 23.2388H100.636L100.638 23.2408Z" fill="#D9D9D9"/>
<path fill-rule="evenodd" clip-rule="evenodd" d="M89.0614 9.49416L90.0678 16.5431H90.6401L91.5972 23.2408H87.4906L87.3327 21.4726H83.3642L82.5788 23.2408H78.2373L81.3474 16.9516H80.7751L84.4634 9.49219H89.0614V9.49416ZM86.9104 16.9536H86.3381L86.0737 14.1099L84.9863 16.5451H85.5586L84.7594 18.333H87.0387L86.9104 16.9536Z" fill="#D9D9D9"/>
<path d="M72.0508 23.2408L73.1578 16.9516H72.5856L73.2269 13.3028H69.9846L70.6536 9.49219H81.0653L80.3983 13.3028H77.156L76.5856 16.5431H77.1579L75.9798 23.2408H72.0508Z" fill="#D9D9D9"/>
<path d="M12.9929 17.8098L9.2513 15.7082L22.1001 2.27133C20.9536 1.73851 19.734 1.33987 18.4552 1.09912V2.83374C18.4552 3.35472 18.0329 3.77505 17.5139 3.77505H13.5592C13.0383 3.77505 12.6179 3.35274 12.6179 2.83374V1.10505C9.10527 1.776 6.01098 3.62902 3.76722 6.23587L5.26503 7.10021C5.71497 7.35873 5.87087 7.93693 5.6084 8.38489L3.63106 11.8107C3.37254 12.2606 2.79433 12.4165 2.34637 12.1541L0.854482 11.2917C0.303904 12.8862 0 14.5952 0 16.3771C0 18.1591 0.309824 19.9154 0.878163 21.5277L2.34637 20.6791C2.79631 20.4206 3.37254 20.5726 3.63106 21.0225L5.6084 24.4483C5.86692 24.8982 5.71497 25.4745 5.26503 25.733L3.81458 26.5717C4.70064 27.5919 5.71694 28.4898 6.83783 29.2515V32.7543L12.9968 17.8059H12.9948L12.9929 17.8098Z" fill="#D9D9D9"/>
<path d="M30.2543 11.2996L28.7703 12.1561C28.3203 12.4146 27.7441 12.2627 27.4856 11.8127L25.5082 8.38692C25.2497 7.93698 25.4017 7.36075 25.8516 7.10224L27.3415 6.24382C26.4436 5.19989 25.4115 4.28227 24.2689 3.5087V0L18.2126 14.5992L21.9403 16.6949L8.97705 30.4771C10.1216 31.0118 11.3392 31.4125 12.6121 31.6552V29.9936C12.6121 29.4726 13.0344 29.0523 13.5534 29.0523H17.5081C18.029 29.0523 18.4494 29.4746 18.4494 29.9936V31.6631C21.9324 31.0059 25.078 29.1667 27.3316 26.6033L26.8363 26.3132L25.8457 25.7409C25.3957 25.4824 25.2398 24.9042 25.5023 24.4562L27.4797 21.0304C27.7382 20.5805 28.3164 20.4246 28.7643 20.6871L30.2266 21.5297C30.791 19.9174 31.1028 18.1868 31.1028 16.3831C31.1028 14.5794 30.8009 12.8961 30.2503 11.3016L30.2543 11.2996Z" fill="#D9D9D9"/>
<path d="M9.9144 25.2793L12.9909 17.808L9.24937 15.7064L18.2106 6.33671C17.3956 6.13345 16.5431 6.02295 15.6649 6.02295C9.87296 6.02295 5.17627 10.7177 5.17627 16.5115C5.17627 20.1801 7.05889 23.4046 9.91243 25.2793H9.9144Z" fill="#D9D9D9"/>
<path d="M21.1332 7.56008L18.2145 14.5972L21.9423 16.6929L12.6614 26.5599C13.6126 26.8441 14.621 26.998 15.6649 26.998C21.4568 26.998 26.1535 22.3033 26.1535 16.5094C26.1535 12.7205 24.1446 9.40125 21.1332 7.55811V7.56008Z" fill="#D9D9D9"/>
<path d="M12.991 17.8097L9.24945 15.7081L22.0983 2.27124L6.89518 15.7081L10.6367 17.8097L6.83203 32.7601L12.991 17.8097Z" fill="black"/>
</svg>
