<svg width="192" height="43" viewBox="0 0 192 43" fill="none" xmlns="http://www.w3.org/2000/svg">
<mask id="mask0_86_1089" style="mask-type:luminance" maskUnits="userSpaceOnUse" x="0" y="0" width="37" height="43">
<path d="M36.9421 0H0V42.3354H36.9421V0Z" fill="white"/>
</mask>
<g mask="url(#mask0_86_1089)">
<mask id="mask1_86_1089" style="mask-type:luminance" maskUnits="userSpaceOnUse" x="0" y="-1" width="36" height="43">
<path d="M35.99 -0.00537109H0V41.2762H35.99V-0.00537109Z" fill="white"/>
</mask>
<g mask="url(#mask1_86_1089)">
<path d="M14.2616 12.5165C14.0535 12.5907 13.8598 12.6811 13.6807 12.8005L16.7808 3.35318L16.96 2.80127H17.4667L17.407 2.9804L14.3068 12.4874L14.2616 12.5165Z" fill="#D9D9D9"/>
<path d="M21.8027 14.7855L22.4886 14.0996V13.4427C22.4886 13.4427 22.5177 13.354 22.5483 13.3088L23.323 12.5325V11.5029L21.8027 13.0248V14.7855Z" fill="#D9D9D9"/>
<path d="M18.851 14.5922C18.4637 13.4577 18.0764 12.3086 17.6891 11.1741C17.6746 11.1289 17.66 11.0692 17.6294 11.0256V11.0999C17.4212 11.6825 17.2114 12.2796 17.0177 12.8605C17.0032 12.8896 16.9887 12.9203 16.9887 12.9493C16.9887 12.9784 16.9887 13.009 17.0177 13.0381C17.3308 13.306 17.5987 13.6497 17.7633 14.0225C17.9425 14.3953 18.0312 14.8133 18.0312 15.2312C18.0312 15.6492 17.9425 16.0672 17.7633 16.44C17.5842 16.8128 17.3308 17.1565 17.0177 17.4244C16.795 17.6036 16.5707 17.7827 16.3319 17.9618L15.6024 18.5138H15.7073C16.7208 18.8269 17.6439 19.3949 18.3895 20.155C19.0899 20.8716 19.5966 21.722 19.9097 22.6774C19.9985 22.976 20.0743 23.2891 20.1034 23.6021C20.1034 23.7216 20.0743 23.8265 20.0146 23.9152C19.9549 23.9895 19.8807 24.0637 19.7903 24.0944C19.7015 24.1234 19.5966 24.1234 19.5079 24.0944C19.403 24.0653 19.3142 24.0201 19.24 23.9459C19.1657 23.8716 19.1206 23.7668 19.106 23.6619C18.9576 22.7662 18.5848 21.9157 18.0038 21.1992L17.9296 21.1088H16.4093L13.8901 23.6764H14.739C14.739 23.6764 14.8278 23.707 14.873 23.7361L16.4981 25.2579H18.0474C18.9866 25.1692 19.85 24.735 20.4762 24.0346C21.1023 23.3326 21.459 22.437 21.459 21.4977V19.3481H21.2347C20.9361 19.3029 20.6682 19.2142 20.4149 19.0641C20.013 18.8397 19.6547 18.5267 19.4159 18.1232C19.1625 17.7359 19.0286 17.2727 19.014 16.8096V15.1376C19.014 14.944 18.985 14.7648 18.9253 14.5857L18.8801 14.5567L18.851 14.5857V14.5922Z" fill="#D9D9D9"/>
<path d="M12.9655 19.2931L14.2921 18.2634L14.844 17.831L14.9634 17.7422H13.4141L12.8332 18.1602H9.41992C9.22626 18.6233 9.10683 19.101 9.04712 19.5932H11.9972C12.0262 19.5932 12.0424 19.6223 12.0569 19.6384C12.0714 19.653 12.086 19.6836 12.1021 19.6981V22.7273H12.5201L15.6638 19.6223C15.3362 19.5029 14.9779 19.4141 14.6358 19.3689H14.5164C14.4712 19.3689 14.4421 19.398 14.4115 19.4286C14.1129 19.6675 13.7998 19.8918 13.4868 20.1145C13.4125 20.1742 13.3222 20.2033 13.2334 20.2339C13.1285 20.2484 13.0091 20.2339 12.9203 20.1887C12.8315 20.129 12.7557 20.0403 12.7121 19.9354C12.6669 19.8305 12.6669 19.711 12.6976 19.6078C12.7266 19.5029 12.8025 19.3996 12.8913 19.3399L12.9364 19.2947H12.9655V19.2931Z" fill="#D9D9D9"/>
<path d="M10.774 16.2767C10.6546 16.3816 10.5659 16.4849 10.461 16.5898L10.2818 16.8141H12.6074L14.6634 15.3358V15.2471C14.6634 15.1131 14.7231 14.9792 14.8118 14.8888C14.9006 14.8 15.0362 14.7403 15.1701 14.7403C15.3041 14.7403 15.438 14.8 15.5284 14.8888C15.6171 14.9776 15.6769 15.1131 15.6769 15.2471C15.6769 15.381 15.6171 15.515 15.5284 15.6053C15.4396 15.6957 15.3041 15.7538 15.1701 15.7538C15.0652 15.7538 14.9619 15.7248 14.8715 15.6651L12.8155 17.1578H9.96875L9.83479 17.3515C9.74603 17.4854 9.67018 17.6355 9.59595 17.784H12.6057L12.9931 17.5L13.1722 17.366H15.4525C15.735 17.1578 16.0335 16.9335 16.3014 16.7092C16.5838 16.501 16.8082 16.217 16.9276 15.8878C17.047 15.5602 17.076 15.2019 16.9873 14.8581C16.9276 14.5451 16.7791 14.261 16.5693 14.0077C16.3611 13.7688 16.0932 13.5752 15.7947 13.4703C15.4961 13.3654 15.1685 13.3218 14.8554 13.3815C14.5423 13.4267 14.2438 13.5606 13.9904 13.7543L11.6955 15.5004C11.3679 15.7538 11.0242 15.9927 10.6675 16.2622H10.7563L10.7708 16.2767H10.774Z" fill="#D9D9D9"/>
<path d="M20.2681 9.87475C20.06 10.1733 19.9405 10.5316 19.955 10.9044V15.2326L20.536 14.65V9.56006C20.4311 9.64882 20.3279 9.76823 20.2536 9.87313H20.2681V9.87475Z" fill="#D9D9D9"/>
<path d="M21.8175 19.3963V21.5298C21.8175 22.3206 21.5932 23.0968 21.1768 23.7681C20.7588 24.4395 20.1488 24.9769 19.4177 25.3061H19.7308C20.7298 25.3061 21.6981 24.9027 22.3985 24.2023C23.0989 23.5003 23.5007 22.5304 23.5007 21.5314V19.2027C23.4555 19.0687 23.412 18.9348 23.3813 18.7847C22.9488 19.1284 22.4275 19.3221 21.8917 19.3511L21.8175 19.3963Z" fill="#D9D9D9"/>
<path d="M9.0166 20.1873V22.7549H11.7294V19.9937H9.03274V20.1728L9.01822 20.1873H9.0166Z" fill="#D9D9D9"/>
<path d="M17.5248 37.9779H17.5845L17.7039 38.0522V27.8431H15.0669L13.5467 26.6199H10.4465C10.7741 27.0088 11.1324 27.3509 11.5343 27.6495C12.5768 28.4257 13.8291 28.8437 15.125 28.8437C15.1993 28.8292 15.2896 28.8292 15.3639 28.8437C15.4688 28.8889 15.5575 28.9777 15.6172 29.068C15.677 29.1729 15.6915 29.2924 15.6624 29.3973C15.6334 29.5167 15.5737 29.6054 15.4833 29.6813C15.3945 29.7555 15.2751 29.8007 15.1702 29.8007C14.5747 29.8007 13.9776 29.6958 13.4111 29.5328L13.0529 29.4279L14.8119 31.1886H16.8841C16.9131 31.1886 16.9293 31.2176 16.9438 31.2338C16.9583 31.2483 16.9729 31.279 16.989 31.2935V37.5616L17.5409 37.9199H17.5264V37.9796L17.5248 37.9779Z" fill="#D9D9D9"/>
<path d="M16.3483 37.2921L16.4677 37.3518L16.5726 37.4116V31.5905H14.6796C14.6796 31.5905 14.5908 31.5614 14.5457 31.5308L12.906 29.9041V30.5302L14.3665 31.9633H16.0352C16.0643 31.9633 16.0804 31.9923 16.0949 32.0085C16.1095 32.023 16.124 32.0537 16.1401 32.0682V37.113L16.3338 37.2324V37.2776L16.3483 37.2921Z" fill="#D9D9D9"/>
<path d="M11.4454 6.44214L3.20361 11.1884L10.4158 15.2036C10.5207 14.905 10.6547 14.5467 10.7434 14.2627C11.2953 12.6957 11.8311 11.1577 12.3831 9.56165C12.3976 9.51646 12.4121 9.48741 12.4121 9.44223C12.4121 9.39704 12.4121 9.36799 12.3831 9.32281L11.6681 7.18934C11.5794 6.95049 11.5035 6.71165 11.4293 6.48733V6.44214H11.4438H11.4454Z" fill="#D9D9D9"/>
<path d="M33.3822 29.3519V12.4729L28.7021 15.0841V18.4118C28.673 19.0089 28.4487 19.5753 28.0614 20.0385C28.0323 20.0837 28.0017 20.1434 28.0017 20.2031V22.6803C28.0017 23.3065 27.9274 23.9197 27.7628 24.5169C27.5094 25.4722 27.0624 26.3679 26.4508 27.1442C25.8391 27.9204 25.0645 28.5466 24.185 29.0097C24.1559 29.0097 24.1398 29.0404 24.1252 29.0694C24.1252 29.0985 24.0962 29.1146 24.0962 29.1437V34.7711L33.3805 29.3987V29.3535L33.3822 29.3519Z" fill="#D9D9D9"/>
<path d="M14.1276 32.3523L12.8752 31.0984V35.2927L13.9936 35.935L15.7527 36.9646V32.3975H14.2632C14.2632 32.3975 14.1744 32.3685 14.1292 32.3378V32.3523H14.1276Z" fill="#D9D9D9"/>
<path d="M11.8922 32.5459V29.1133C11.8922 29.1133 11.8922 29.0536 11.8632 29.0245C11.8487 28.9955 11.818 28.9793 11.7889 28.9648C10.9239 28.5162 10.1638 27.89 9.5538 27.1137C8.67426 25.905 8.13848 24.4719 7.98839 22.9791V20.3373C8.00292 19.7547 8.09328 19.1576 8.24175 18.5912C8.4806 17.7407 8.88245 16.9499 9.43437 16.2624L2.59497 12.457V29.3521L11.8793 34.7245V32.5152L11.8938 32.5443L11.8922 32.5459Z" fill="#D9D9D9"/>
<path d="M13.9485 4.98008V5.03979V4.95102L14.1728 4.2942L13.8452 3.36947V3.0564H13.324L13.5176 3.63898L13.9647 4.99783H13.9356L13.9501 4.98329L13.9485 4.98008Z" fill="#D9D9D9"/>
<path d="M12.9205 5.60622C12.9205 5.60622 12.8608 5.59169 12.8462 5.56102C12.8317 5.53198 12.8172 5.51582 12.801 5.48678L12.3831 4.29256L12.1442 3.60669H11.5632C11.6827 3.91977 11.7859 4.26352 11.8908 4.5766C12.0103 4.88968 12.099 5.20275 12.2039 5.51745C12.2491 5.6514 12.2927 5.80148 12.3524 5.93542C12.5606 6.56159 12.7704 7.15869 12.9786 7.78647V7.90591C12.9786 7.78649 13.0528 7.69771 13.098 7.60734L13.7839 5.66754H12.8753L12.9205 5.62235V5.60781V5.60622Z" fill="#D9D9D9"/>
<path d="M22.2049 9.26315C21.8466 9.14373 21.4754 9.14373 21.1172 9.26315L20.938 9.32286V14.6953C20.938 14.6953 20.909 14.784 20.8783 14.8292L19.9536 15.754V16.7093C19.9536 17.1418 20.1182 17.5598 20.4152 17.8729C20.7137 18.186 21.1156 18.3796 21.5481 18.4103C21.8466 18.4248 22.1597 18.3506 22.4276 18.2166C22.7262 18.052 22.9634 17.7987 23.128 17.5001L23.1877 17.3662C23.2765 17.158 23.3217 16.9482 23.3071 16.7238V13.0815L22.8746 13.514V14.1708C22.8746 14.1708 22.8456 14.2595 22.8149 14.3047L21.7869 15.3343V16.23C21.8757 16.2752 21.9661 16.3349 22.0258 16.4237C22.0855 16.5124 22.1145 16.6173 22.1145 16.7077C22.1145 16.8417 22.0548 16.9756 21.9661 17.066C21.8773 17.1563 21.7417 17.2145 21.6078 17.2145C21.4738 17.2145 21.3399 17.1547 21.2495 17.066C21.1607 16.9772 21.101 16.8417 21.101 16.7077C21.101 16.6028 21.1301 16.4995 21.1898 16.4237C21.2495 16.3349 21.3237 16.2752 21.4286 16.23V12.9314C21.4286 12.9314 21.4577 12.841 21.4883 12.7974L23.3507 10.9319C23.3652 10.5736 23.2619 10.2153 23.0683 9.91676C22.8746 9.6182 22.5761 9.39388 22.234 9.27446L22.2049 9.25992V9.26315Z" fill="#D9D9D9"/>
<path d="M11.9521 14.024V14.0837L12.6073 13.5915L13.114 13.2042L16.2142 3.66813L16.5724 2.54812C16.5724 2.54812 16.6176 2.47388 16.6467 2.44322C16.6757 2.41417 16.7209 2.41418 16.7661 2.41418H17.5553L17.7037 2.02686C17.7037 2.02686 17.615 1.92196 17.5988 1.86225C17.5698 1.80254 17.5698 1.72831 17.5698 1.6686C17.5698 1.53465 17.6295 1.40071 17.7183 1.31034C17.807 1.22158 17.941 1.16186 18.0765 1.16186C18.2121 1.16186 18.3444 1.22158 18.4348 1.31034C18.5236 1.3991 18.5833 1.53465 18.5833 1.6686C18.5833 1.80255 18.5381 1.92196 18.4493 2.02686C18.3606 2.11562 18.2411 2.17534 18.1072 2.19148L17.9281 2.72887L14.7537 12.4296C14.9183 12.415 15.0958 12.415 15.2604 12.4296L17.1082 6.77312C17.1082 6.77312 17.1534 6.69888 17.1825 6.66822C17.2115 6.63755 17.2567 6.63754 17.3019 6.63754H18.1669L18.927 4.41371L19.2691 3.38409C19.3886 3.0113 19.5225 2.65302 19.6565 2.28022C19.6565 2.20599 19.6855 2.13177 19.6855 2.05592C19.7743 1.63794 19.6855 1.1909 19.4612 0.832631C19.2369 0.474363 18.8802 0.206464 18.4622 0.101565C18.0442 -0.00333307 17.5972 0.041861 17.2261 0.250044C16.8533 0.458227 16.5708 0.801978 16.4369 1.20543C16.3175 1.53304 16.198 1.86226 16.0786 2.23505C15.8398 2.92093 15.6025 3.59389 15.3782 4.29429L15.0054 5.32391C14.4696 6.77151 13.9467 8.23363 13.44 9.80065L11.965 14.0385H11.9795L11.9504 14.024H11.9521Z" fill="#D9D9D9"/>
<path d="M20.8332 28.8001H21.5788C22.9506 28.6517 24.2319 28.0239 25.2002 27.0233C26.2879 25.9485 26.9287 24.4864 26.9884 22.9484V20.8149C26.764 20.8892 26.5268 20.9489 26.3025 20.9795V22.4271C26.3025 23.5165 25.87 24.5768 25.0953 25.353C24.3207 26.1293 23.2765 26.5618 22.1743 26.5618H19.313V29.6667L20.625 30.9497H23.099V29.4569H22.9796C22.2937 29.6651 21.5788 29.7846 20.8494 29.7846C20.7751 29.7846 20.7009 29.7845 20.6412 29.7394C20.5815 29.7103 20.5217 29.6651 20.462 29.6199C20.3878 29.5457 20.3426 29.4553 20.3281 29.3666C20.3136 29.2762 20.3281 29.1729 20.3733 29.0825C20.4023 28.9938 20.4782 28.9179 20.5524 28.8582C20.6267 28.7985 20.7316 28.784 20.8203 28.784H20.8058L20.8348 28.7985L20.8332 28.8001Z" fill="#D9D9D9"/>
<path d="M18.2251 9.26321C18.2251 9.26321 18.1799 9.38265 18.1799 9.45689C18.1799 9.53112 18.1799 9.59082 18.2251 9.65054C18.4494 10.2767 18.6576 10.9045 18.8658 11.5306C18.8803 11.5758 18.8949 11.6355 18.9255 11.6791V11.5452C18.9401 11.3967 18.9401 11.2321 18.9255 11.082C18.8965 10.7237 18.9255 10.3655 19.045 10.0217C19.1644 9.67798 19.3435 9.3649 19.5807 9.09701C19.8486 8.7694 20.2069 8.51441 20.6088 8.36594C20.8766 8.2917 21.1607 8.24652 21.4286 8.24652C21.9805 8.20133 22.5308 8.33527 23.0085 8.6193C23.4862 8.90333 23.8574 9.33585 24.0817 9.85873C24.1559 10.0379 24.2157 10.217 24.2754 10.4106C24.6627 10.0976 25.1242 9.88777 25.631 9.81353C26.1232 9.7393 26.6299 9.81354 27.0915 10.0217C27.5531 10.2299 27.9404 10.5591 28.2244 10.9626C28.5084 11.3806 28.6714 11.8583 28.686 12.365V13.485L32.7544 11.2159L20.102 3.87305C19.3871 5.93228 18.2832 9.12605 18.2235 9.29066V9.25998L18.2251 9.26321Z" fill="#D9D9D9"/>
<path d="M22.7711 35.4717L23.01 35.2926V31.3371H20.4908C20.4908 31.3371 20.4021 31.3081 20.3569 31.2774L19.3289 30.2478V32.0843L22.7857 35.5169V35.4879L22.7711 35.4734V35.4717Z" fill="#D9D9D9"/>
<path d="M22.384 35.6944L18.9562 32.2618C18.9562 32.2618 18.911 32.1714 18.8965 32.1279V26.5457H18.0767V38.2765L22.2048 35.8138L22.3533 35.7251L22.3985 35.6799L22.384 35.6944Z" fill="#D9D9D9"/>
<path d="M11.1178 2.36745C11.2065 2.65149 11.2969 2.91939 11.4002 3.20342H12.249C12.249 3.20342 12.3378 3.20341 12.3685 3.23246C12.3975 3.26151 12.4282 3.29218 12.4427 3.33736L12.6961 4.09908L13.0834 5.21908H13.6192L13.1722 3.86024L12.7848 2.68055L12.6202 2.18832C12.5008 2.18832 12.3959 2.14314 12.3072 2.0689C12.2184 1.99467 12.1587 1.88977 12.1425 1.78487V1.67996C12.1425 1.54602 12.2022 1.41207 12.291 1.3217C12.3798 1.23294 12.5153 1.17322 12.6493 1.17322C12.7687 1.17322 12.9027 1.21842 12.9914 1.30718C13.0511 1.35237 13.0963 1.41208 13.1254 1.4718C13.1544 1.53151 13.1705 1.60573 13.1705 1.67996C13.1705 1.7542 13.156 1.82844 13.1254 1.88815C13.0963 1.96239 13.0511 2.0221 12.9914 2.06729L13.1254 2.48526L13.1851 2.66439H13.9597C13.9597 2.66439 14.0485 2.6644 14.0791 2.69345C14.1082 2.7225 14.1388 2.75316 14.1534 2.79835L14.2873 3.18567L14.4665 3.70855L14.7489 2.91777V2.85806C14.7634 2.82901 14.7779 2.78383 14.7779 2.73864C14.7779 2.69345 14.7779 2.66441 14.7489 2.61922C14.6294 2.30614 14.5407 2.00758 14.4358 1.70902C14.3164 1.41047 14.2873 1.29104 14.2276 1.08286C14.1824 0.934387 14.1082 0.798831 14.0194 0.664884C13.9452 0.559986 13.8548 0.4567 13.737 0.38085C13.5288 0.201716 13.29 0.0822781 13.0366 0.0225668C12.7832 -0.0371446 12.5153 -0.0371446 12.2474 0.0225668C11.9941 0.0822781 11.7552 0.201702 11.547 0.366312C11.3388 0.530921 11.1888 0.75363 11.0855 0.992475C10.9967 1.17161 10.9515 1.36527 10.937 1.57506C10.937 1.81391 10.9822 2.03823 11.0564 2.26094V2.3497H11.1016L11.1161 2.36422L11.1178 2.36745Z" fill="#D9D9D9"/>
<path d="M20.6247 2.51727L34.8571 10.7704V30.1717L18.0168 39.8869L1.19262 30.1717V10.7397L10.9837 5.12842L10.5964 3.97938L0 10.0538V30.8737L17.9877 41.2764L35.9754 30.8737V10.0538L20.6715 1.20361C20.7603 1.63612 20.7457 2.09928 20.6263 2.53179V2.51727H20.6247Z" fill="#D9D9D9"/>
<path d="M24.3657 12.4569V12.8007L25.2904 13.7254C25.2904 13.7254 25.3356 13.8141 25.3501 13.8593V16.7997H25.8714V13.5608L24.3964 12.0825C24.3512 12.2019 24.3367 12.3214 24.3076 12.4553H24.3673L24.3657 12.4569Z" fill="#D9D9D9"/>
<path d="M15.6622 12.4568C15.7816 12.4568 15.8865 12.502 16.0044 12.531H16.1093C16.198 12.3067 16.2577 12.084 16.3481 11.8597L16.8403 10.2927L17.1534 9.44219C17.4358 8.62075 17.7199 7.80093 18.0023 6.97949H17.4213L15.6477 12.4116L15.6768 12.4568H15.6622Z" fill="#D9D9D9"/>
<path d="M17.7186 26.6199H14.1714L15.2139 27.4849H17.6427V26.6199H17.717H17.7186Z" fill="#D9D9D9"/>
<path d="M11.3405 25.3221H15.9012L14.6795 24.0989H13.503L12.7574 24.8445C12.7574 24.8445 12.6687 24.8896 12.6235 24.9042H9.43457C9.49428 25.0526 9.55399 25.1882 9.6137 25.3367H11.3421V25.3221H11.3405Z" fill="#D9D9D9"/>
<path d="M24.514 11.6659L25.095 12.2485L26.541 10.8009C26.3925 10.7412 26.2279 10.7267 26.0488 10.7122C25.7212 10.7122 25.4081 10.8009 25.1402 10.9655C24.8723 11.1301 24.648 11.369 24.4995 11.6514L24.514 11.6659Z" fill="#D9D9D9"/>
<path d="M9.28435 24.4861H12.533L13.2786 23.7405L16.1851 20.8308C16.1851 20.8308 16.2739 20.7856 16.319 20.7711H17.5407C17.4213 20.6662 17.3164 20.5629 17.1986 20.4725C16.8564 20.1885 16.4837 19.9496 16.0802 19.7705L12.7718 23.0982C12.7718 23.0982 12.6831 23.1434 12.6379 23.1579H9.04712C9.04712 23.2919 9.04712 23.4258 9.09231 23.5614C9.1375 23.8745 9.21174 24.1876 9.31502 24.4861H9.28596H9.28435Z" fill="#D9D9D9"/>
<path d="M22.0999 26.173C23.0989 26.173 24.0672 25.7695 24.7676 25.0691C25.468 24.3671 25.8698 23.3972 25.8698 22.3983V20.9797C25.468 20.949 25.0807 20.8312 24.7369 20.6214C24.4239 20.4423 24.1414 20.2035 23.9171 19.9194V21.5171C23.9171 22.6065 23.4846 23.6667 22.71 24.443C21.9353 25.2192 20.8912 25.6517 19.789 25.6517H9.8042C9.89296 25.8163 9.99785 25.9648 10.1028 26.1149H22.0999V26.1746V26.173Z" fill="#D9D9D9"/>
<path d="M27.7031 16.4866V12.352C27.7031 12.0841 27.6289 11.8146 27.495 11.5612C27.361 11.3224 27.1673 11.1142 26.943 10.9641L25.4083 12.5021L26.2136 13.3074C26.2136 13.3074 26.2587 13.3961 26.2733 13.4413V17.7841C26.2733 17.7841 26.4072 17.8293 26.4669 17.8584C26.5267 17.9035 26.5718 17.9471 26.6154 18.0068C26.6606 18.0665 26.6751 18.1262 26.6897 18.2005V18.4087C26.6897 18.4829 26.6445 18.5426 26.6154 18.6023C26.5702 18.662 26.5267 18.7072 26.4669 18.7508C26.4072 18.796 26.3475 18.8105 26.2733 18.825H26.0651C25.9312 18.825 25.7972 18.7653 25.7068 18.6766C25.6181 18.5878 25.5584 18.4522 25.5584 18.3183C25.5584 18.2134 25.5874 18.1101 25.6471 18.0197C25.7068 17.931 25.7956 17.8713 25.886 17.8261V17.1999H25.0807C25.0516 17.1999 25.0355 17.1709 25.0209 17.1547C25.0064 17.1402 24.9919 17.1095 24.9758 17.095V13.9158L24.3948 13.3929V18.5717C24.4545 18.9896 24.6627 19.3624 24.9903 19.6319C25.3179 19.8998 25.7213 20.0354 26.1377 20.0193C26.5702 20.0047 26.9866 19.8111 27.2851 19.4964C27.5837 19.1833 27.7467 18.7653 27.7467 18.3328V16.4382V16.4979L27.7015 16.4834L27.7031 16.4866Z" fill="#D9D9D9"/>
</g>
</g>
<path d="M57.3864 20.4774V24.0213H47.137V9.85683H51.1134V20.4903H57.3751L57.388 20.4774H57.3864ZM58.3498 18.5747V9.83101H62.3263V18.5989C62.3263 20.1175 63.2527 20.9083 64.7099 20.9083C66.1672 20.9083 67.0936 20.1175 67.0936 18.5989V9.83101H71.07V18.5747C71.07 22.4156 68.4637 24.3296 64.6986 24.3296C60.9336 24.3296 58.3256 22.4285 58.3256 18.5747H58.3498ZM72.2917 16.9205C72.2917 12.376 75.0207 9.51147 79.5523 9.51147C83.1334 9.51147 85.9866 11.5239 86.4934 15.105H82.4798C82.1102 13.6977 81.0096 12.9199 79.5523 12.9199C77.4656 12.9199 76.4279 14.4385 76.4279 16.9205C76.4279 19.4026 77.4656 20.9212 79.5523 20.9212C81.0838 20.9212 82.2329 20.0449 82.5411 18.452H86.5176C86.0609 22.2558 83.2205 24.3183 79.5523 24.3183C75.1692 24.3183 72.2917 21.4537 72.2917 16.9092V16.9221V16.9205ZM96.3232 15.6359L101.893 24.0213H97.1995L93.52 18.3278L91.9142 19.9577V24.0213H87.9378V9.85683H91.9142V15.4632L97.0882 9.85683H101.904L96.3345 15.6488L96.3216 15.6359H96.3232ZM115.76 9.83262L110.573 18.5392V23.9971H106.597V18.5392L101.324 9.83262H105.808L106.721 11.4255C107.376 12.5745 108.043 13.7349 108.672 14.8839C109.277 13.7106 109.933 12.5003 110.549 11.4013L111.425 9.83262H115.784H115.76ZM134.174 19.8222C134.174 22.3284 132.568 24.0084 128.839 24.0084H121.651V9.85683H128.701C132.381 9.85683 133.591 11.6482 133.591 13.4508C133.591 14.8468 132.875 15.8958 131.739 16.4154C133.257 16.9593 134.171 18.4278 134.171 19.8367V19.8238L134.174 19.8222ZM125.64 12.9441V15.3761H128.43C129.184 15.3761 129.641 14.8823 129.641 14.1657C129.641 13.4492 129.184 12.9554 128.43 12.9554H125.64V12.9425V12.9441ZM130.062 19.5882C130.062 18.7361 129.518 18.3036 128.629 18.3036H125.64V20.897H128.629C129.531 20.897 130.062 20.4645 130.062 19.6124V19.5882ZM145.745 20.4645V24.0084H135.496V9.85683H139.472V20.4903H145.734L145.747 20.4661L145.745 20.4645ZM146.337 16.9205C146.337 12.4131 149.363 9.51147 153.772 9.51147C158.181 9.51147 161.206 12.3889 161.206 16.9205C161.206 21.4521 158.168 24.3296 153.772 24.3296C149.376 24.3296 146.337 21.4521 146.337 16.9205ZM157.082 16.9205C157.082 14.4143 155.76 12.957 153.785 12.957C151.81 12.957 150.488 14.4143 150.488 16.9205C150.488 19.4268 151.81 20.8841 153.785 20.8841C155.76 20.8841 157.082 19.451 157.082 16.9205ZM162.033 16.9205C162.033 12.376 164.762 9.51147 169.294 9.51147C172.875 9.51147 175.728 11.5239 176.235 15.105H172.222C171.852 13.6977 170.751 12.9199 169.294 12.9199C167.207 12.9199 166.17 14.4385 166.17 16.9205C166.17 19.4026 167.207 20.9212 169.294 20.9212C170.826 20.9212 171.975 20.0449 172.283 18.452H176.259C175.803 22.2558 172.962 24.3183 169.294 24.3183C164.922 24.3183 162.033 21.4537 162.033 16.9092V16.9221V16.9205ZM186.065 15.6359L191.634 24.0213H186.941L183.262 18.3278L181.656 19.9577V24.0213H177.68V9.85683H181.656V15.4632L186.83 9.85683H191.646L186.076 15.6488L186.063 15.6359H186.065Z" fill="#D9D9D9"/>
<path d="M159.229 33.6804H158.301L158.144 34.5987H159.072C159.256 34.5987 159.398 34.5632 159.5 34.4938C159.601 34.4228 159.663 34.3082 159.688 34.15C159.695 34.1194 159.698 34.079 159.698 34.0306C159.698 33.7982 159.542 33.682 159.23 33.682L159.229 33.6804Z" fill="#D9D9D9"/>
<path d="M141.803 31.4387H140.994L140.802 32.541H141.611C141.806 32.541 141.961 32.4974 142.074 32.407C142.187 32.3183 142.263 32.1795 142.298 31.989C142.304 31.9584 142.308 31.918 142.308 31.8696C142.308 31.7357 142.264 31.6291 142.179 31.5533C142.093 31.4774 141.967 31.4387 141.803 31.4387Z" fill="#D9D9D9"/>
<path d="M107.119 31.5032C106.801 31.5032 106.522 31.5855 106.283 31.7517C106.045 31.9163 105.862 32.139 105.738 32.4182C105.612 32.6974 105.549 32.9976 105.549 33.322C105.549 33.6463 105.639 33.9223 105.82 34.1111C106.001 34.3015 106.266 34.3951 106.614 34.3951C106.932 34.3951 107.21 34.3112 107.445 34.1434C107.681 33.9755 107.86 33.7512 107.983 33.4736C108.105 33.1945 108.167 32.8943 108.167 32.5699C108.167 32.2455 108.076 31.9712 107.896 31.7856C107.715 31.5984 107.457 31.5064 107.119 31.5064V31.5032Z" fill="#D9D9D9"/>
<path d="M134.879 31.5032C134.561 31.5032 134.282 31.5855 134.043 31.7517C133.804 31.9163 133.622 32.139 133.498 32.4182C133.372 32.6974 133.309 32.9976 133.309 33.322C133.309 33.6463 133.399 33.9223 133.58 34.1111C133.761 34.3015 134.025 34.3951 134.374 34.3951C134.692 34.3951 134.969 34.3112 135.205 34.1434C135.441 33.9755 135.62 33.7512 135.743 33.4736C135.865 33.1945 135.926 32.8943 135.926 32.5699C135.926 32.2455 135.836 31.9712 135.655 31.7856C135.475 31.5984 135.216 31.5064 134.879 31.5064V31.5032Z" fill="#D9D9D9"/>
<path d="M128.398 31.3662H127.819L127.607 32.5604H128.187C128.603 32.5604 128.848 32.3619 128.921 31.9633C128.934 31.8891 128.939 31.8374 128.939 31.8068C128.939 31.5131 128.758 31.3662 128.396 31.3662H128.398Z" fill="#D9D9D9"/>
<path d="M113.549 34.5583C113.496 34.6406 113.47 34.718 113.47 34.7939C113.47 34.8907 113.514 34.973 113.602 35.0392C113.691 35.1054 113.817 35.1392 113.98 35.1392C114.122 35.1392 114.269 35.1166 114.424 35.0731L113.767 34.3372C113.673 34.4033 113.601 34.4776 113.547 34.5599L113.549 34.5583Z" fill="#D9D9D9"/>
<path d="M159.858 31.4307C159.781 31.3758 159.663 31.3484 159.505 31.3484H158.715L158.551 32.2667H159.34C159.524 32.2667 159.668 32.2295 159.771 32.1569C159.874 32.0827 159.939 31.9697 159.963 31.818C159.969 31.7874 159.973 31.747 159.973 31.6986C159.973 31.5759 159.934 31.4872 159.858 31.4323V31.4307Z" fill="#D9D9D9"/>
<path d="M166.095 31.5032C165.777 31.5032 165.498 31.5855 165.259 31.7517C165.02 31.9163 164.838 32.139 164.714 32.4182C164.588 32.6974 164.525 32.9976 164.525 33.322C164.525 33.6463 164.615 33.9223 164.796 34.1111C164.977 34.3015 165.241 34.3951 165.59 34.3951C165.908 34.3951 166.186 34.3112 166.421 34.1434C166.657 33.9755 166.836 33.7512 166.959 33.4736C167.081 33.1945 167.143 32.8943 167.143 32.5699C167.143 32.2455 167.052 31.9712 166.871 31.7856C166.691 31.5984 166.432 31.5064 166.095 31.5064V31.5032Z" fill="#D9D9D9"/>
<path d="M173.33 31.5032C173.012 31.5032 172.733 31.5855 172.494 31.7517C172.255 31.9163 172.073 32.139 171.949 32.4182C171.823 32.6974 171.76 32.9976 171.76 33.322C171.76 33.6463 171.85 33.9223 172.031 34.1111C172.212 34.3015 172.476 34.3951 172.825 34.3951C173.143 34.3951 173.42 34.3112 173.656 34.1434C173.892 33.9755 174.071 33.7512 174.193 33.4736C174.316 33.1945 174.377 32.8943 174.377 32.5699C174.377 32.2455 174.287 31.9712 174.106 31.7856C173.925 31.5984 173.667 31.5064 173.33 31.5064V31.5032Z" fill="#D9D9D9"/>
<path d="M144.145 27.5059H70.4031C66.9205 27.5059 64.0979 29.4021 64.0979 31.7405V38.0909H185.106C188.589 38.0909 191.411 36.1947 191.411 33.8562V27.5059H144.144H144.145ZM77.688 35.9607C77.207 36.1721 76.6858 36.277 76.1225 36.277C75.5593 36.277 75.0671 36.1721 74.662 35.9607C74.2586 35.7493 73.9519 35.4491 73.7438 35.0601C73.5356 34.6712 73.4307 34.2194 73.4307 33.7062C73.4307 33.456 73.4516 33.2107 73.4952 32.9719C73.605 32.3296 73.8357 31.7567 74.1843 31.2548C74.5329 30.7529 74.9735 30.3623 75.5061 30.0847C76.0386 29.8056 76.6325 29.6668 77.2877 29.6668C77.8509 29.6668 78.3351 29.7717 78.7434 29.9831C79.1501 30.1945 79.4615 30.493 79.6762 30.8788C79.8908 31.2645 79.9941 31.7147 79.9877 32.2279H77.8397C77.7783 32.0133 77.6686 31.847 77.5088 31.7276C77.349 31.6082 77.1538 31.5485 76.9214 31.5485C76.5776 31.5485 76.2839 31.6776 76.0402 31.9342C75.7949 32.1908 75.6368 32.5378 75.5625 32.9719C75.5383 33.0945 75.5254 33.2252 75.5254 33.3672C75.5254 33.6852 75.6029 33.9369 75.7594 34.1209C75.916 34.3049 76.1371 34.3969 76.4259 34.3969C76.6583 34.3969 76.8762 34.3372 77.0779 34.2177C77.2797 34.0983 77.4475 33.9321 77.5831 33.7175H79.7311C79.5471 34.2323 79.2808 34.6809 78.9322 35.0666C78.5836 35.4523 78.1689 35.7509 77.688 35.9623V35.9607ZM84.5048 36.2318L84.3579 35.249H82.1905L81.6951 36.2318H79.5552L83.0814 29.7313H85.4311L86.6528 36.2318H84.5048ZM92.8692 31.7244H90.6744C90.6873 31.6502 90.6922 31.6017 90.6922 31.5775C90.6922 31.4613 90.6583 31.371 90.5921 31.3064C90.5243 31.2419 90.4324 31.2096 90.3162 31.2096C90.2113 31.2096 90.1257 31.2402 90.0596 31.3016C89.9918 31.3629 89.9579 31.442 89.9579 31.5404C89.9579 31.6744 90.0289 31.7922 90.1693 31.8938C90.3097 31.9955 90.534 32.1182 90.839 32.265C91.1876 32.4296 91.4765 32.5862 91.7073 32.733C91.9365 32.8799 92.1349 33.0735 92.2995 33.3156C92.4642 33.5577 92.5481 33.853 92.5481 34.2016C92.5481 34.6002 92.4432 34.9585 92.2318 35.2764C92.0204 35.5943 91.7154 35.8445 91.3183 36.0252C90.9197 36.206 90.4485 36.2963 89.9046 36.2963C89.109 36.2963 88.4732 36.1366 87.9987 35.8187C87.5242 35.5007 87.287 35.0359 87.287 34.4227C87.287 34.3614 87.2935 34.2694 87.3048 34.1467H89.4721C89.4544 34.3372 89.4834 34.4776 89.5593 34.5696C89.6351 34.6615 89.7626 34.7067 89.9401 34.7067C90.0499 34.7067 90.1419 34.6793 90.2161 34.6244C90.2903 34.5696 90.3258 34.4905 90.3258 34.3856C90.3258 34.2387 90.2532 34.1161 90.1096 34.0192C89.966 33.9208 89.7352 33.8046 89.4156 33.6706C89.0671 33.5238 88.7798 33.3834 88.5571 33.2478C88.3344 33.1139 88.1391 32.9299 87.9745 32.6975C87.8099 32.4651 87.726 32.1746 87.726 31.8261C87.726 31.3677 87.8405 30.9707 88.0697 30.6367C88.2989 30.3026 88.6184 30.0508 89.0299 29.8798C89.4398 29.7087 89.9079 29.6232 90.434 29.6232C90.9052 29.6232 91.3264 29.6974 91.696 29.8443C92.0655 29.9911 92.3577 30.2042 92.5674 30.4817C92.7789 30.7609 92.8838 31.0901 92.8838 31.4694C92.8838 31.5178 92.8773 31.6034 92.866 31.726L92.8692 31.7244ZM93.0064 36.2318L94.1538 29.7313H96.1921L95.0447 36.2318H93.0064ZM102.197 36.2318H100.159L98.579 32.9638L98.0012 36.2318H95.963L97.1104 29.7313H99.1486L100.719 33.0558L101.306 29.7313H103.345L102.197 36.2318ZM109.676 34.3775C109.354 34.9827 108.901 35.4555 108.317 35.7912C107.733 36.1285 107.06 36.2963 106.301 36.2963C105.751 36.2963 105.267 36.1834 104.85 35.9574C104.434 35.7315 104.113 35.412 103.887 34.9988C103.661 34.5857 103.548 34.1128 103.548 33.5803C103.548 32.8024 103.709 32.1165 104.03 31.5194C104.352 30.9223 104.802 30.4575 105.38 30.1235C105.959 29.7894 106.624 29.6232 107.376 29.6232C107.939 29.6232 108.43 29.7345 108.849 29.9589C109.269 30.1832 109.592 30.4979 109.818 30.9046C110.044 31.3112 110.158 31.7809 110.158 32.3134C110.158 33.0848 109.997 33.7739 109.676 34.3791V34.3775ZM117.077 36.2318H115.458L115.185 35.9268C114.725 36.1753 114.215 36.298 113.654 36.298C113.308 36.298 113.008 36.2479 112.752 36.1495C112.495 36.0494 112.298 35.9106 112.161 35.7283C112.024 35.5475 111.956 35.3345 111.956 35.0924C111.956 34.7648 112.061 34.4711 112.271 34.2113C112.48 33.9499 112.763 33.7368 113.116 33.5674C112.989 33.364 112.924 33.1623 112.924 32.9638C112.924 32.6765 113.003 32.4232 113.163 32.2053C113.323 31.9858 113.539 31.818 113.817 31.6986C114.093 31.5791 114.404 31.5194 114.748 31.5194C115.203 31.5194 115.552 31.6163 115.795 31.8115C116.039 32.0068 116.16 32.2537 116.16 32.5539C116.16 32.6152 116.154 32.6846 116.141 32.7589H114.801C114.806 32.7459 114.808 32.725 114.808 32.6991C114.808 32.6378 114.785 32.5894 114.741 32.5571C114.698 32.5232 114.646 32.5071 114.59 32.5071C114.511 32.5071 114.441 32.5313 114.385 32.5797C114.327 32.6281 114.299 32.6991 114.299 32.7911C114.299 32.9331 114.367 33.08 114.504 33.2349L115.393 34.2694C115.482 34.1371 115.561 34.0015 115.632 33.8643L115.66 33.8046H117.085L116.991 33.9773C116.726 34.4453 116.447 34.8391 116.155 35.157L117.077 36.2318ZM124.779 31.7244H122.585C122.598 31.6502 122.602 31.6017 122.602 31.5775C122.602 31.4613 122.569 31.371 122.501 31.3064C122.433 31.2419 122.341 31.2096 122.225 31.2096C122.12 31.2096 122.034 31.2402 121.968 31.3016C121.9 31.3629 121.867 31.442 121.867 31.5404C121.867 31.6744 121.938 31.7922 122.078 31.8938C122.218 31.9955 122.443 32.1182 122.748 32.265C123.096 32.4296 123.385 32.5862 123.616 32.733C123.845 32.8799 124.044 33.0735 124.208 33.3156C124.373 33.5577 124.457 33.853 124.457 34.2016C124.457 34.6002 124.352 34.9585 124.14 35.2764C123.929 35.5943 123.624 35.8445 123.227 36.0252C122.828 36.206 122.357 36.2963 121.813 36.2963C121.018 36.2963 120.382 36.1366 119.907 35.8187C119.433 35.5007 119.196 35.0359 119.196 34.4227C119.196 34.3614 119.202 34.2694 119.213 34.1467H121.381C121.363 34.3372 121.392 34.4776 121.468 34.5696C121.544 34.6615 121.671 34.7067 121.849 34.7067C121.958 34.7067 122.05 34.6793 122.125 34.6244C122.199 34.5696 122.234 34.4905 122.234 34.3856C122.234 34.2387 122.162 34.1161 122.018 34.0192C121.875 33.9208 121.644 33.8046 121.324 33.6706C120.976 33.5238 120.688 33.3834 120.466 33.2478C120.243 33.1139 120.048 32.9299 119.883 32.6975C119.718 32.4651 119.635 32.1746 119.635 31.8261C119.635 31.3677 119.749 30.9707 119.978 30.6367C120.207 30.3026 120.527 30.0508 120.939 29.8798C121.348 29.7087 121.816 29.6232 122.343 29.6232C122.814 29.6232 123.235 29.6974 123.605 29.8443C123.974 29.9911 124.266 30.2042 124.476 30.4817C124.687 30.7609 124.792 31.0901 124.792 31.4694C124.792 31.5178 124.786 31.6034 124.775 31.726L124.779 31.7244ZM130.986 31.9632C130.912 32.3731 130.754 32.7459 130.509 33.0784C130.263 33.4125 129.937 33.6771 129.531 33.8724C129.124 34.0676 128.657 34.1661 128.131 34.1661H127.323L126.957 36.2318H124.918L126.066 29.7313H128.912C129.605 29.7313 130.131 29.8879 130.492 30.1993C130.854 30.5108 131.035 30.9401 131.035 31.4839C131.035 31.6179 131.019 31.7776 130.988 31.9616L130.986 31.9632ZM137.437 34.3775C137.116 34.9827 136.662 35.4555 136.078 35.7912C135.494 36.1285 134.821 36.2963 134.062 36.2963C133.512 36.2963 133.028 36.1834 132.611 35.9574C132.195 35.7315 131.874 35.412 131.648 34.9988C131.422 34.5857 131.307 34.1128 131.307 33.5803C131.307 32.8024 131.469 32.1165 131.79 31.5194C132.111 30.9223 132.561 30.4575 133.139 30.1235C133.718 29.7894 134.383 29.6232 135.135 29.6232C135.699 29.6232 136.189 29.7345 136.609 29.9589C137.028 30.1832 137.351 30.4979 137.577 30.9046C137.803 31.3112 137.916 31.7809 137.916 32.3134C137.916 33.0848 137.755 33.7739 137.433 34.3791L137.437 34.3775ZM144.381 31.8616C144.302 32.3021 144.112 32.6894 143.811 33.0235C143.511 33.3576 143.122 33.598 142.645 33.7449L143.618 36.2334H141.378L140.561 33.9014L140.148 36.2334H138.11L139.257 29.7329H142.286C142.983 29.7329 143.513 29.8895 143.874 30.2009C144.236 30.5124 144.417 30.9288 144.417 31.45C144.417 31.6033 144.404 31.7405 144.379 31.8632L144.381 31.8616ZM147.641 36.2318H145.603L146.466 31.3468H144.759L145.043 29.7313H150.515L150.231 31.3468H148.504L147.641 36.2318ZM155.675 31.7244H153.48C153.493 31.6502 153.498 31.6017 153.498 31.5775C153.498 31.4613 153.464 31.371 153.397 31.3064C153.33 31.2419 153.238 31.2096 153.122 31.2096C153.017 31.2096 152.931 31.2402 152.865 31.3016C152.797 31.3629 152.765 31.442 152.765 31.5404C152.765 31.6744 152.836 31.7922 152.976 31.8938C153.117 31.9955 153.341 32.1182 153.646 32.265C153.995 32.4296 154.283 32.5862 154.514 32.733C154.743 32.8799 154.942 33.0735 155.107 33.3156C155.271 33.5577 155.355 33.853 155.355 34.2016C155.355 34.6002 155.25 34.9585 155.039 35.2764C154.827 35.5943 154.522 35.8445 154.125 36.0252C153.727 36.206 153.255 36.2963 152.712 36.2963C151.916 36.2963 151.28 36.1366 150.806 35.8187C150.331 35.5007 150.094 35.0359 150.094 34.4227C150.094 34.3614 150.1 34.2694 150.112 34.1467H152.279C152.261 34.3372 152.29 34.4776 152.366 34.5696C152.442 34.6615 152.57 34.7067 152.747 34.7067C152.857 34.7067 152.949 34.6793 153.023 34.6244C153.097 34.5696 153.133 34.4905 153.133 34.3856C153.133 34.2387 153.06 34.1161 152.917 34.0192C152.773 33.9208 152.542 33.8046 152.224 33.6706C151.876 33.5238 151.588 33.3834 151.366 33.2478C151.143 33.1139 150.948 32.9299 150.783 32.6975C150.618 32.4651 150.535 32.1746 150.535 31.8261C150.535 31.3677 150.649 30.9707 150.878 30.6367C151.107 30.3026 151.427 30.0508 151.839 29.8798C152.248 29.7087 152.716 29.6232 153.243 29.6232C153.714 29.6232 154.135 29.6974 154.505 29.8443C154.874 29.9911 155.166 30.2042 155.376 30.4817C155.587 30.7609 155.692 31.0901 155.692 31.4694C155.692 31.5178 155.686 31.6034 155.675 31.726V31.7244ZM162.111 31.421C162.043 31.8002 161.888 32.1198 161.643 32.3796C161.397 32.6394 161.103 32.8121 160.761 32.8976C161.079 32.9767 161.323 33.1284 161.491 33.3527C161.659 33.5754 161.743 33.8385 161.743 34.137C161.743 34.2355 161.733 34.3388 161.715 34.4485C161.617 35.0182 161.352 35.4572 160.921 35.7654C160.49 36.0753 159.922 36.2286 159.219 36.2286H155.812L156.959 29.7281H160.274C160.861 29.7281 161.32 29.8427 161.647 30.0718C161.975 30.301 162.138 30.6367 162.138 31.0772C162.138 31.1821 162.128 31.2951 162.111 31.4161V31.421ZM168.653 34.3775C168.332 34.9827 167.878 35.4555 167.294 35.7912C166.71 36.1285 166.037 36.2963 165.278 36.2963C164.728 36.2963 164.244 36.1834 163.828 35.9574C163.411 35.7315 163.09 35.412 162.864 34.9988C162.638 34.5857 162.524 34.1128 162.524 33.5803C162.524 32.8024 162.685 32.1165 163.006 31.5194C163.327 30.9223 163.778 30.4575 164.355 30.1235C164.935 29.7894 165.6 29.6232 166.352 29.6232C166.915 29.6232 167.405 29.7345 167.825 29.9589C168.245 30.1832 168.567 30.4979 168.793 30.9046C169.019 31.3112 169.132 31.7809 169.132 32.3134C169.132 33.0848 168.971 33.7739 168.65 34.3791L168.653 34.3775ZM175.888 34.3775C175.567 34.9827 175.113 35.4555 174.529 35.7912C173.945 36.1285 173.272 36.2963 172.513 36.2963C171.963 36.2963 171.479 36.1834 171.062 35.9574C170.646 35.7315 170.325 35.412 170.099 34.9988C169.873 34.5857 169.758 34.1128 169.758 33.5803C169.758 32.8024 169.92 32.1165 170.241 31.5194C170.562 30.9223 171.012 30.4575 171.59 30.1235C172.17 29.7894 172.834 29.6232 173.586 29.6232C174.15 29.6232 174.64 29.7345 175.06 29.9589C175.479 30.1832 175.802 30.4979 176.028 30.9046C176.254 31.3112 176.367 31.7809 176.367 32.3134C176.367 33.0848 176.206 33.7739 175.885 34.3791L175.888 34.3775ZM182.916 36.2318H180.492L179.096 33.4044L178.601 36.2318H176.562L177.71 29.7313H179.748L179.261 32.4667L181.61 29.7313H183.915L181.115 32.8444L182.914 36.2318H182.916Z" fill="#D9D9D9"/>
<path d="M82.9641 33.7157H84.139L83.8727 31.9082L82.9641 33.7157Z" fill="#D9D9D9"/>
</svg>
