<svg width="21" height="22" viewBox="0 0 21 22" fill="none" xmlns="http://www.w3.org/2000/svg">
<path d="M20.9984 21.252H16.6336V13.2822C16.5182 11.7096 15.7949 10.5556 14.0964 10.6549C12.5666 10.7441 11.8098 11.8805 11.7018 13.34V21.252H7.5083V7.0672H11.6597L11.7018 7.10994V8.87612C12.5058 7.72087 13.6932 6.90629 15.0927 6.69762C18.6286 6.17216 21.0368 8.62219 20.9996 12.1332V21.252H20.9984Z" fill="#D9D9D9"/>
<path d="M4.75908 7.0672H0.422852V21.252H4.75908V7.0672Z" fill="#D9D9D9"/>
<path d="M2.28751 0.0124832C4.41158 -0.188648 5.85947 2.08037 4.79248 3.95717C3.79868 5.7045 1.28627 5.67182 0.323492 3.9094C-0.561123 2.2903 0.458728 0.184702 2.28751 0.0124832Z" fill="#D9D9D9"/>
</svg>
