<svg width="36" height="39" viewBox="0 0 36 39" fill="none" xmlns="http://www.w3.org/2000/svg">
<g clip-path="url(#clip0_86_1239)">
<path d="M35.9203 27.1431C36.0273 28.0159 36.0273 30.0152 35.9203 30.888C35.587 33.624 33.9452 37.3968 31.6981 39C32.6031 32.9493 26.9684 29.4581 22.4466 27.1864C13.5651 22.7296 -0.544444 19.972 0.0150467 8.25744C0.131225 5.8093 0.916957 3.44473 2.17963 1.36799L3.01428 0C4.09963 5.52147 8.93938 7.59821 13.3786 9.72447C21.3796 13.5592 34.6117 16.3756 35.9203 27.1431Z" fill="#D9D9D9"/>
<path d="M27.2255 0H36V8.90429L27.2255 0Z" fill="#D9D9D9"/>
<path d="M8.77452 39H0V30.0926L8.77452 39Z" fill="#D9D9D9"/>
</g>
<defs>
<clipPath id="clip0_86_1239">
<rect width="36" height="39" fill="white"/>
</clipPath>
</defs>
</svg>
