<svg width="122" height="66" viewBox="0 0 122 66" fill="none" xmlns="http://www.w3.org/2000/svg">
<path fill-rule="evenodd" clip-rule="evenodd" d="M71.7821 4.91693L65.5853 1.33972C62.4899 -0.446572 58.6447 -0.446572 55.5493 1.33972L49.3525 4.91693C46.2556 6.70322 44.333 10.0338 44.333 13.6079V20.7624C44.333 24.3349 46.2556 27.6671 49.3525 29.4533L55.5493 33.0305C57.097 33.9245 58.8314 34.3714 60.5688 34.3714C62.3063 34.3714 64.0407 33.9245 65.5883 33.0305L71.7852 29.4533C74.8805 27.6671 76.8047 24.3365 76.8047 20.7624V13.6079C76.8047 10.0353 74.8821 6.70322 71.7852 4.91693H71.7821ZM72.9193 20.7624C72.9193 22.954 71.7404 24.9961 69.841 26.0919L63.6441 29.6691C61.7462 30.7649 59.3869 30.7649 57.4889 29.6691L51.2921 26.0919C49.3942 24.9961 48.2137 22.954 48.2137 20.7624V13.6079C48.2137 11.4163 49.3926 9.37418 51.2921 8.27837L57.4889 4.70115C58.4395 4.15248 59.5026 3.87967 60.5673 3.87967C61.632 3.87967 62.6951 4.15402 63.6457 4.70115L69.8425 8.27837C71.7404 9.37418 72.9209 11.4163 72.9209 13.6079V20.7624H72.9193ZM68.6821 11.6043C68.5247 11.4548 68.3488 11.3192 68.156 11.2067L61.953 7.62485C61.0966 7.13011 60.0427 7.13011 59.1863 7.62485L55.574 9.71014L52.9817 11.2052C52.7873 11.3161 52.6129 11.4517 52.4556 11.6028L60.5688 16.2882L68.6837 11.6028L68.6821 11.6043ZM51.5976 13.6033V20.7654C51.5976 21.7533 52.1238 22.6673 52.9802 23.162L59.1847 26.7439C59.3792 26.8548 59.5813 26.9412 59.7912 27.0013V17.6336L51.6763 12.9498C51.6239 13.1625 51.5961 13.3814 51.5961 13.6048L51.5976 13.6033ZM61.3435 26.9997V17.6321L69.4583 12.9483C69.5107 13.161 69.5385 13.3798 69.5385 13.6033V20.7654C69.5385 21.7533 69.0108 22.6673 68.156 23.162L63.0717 26.0981L61.9545 26.7439C61.7601 26.8548 61.5564 26.9412 61.3481 27.0013L61.3435 26.9997ZM0 43.7313H4.29273L8.82772 54.7943H9.0206L13.5556 43.7313H17.8483V60.1979H14.4721V49.4801H14.3348L10.0745 60.1177H7.77536L3.51504 49.44H3.37771V60.1979H0.00154337V43.7313H0ZM26.281 60.4383C25.0111 60.4383 23.9171 60.1809 23.0005 59.6661C22.0886 59.1467 21.3865 58.4116 20.8943 57.4637C20.4005 56.5097 20.1552 55.3815 20.1552 54.0792C20.1552 52.7768 20.402 51.6934 20.8943 50.7347C21.388 49.7761 22.0809 49.027 22.9758 48.4922C23.877 47.9559 24.9324 47.6877 26.1437 47.6877C26.9584 47.6877 27.716 47.8187 28.4197 48.0822C29.1279 48.3396 29.7436 48.728 30.2682 49.2474C30.799 49.7668 31.211 50.4218 31.5057 51.2094C31.8005 51.9923 31.9486 52.9094 31.9486 53.959V54.8991H23.539V54.9068C23.539 55.5171 23.6517 56.0458 23.877 56.4912C24.1069 56.9366 24.4309 57.2788 24.8491 57.5208C25.2672 57.7627 25.7625 57.8829 26.3366 57.8829C26.7177 57.8829 27.0649 57.829 27.3812 57.7226C27.6975 57.6147 27.9675 57.4545 28.1928 57.2402C28.4181 57.026 28.5894 56.7624 28.7067 56.4527L31.8745 56.6623C31.714 57.4236 31.3838 58.0879 30.8854 58.6566C30.3917 59.2192 29.7544 59.6584 28.9721 59.9744C28.1944 60.2857 27.2979 60.4414 26.2795 60.4414L26.281 60.4383ZM23.8847 51.5623C23.6764 51.9276 23.5622 52.333 23.5421 52.7768H28.7252C28.7252 52.2836 28.6187 51.8475 28.4042 51.4668C28.1898 51.0861 27.8919 50.7886 27.5124 50.5744C27.1374 50.354 26.7007 50.2446 26.2023 50.2446C25.7039 50.2446 25.2209 50.3648 24.8198 50.6068C24.4232 50.8426 24.1115 51.1616 23.8878 51.5639L23.8847 51.5623ZM36.8925 64.6274C37.6856 64.9325 38.6377 65.0851 39.7471 65.0851C40.926 65.0851 41.9691 64.9063 42.8748 64.5472C43.7852 64.1927 44.4981 63.6625 45.0135 62.9551C45.5289 62.2477 45.785 61.3692 45.785 60.3181V47.848H42.3841V49.9225H42.2561C42.1002 49.5896 41.878 49.252 41.5895 48.9099C41.3056 48.5616 40.9306 48.2718 40.4631 48.0422C39.9971 47.8064 39.4184 47.6892 38.7256 47.6892C37.8198 47.6892 36.9866 47.922 36.2259 48.389C35.4698 48.8559 34.8649 49.5572 34.4082 50.4958C33.953 51.4344 33.7246 52.6027 33.7246 54.0021C33.7246 55.4015 33.9468 56.5004 34.3928 57.3944C34.8433 58.2837 35.4467 58.9464 36.2012 59.381C36.9619 59.8095 37.806 60.0237 38.7333 60.0237C39.3876 60.0237 39.9508 59.9266 40.4214 59.7339C40.8936 59.5413 41.2793 59.2916 41.5787 58.9864C41.878 58.6813 42.1033 58.3561 42.2545 58.0139H42.3996V60.2734C42.3996 61.1195 42.1558 61.7237 41.6682 62.0828C41.1852 62.4465 40.5726 62.6299 39.8273 62.6299C39.3289 62.6299 38.9061 62.5636 38.5574 62.4296C38.2149 62.3016 37.9387 62.129 37.7288 61.9148C37.5205 61.7005 37.3677 61.4694 37.2705 61.2228L34.1027 61.6497C34.2415 62.2985 34.5455 62.8827 35.0115 63.4021C35.4775 63.9215 36.1055 64.3314 36.8925 64.632V64.6274ZM41.2176 57.0383C40.8365 57.3111 40.3705 57.4483 39.8181 57.4483C39.2657 57.4483 38.7812 57.3096 38.3954 57.0306C38.0143 56.747 37.7226 56.3478 37.519 55.8331C37.3199 55.3137 37.2211 54.6972 37.2211 53.9836C37.2211 53.27 37.3199 52.6628 37.519 52.1264C37.7165 51.5901 38.0096 51.1724 38.3954 50.8719C38.7812 50.5667 39.2564 50.4141 39.8181 50.4141C40.3797 50.4141 40.8396 50.5621 41.2253 50.8564C41.6111 51.1508 41.9058 51.5669 42.1095 52.1018C42.3132 52.6319 42.415 53.2592 42.415 53.9836C42.415 54.708 42.3101 55.3291 42.1018 55.8485C41.8981 56.3633 41.6034 56.7594 41.2176 57.0383ZM52.0312 60.4306C51.2427 60.4306 50.5406 60.2934 49.925 60.0206C49.3093 59.7417 48.8217 59.3317 48.4622 58.7907C48.1088 58.2436 47.9314 57.5639 47.9314 56.7486C47.9314 56.0627 48.0579 55.4863 48.3094 55.0193C48.5609 54.5523 48.905 54.1778 49.3386 53.8942C49.7722 53.6106 50.266 53.3964 50.8184 53.25C51.3754 53.1051 51.9602 53.0034 52.5713 52.9448C53.2903 52.8693 53.869 52.8 54.3087 52.7352C54.7485 52.6659 55.0664 52.5641 55.2654 52.4301C55.4629 52.296 55.5632 52.0971 55.5632 51.8351V51.7873C55.5632 51.2772 55.4028 50.8842 55.0803 50.6052C54.7639 50.3263 54.3134 50.1876 53.7301 50.1876C53.1144 50.1876 52.6237 50.3247 52.2596 50.5975C51.8954 50.8657 51.6532 51.2032 51.5359 51.6101L48.368 51.3527C48.5285 50.6022 48.8448 49.9533 49.317 49.4061C49.7892 48.8544 50.3971 48.4305 51.1424 48.1362C51.8923 47.8356 52.7611 47.6861 53.7471 47.6861C54.4337 47.6861 55.0895 47.7663 55.7175 47.9281C56.3502 48.0884 56.9103 48.3381 57.3979 48.6756C57.8901 49.0131 58.279 49.4478 58.5629 49.9779C58.8468 50.5035 58.9888 51.1323 58.9888 51.8675V60.1979H55.7407V58.4855H55.6435C55.446 58.8724 55.1806 59.2115 54.8473 59.5074C54.5155 59.7971 54.1159 60.0252 53.6499 60.1901C53.1839 60.3504 52.6453 60.4321 52.0343 60.4321L52.0312 60.4306ZM53.0126 58.0663C53.5156 58.0663 53.9616 57.9677 54.3473 57.7689C54.7331 57.5654 55.0355 57.2911 55.2562 56.9489C55.4753 56.6052 55.5864 56.2169 55.5864 55.7838V54.4737C55.4784 54.5431 55.3318 54.6078 55.1435 54.6664C54.9614 54.7203 54.7547 54.7712 54.5248 54.819C54.2949 54.8621 54.0634 54.9022 53.8335 54.9392C53.6036 54.9716 53.3937 55.0008 53.207 55.027C52.8043 55.0856 52.454 55.1796 52.1531 55.3075C51.8522 55.437 51.6192 55.6096 51.4541 55.83C51.2875 56.0442 51.2041 56.3124 51.2041 56.6345C51.2041 57.1 51.3723 57.4576 51.7103 57.7042C52.0528 57.9461 52.488 58.0663 53.0126 58.0663ZM61.7076 43.7313V60.1979H68.7423C69.9752 60.1979 71.0121 59.999 71.8531 59.6029C72.694 59.2068 73.3298 58.6674 73.7587 57.9862C74.1923 57.3003 74.4099 56.5205 74.4099 55.6466C74.4099 54.8374 74.2386 54.1408 73.8945 53.5567C73.552 52.9664 73.1045 52.5086 72.5521 52.1819C72.0058 51.8552 71.4179 51.6779 70.7915 51.6517V51.4914C71.3655 51.3635 71.8747 51.1462 72.3191 50.8395C72.7696 50.5282 73.123 50.1321 73.3807 49.6497C73.6384 49.1626 73.7664 48.597 73.7664 47.9528C73.7664 47.1267 73.5628 46.3977 73.1554 45.7658C72.748 45.1277 72.1401 44.6299 71.33 44.2707C70.5199 43.9116 69.5107 43.7313 68.2995 43.7313H61.7076ZM68.0263 57.3512H65.1887V52.9772H68.1066C68.6636 52.9772 69.1435 53.0758 69.5462 53.2747C69.9536 53.4735 70.2668 53.7462 70.4875 54.0946C70.7066 54.4429 70.8177 54.8452 70.8177 55.2998C70.8177 55.9209 70.5955 56.4203 70.1496 56.7948C69.7052 57.1647 68.9969 57.3497 68.0279 57.3497L68.0263 57.3512ZM67.7687 50.6222H65.1887V46.5456H67.8335C68.605 46.5456 69.2006 46.7275 69.6188 47.0928C70.0416 47.4565 70.2545 47.9374 70.2545 48.5323C70.2545 48.9669 70.1449 49.3383 69.9243 49.6497C69.7098 49.961 69.4151 50.2014 69.0401 50.374C68.6698 50.5405 68.247 50.6237 67.7702 50.6237L67.7687 50.6222ZM80.0358 43.7313V60.1979H76.6118V43.7313H80.0358ZM85.1186 59.643C86.029 60.1732 87.1091 60.4398 88.3589 60.4398C89.6088 60.4398 90.6858 60.1747 91.5916 59.643C92.502 59.1066 93.2041 58.3622 93.6979 57.4082C94.1916 56.4496 94.437 55.3368 94.437 54.0715C94.437 52.8061 94.1901 51.681 93.6979 50.727C93.2041 49.7683 92.502 49.0224 91.5916 48.4922C90.6858 47.9559 89.6088 47.6877 88.3589 47.6877C87.1091 47.6877 86.0305 47.9559 85.1186 48.4922C84.2128 49.0224 83.5138 49.7683 83.02 50.727C82.5263 51.681 82.2809 52.7969 82.2809 54.0715C82.2809 55.3461 82.5278 56.448 83.02 57.4082C83.5138 58.3622 84.2128 59.1066 85.1186 59.643ZM89.797 57.3034C89.4159 57.6255 88.9422 57.7858 88.3744 57.7858C87.8065 57.7858 87.3189 57.6255 86.927 57.3034C86.5412 56.9767 86.2496 56.5313 86.0506 55.9687C85.8577 55.4062 85.7605 54.765 85.7605 54.0468C85.7605 53.3286 85.8561 52.6874 86.0506 52.1249C86.2481 51.5623 86.5412 51.1169 86.927 50.7902C87.3189 50.4634 87.8004 50.3001 88.3744 50.3001C88.9484 50.3001 89.4175 50.4634 89.797 50.7902C90.1782 51.1169 90.4652 51.5623 90.6581 52.1249C90.8571 52.6874 90.9559 53.3286 90.9559 54.0468C90.9559 54.765 90.8571 55.4062 90.6581 55.9687C90.4652 56.5313 90.1782 56.9767 89.797 57.3034ZM102.243 60.4383C100.978 60.4383 99.8901 60.1701 98.9797 59.6338C98.0739 59.0928 97.3765 58.3422 96.8889 57.382C96.4059 56.4234 96.1652 55.3183 96.1652 54.0699C96.1652 52.8215 96.409 51.6949 96.8966 50.7408C97.3903 49.7822 98.0893 49.0332 98.9951 48.4984C99.9009 47.9574 100.978 47.6861 102.228 47.6861C103.305 47.6861 104.249 47.8819 105.058 48.2734C105.868 48.6648 106.508 49.2135 106.979 49.9209C107.451 50.6284 107.71 51.4591 107.758 52.4131H104.525C104.434 51.7966 104.194 51.3003 103.802 50.9258C103.416 50.5451 102.91 50.3555 102.282 50.3555C101.751 50.3555 101.288 50.5004 100.891 50.7902C100.5 51.0738 100.194 51.4899 99.9749 52.037C99.7558 52.5842 99.6447 53.2453 99.6447 54.0221C99.6447 54.7989 99.7527 55.4801 99.9672 56.0319C100.186 56.5837 100.495 57.0044 100.891 57.2942C101.288 57.5839 101.753 57.7288 102.282 57.7288C102.674 57.7288 103.024 57.6486 103.336 57.4868C103.652 57.3265 103.911 57.0923 104.115 56.7871C104.323 56.4758 104.461 56.1044 104.525 55.6697H107.758C107.704 56.613 107.446 57.4437 106.986 58.1619C106.531 58.8755 105.902 59.4318 105.098 59.8341C104.294 60.2364 103.342 60.4368 102.243 60.4368V60.4383ZM113.376 56.277V60.1979H109.951V43.7313H113.376V52.5349H113.561L117.516 47.848H121.448L116.868 53.1976L121.681 60.1979H117.669L114.304 55.2166L113.375 56.277H113.376Z" fill="#D9D9D9"/>
</svg>
