<svg width="141" height="44" viewBox="0 0 141 44" fill="none" xmlns="http://www.w3.org/2000/svg">
<path d="M48.9761 21.2551L44.8972 15.3596H42.5637V27.8292H45.0045V19.6154L48.9761 25.1225L52.9492 19.6154V27.8292H55.39V15.3596H53.0566L48.9761 21.2551Z" fill="#D9D9D9"/>
<path d="M65.9901 20.4177H57.7068V22.5562H65.9901V20.4177Z" fill="#D9D9D9"/>
<path d="M66.8999 15.3596H57.7068V17.5691H66.8999V15.3596Z" fill="#D9D9D9"/>
<path d="M66.8818 25.6194H57.7068V27.8289H66.8818V25.6194Z" fill="#D9D9D9"/>
<path d="M74.6677 23.002H78.4987C78.2841 24.5526 77.0011 25.7994 74.8989 25.7994C72.1015 25.7994 70.5525 23.8045 70.5525 21.5587C70.5525 19.313 72.1922 17.4072 74.6314 17.4072C76.5553 17.4072 77.7144 18.2808 78.337 19.5638L80.601 18.9231C79.8166 16.8375 77.6963 15.1101 74.6132 15.1101C70.9076 15.1101 68.0754 17.906 68.0754 21.5768C68.0754 25.2477 70.8894 28.0799 74.719 28.0799C78.5486 28.0799 81.0256 25.6739 81.0256 22.1466V20.8998H74.6662V23.002H74.6677Z" fill="#D9D9D9"/>
<path d="M85.8907 15.3596L81.115 27.8292H83.6464L85.4841 22.9659H85.4796L87.4745 17.6915L89.4724 22.9659H89.4678L90.2824 25.1225H90.29L91.3056 27.8292H93.8536L89.0613 15.3596H85.8907Z" fill="#D9D9D9"/>
<path d="M104.863 15.3596H99.4482V17.551H104.81C106.949 17.551 108.374 19.1726 108.374 21.5407C108.374 23.9089 106.949 25.6197 104.81 25.6197H99.4482V27.8292H104.863C108.534 27.8292 110.833 25.1935 110.833 21.5951C110.833 17.9968 108.498 15.3596 104.863 15.3596Z" fill="#D9D9D9"/>
<path d="M115.108 15.3596H112.633V27.8292H115.108V15.3596Z" fill="#D9D9D9"/>
<path d="M123.426 17.4057C125.317 17.4057 126.653 18.5301 127.063 19.7406L129.447 19.1528C128.878 17.176 126.777 15.1101 123.41 15.1101C119.703 15.1101 116.907 17.906 116.907 21.5768C116.907 25.2477 119.703 28.0799 123.463 28.0799C126.76 28.0799 128.862 26.0668 129.432 24.072L127.063 23.4659C126.651 24.6946 125.315 25.7827 123.426 25.7827C120.969 25.7827 119.402 23.806 119.402 21.5602C119.402 19.3145 120.969 17.4088 123.426 17.4088V17.4057Z" fill="#D9D9D9"/>
<path d="M140.318 25.6194H131.143V27.8289H140.318V25.6194Z" fill="#D9D9D9"/>
<path d="M139.426 20.4177H131.143V22.5562H139.426V20.4177Z" fill="#D9D9D9"/>
<path d="M140.334 15.3596H131.143V17.5691H140.334V15.3596Z" fill="#D9D9D9"/>
<path d="M36.0713 8.69474L22.3428 0.769617C20.5655 -0.256539 18.3787 -0.256539 16.6014 0.769617L2.86992 8.69474C1.09568 9.72089 0 11.616 0 13.6668V29.5201C0 31.5724 1.09568 33.4676 2.86992 34.4922L16.6014 42.4173C18.3787 43.4435 20.5655 43.4435 22.3428 42.4173L36.0713 34.4922C37.8485 33.4676 38.9412 31.5709 38.9412 29.5201V13.6668C38.9412 11.6145 37.847 9.72089 36.0713 8.69474ZM36.9418 29.4309C36.9418 30.8183 36.1952 32.112 34.9937 32.8041L21.4209 40.6416C20.8179 40.9892 20.1454 41.163 19.4728 41.163C18.8003 41.163 18.1248 40.9892 17.5248 40.6416L3.95199 32.8041C2.74901 32.1104 2.00396 30.8168 2.00396 29.4309V13.756C2.00396 12.3686 2.75052 11.075 3.95199 10.3828L17.5248 2.54537C18.7278 1.85169 20.2194 1.85169 21.4224 2.54537L34.9952 10.3828C36.1982 11.0765 36.9433 12.3702 36.9433 13.756V29.4309H36.9418Z" fill="#D9D9D9"/>
<path d="M34.3875 11.433L20.8147 3.59401C20.4006 3.35523 19.9351 3.23584 19.4727 3.23584C19.0102 3.23584 18.5447 3.35523 18.1307 3.59401L4.55782 11.433C3.72964 11.9106 3.21582 12.8022 3.21582 13.7558V29.4308C3.21582 30.3874 3.72964 31.276 4.55782 31.7551L18.1307 39.5926C18.9588 40.0702 19.9865 40.0702 20.8147 39.5926L34.3875 31.7551C35.2157 31.276 35.7295 30.3859 35.7295 29.4308V13.7558C35.7295 12.8022 35.2157 11.9106 34.3875 11.433ZM14.3615 13.1816L17.836 9.70863C18.7276 8.81697 20.1648 8.80489 21.0701 9.67236L21.1064 9.70713L24.5808 13.1816C25.0946 13.6954 25.0946 14.5281 24.5808 15.0434L20.4006 19.2221C19.8868 19.736 19.054 19.736 18.5402 19.2221L14.36 15.0434C13.8522 14.5341 13.8462 13.712 14.3464 13.1982C14.3509 13.1921 14.354 13.1876 14.36 13.1816H14.3615ZM33.0409 25.2491C32.784 28.8384 29.9096 31.7612 26.3233 32.071C24.5642 32.2221 22.9229 31.7551 21.587 30.8665L24.9903 35.358H13.9474L17.3508 30.8665C16.0194 31.7521 14.3827 32.2191 12.6326 32.071C9.01613 31.7672 6.12201 28.8066 5.89381 25.1841C5.74268 22.7933 6.7386 20.6337 8.37229 19.1843L8.36624 19.1798L8.37078 19.1753L8.53855 19.0015L9.95763 17.5824C10.5637 17.1532 11.3767 17.1033 12.0402 17.4872L17.1347 20.4266C17.8541 20.8437 18.6626 21.0492 19.4712 21.0492C20.2797 21.0492 21.0867 20.8437 21.8106 20.4266L26.9112 17.4811C27.5626 17.1048 28.359 17.1456 28.9635 17.5537H28.965L30.5836 19.1753L30.6969 19.2901H30.6894C32.2687 20.7561 33.2102 22.89 33.0425 25.2476L33.0409 25.2491Z" fill="#D9D9D9"/>
<path d="M18.8877 13.5293C18.5658 13.8512 18.5658 14.3741 18.8877 14.696C19.2111 15.0179 19.7325 15.0179 20.0544 14.696C20.3778 14.3741 20.3778 13.8512 20.0544 13.5293C19.7325 13.2074 19.2111 13.2074 18.8877 13.5293Z" fill="#D9D9D9"/>
<path d="M17.0925 14.6068C17.4144 14.2834 17.4144 13.762 17.0925 13.4401C16.7691 13.1167 16.2477 13.1167 15.9243 13.4401C15.6024 13.762 15.6024 14.2834 15.9243 14.6068C16.2477 14.9287 16.7691 14.9287 17.0925 14.6068Z" fill="#D9D9D9"/>
<path d="M19.9655 11.7323C20.2889 11.4104 20.2889 10.8875 19.9655 10.5656C19.6436 10.2437 19.1222 10.2437 18.7988 10.5656C18.4769 10.8875 18.4769 11.4104 18.7988 11.7323C19.1222 12.0542 19.6436 12.0542 19.9655 11.7323Z" fill="#D9D9D9"/>
<path d="M18.9786 16.4933C18.6552 16.8152 18.6552 17.3366 18.9786 17.66C19.3005 17.9819 19.8219 17.9819 20.1453 17.66C20.4673 17.3366 20.4673 16.8152 20.1453 16.4933C19.8219 16.1699 19.3005 16.1699 18.9786 16.4933Z" fill="#D9D9D9"/>
<path d="M23.0165 14.7851C23.3399 14.4632 23.3399 13.9403 23.0165 13.6184C22.6946 13.2965 22.1732 13.2965 21.8498 13.6184C21.5279 13.9403 21.5279 14.4632 21.8498 14.7851C22.1732 15.107 22.6946 15.107 23.0165 14.7851Z" fill="#D9D9D9"/>
</svg>
