<svg width="183" height="32" viewBox="0 0 183 32" fill="none" xmlns="http://www.w3.org/2000/svg">
<path d="M18.9597 14.8496H21.9368V31.5811H19.1571V19.8001L11.8013 31.4226C11.5433 31.6883 10.3298 31.6557 10.1185 31.4381L2.77979 19.8995V31.5811H0V14.8496H2.8295L10.9684 27.8162L18.9582 14.8496H18.9597Z" fill="#D9D9D9"/>
<path d="M61.937 14.8496H64.9141V31.5811H62.1344V19.8001L54.7786 31.4226C54.5206 31.6883 53.3071 31.6557 53.0958 31.4381L45.7571 19.8995V31.5811H42.9773V14.8496H45.8068L53.9457 27.8162L61.9355 14.8496H61.937Z" fill="#D9D9D9"/>
<path d="M27.4949 25.8383V31.5796H24.7151V14.8481H36.3781C38.6979 14.8481 40.9246 17.6745 41.0955 19.8437C41.2928 22.3329 39.3334 25.8367 36.5754 25.8367H27.4933L27.4949 25.8383ZM27.4949 23.3631H36.4775C36.563 23.3631 37.3073 22.9311 37.4238 22.8223C38.6979 21.615 38.6637 18.7482 37.1565 17.7367C37.0509 17.6652 36.3408 17.3234 36.2802 17.3234H27.4964V23.3631H27.4949Z" fill="#D9D9D9"/>
<path d="M45.5581 2.17689L41.0427 12.7677L37.4503 8.32689L32.4066 11.0523L27.3971 8.21657L23.8715 12.7708L19.3545 2.32761L27.1485 6.60527L32.4066 0L37.7657 6.60371L45.5581 2.17689ZM36.6268 7.32468L32.4967 2.08367L28.2874 7.27496L32.4159 9.60568L36.6252 7.32468H36.6268ZM26.3001 7.52823L21.9369 5.14779L24.1216 10.3935L26.255 7.8188L26.3001 7.52668V7.52823ZM42.9788 5.14779L38.5147 7.67119L40.746 10.3935L42.9788 5.14779Z" fill="#D9D9D9"/>
<path d="M91.3803 16.9628C91.9117 17.4755 92.4897 18.2618 92.8564 18.9066C94.8095 22.3405 94.3154 26.4053 91.7143 29.3498L93.4997 31.6774C93.119 31.6292 92.558 31.7722 92.2115 31.6277C91.9085 31.5003 91.0353 30.1127 90.8706 30.1127C83.0518 35.8416 74.7932 25.6595 79.9799 18.2431C82.6851 14.3757 87.8919 13.5988 91.3818 16.9628H91.3803ZM88.139 26.7301C88.5197 26.7782 89.0806 26.6353 89.4271 26.7798C89.7441 26.9134 90.6702 28.4144 90.869 28.4097C93.192 25.6921 93.3645 21.6134 91.2544 18.7202C87.8842 14.096 81.5306 15.7819 79.997 21.0322C78.1588 27.3236 84.357 33.4581 90.1217 29.154L88.139 26.7301Z" fill="#D9D9D9"/>
<path d="M98.4625 14.9478C98.6428 18.4314 98.1269 22.2289 98.6894 25.6613C99.1509 28.4784 100.888 30.475 103.867 30.5962C107.991 30.764 109.641 27.8087 109.875 24.1059C110.063 21.1226 109.737 17.9513 109.875 14.9493H111.167C111.03 17.9901 111.347 21.1863 111.17 24.21C110.901 28.8093 108.426 32.15 103.475 31.7787C99.1369 31.4524 97.406 27.9268 97.1729 24.008C96.9973 21.0667 97.3034 17.9653 97.1698 15.0068L98.4625 14.9493V14.9478Z" fill="#D9D9D9"/>
<path d="M112.952 31.6793L120.145 14.9417L121.026 14.965L121.214 15.1732L128.138 31.6793L126.795 31.5846L124.419 26.2286L116.535 26.2472L114.341 31.6809H112.952V31.6793ZM124.169 25.1456L120.498 16.6322L116.924 25.1456H124.169Z" fill="#D9D9D9"/>
<path d="M170.024 25.2945L163.475 15.0953C163.448 14.8933 163.482 14.9663 163.621 14.9477C163.953 14.9042 164.721 14.8747 164.952 15.1077L170.67 24.0546L176.374 15.0937C176.713 14.797 177.423 15.0098 177.866 14.9492L171.315 25.2945V31.6807H170.025V25.2945H170.024Z" fill="#D9D9D9"/>
<path d="M162.381 14.9492V16.1363H156.327V31.6791H155.036V16.1363H148.883V14.9492H162.381Z" fill="#D9D9D9"/>
<path d="M132.209 14.9492V30.492H142.133V31.6791H130.917V14.9492H132.209Z" fill="#D9D9D9"/>
<path d="M146.103 14.9492H144.813V31.6807H146.103V14.9492Z" fill="#D9D9D9"/>
<path d="M75.5345 24.6511H68.6853V25.8398H75.5345V24.6511Z" fill="#D9D9D9"/>
<path d="M180.908 12.8062C183.96 12.7471 183.533 17.7069 180.464 16.958C178.024 16.3644 178.567 12.8497 180.908 12.8062ZM180.047 16.2355V13.6608H181.486C181.659 13.6608 181.903 14.0461 181.929 14.2124C182.016 14.7826 181.642 14.9054 181.642 15.1944C181.642 15.4508 182.016 15.9325 182.033 16.2339C183.857 14.6506 181.35 12.1116 179.746 13.7058C178.258 15.1851 180.279 17.4692 181.932 16.2836C181.273 16.2836 181.332 15.5766 181.078 15.14L180.542 15.1462V16.2355H180.046H180.047ZM181.423 14.1704L180.543 14.057V14.7516L181.423 14.6381V14.172V14.1704Z" fill="#D9D9D9"/>
</svg>
