<svg width="150" height="77" viewBox="0 0 150 77" fill="none" xmlns="http://www.w3.org/2000/svg">
<g clip-path="url(#clip0_86_1214)">
<path d="M12.9933 64.7856V76.2883H10.1985V69.3893L7.63279 76.2883H5.37765L2.79483 69.3742V76.2883H0V64.7856H3.3024L6.52342 72.7475L9.71017 64.7856H12.9933Z" fill="#D9D9D9"/>
<path d="M23.8621 74.257H19.581L18.8957 76.2905H15.9702L20.1186 64.7878H23.3567L27.5051 76.2905H24.5475L23.86 74.257H23.8621ZM23.1425 72.0927L21.7205 67.882L20.3135 72.0927H23.1425Z" fill="#D9D9D9"/>
<path d="M33.2767 74.1238H36.9368V76.2882H30.4797V64.7834H33.2767V74.1238Z" fill="#D9D9D9"/>
<path d="M47.1331 74.2571H42.852L42.1667 76.2905H39.2412L43.3938 64.7879H46.6299L50.7782 76.2905H47.8206L47.1331 74.2571ZM46.9061 62.4753L42.9677 64.1308V62.1983L46.9061 60.2959V62.4753ZM46.4157 72.0927L44.9936 67.882L43.5909 72.0927H46.4178H46.4157Z" fill="#D9D9D9"/>
<path d="M69.7039 64.7856L65.6348 76.2883H62.1375L58.0684 64.7856H61.0409L63.885 73.469L66.7441 64.7856H69.7039Z" fill="#D9D9D9"/>
<path d="M75.3749 67.0317V69.3571H79.1163V71.5194H75.3749V74.0445H79.6067V76.2883H72.5779V64.7857H79.6067V67.0317H75.3749ZM78.5445 62.8361L76.0131 64.1287L73.4774 62.8361V60.9036L76.0131 62.3272L78.5445 60.9036V62.8361Z" fill="#D9D9D9"/>
<path d="M85.0314 75.9919C84.3675 75.7192 83.8363 75.3134 83.4401 74.7787C83.0418 74.2441 82.8298 73.5999 82.8083 72.8462H85.7809C85.8259 73.2714 85.9737 73.5977 86.2243 73.8211C86.4727 74.0444 86.8004 74.156 87.203 74.156C87.6056 74.156 87.9461 74.0615 88.1839 73.8704C88.4237 73.6793 88.5415 73.4131 88.5415 73.076C88.5415 72.7904 88.4473 72.5563 88.2567 72.3695C88.0639 72.1849 87.8305 72.0324 87.5521 71.91C87.2737 71.7919 86.8817 71.6524 86.3699 71.5021C85.6267 71.2723 85.0228 71.0426 84.5559 70.8128C84.0869 70.5852 83.6843 70.2459 83.3438 69.7972C83.0075 69.3506 82.8383 68.7665 82.8383 68.0429C82.8383 66.9736 83.2238 66.1362 83.997 65.5285C84.7701 64.923 85.7767 64.6203 87.0231 64.6203C88.2695 64.6203 89.3039 64.923 90.0771 65.5285C90.8523 66.1362 91.2657 66.9779 91.3192 68.0601H88.2952C88.2738 67.6886 88.1389 67.3966 87.8883 67.1819C87.6377 66.9693 87.3143 66.8641 86.9224 66.8641C86.5841 66.8641 86.3121 66.9543 86.1043 67.1346C85.8987 67.315 85.7959 67.5748 85.7959 67.9119C85.7959 68.2855 85.9694 68.5733 86.3185 68.7815C86.6676 68.9877 87.2115 69.211 87.9526 69.4515C88.6957 69.7027 89.2975 69.9432 89.7601 70.1708C90.2227 70.4005 90.6232 70.7334 90.9616 71.1714C91.2978 71.6094 91.467 72.1698 91.467 72.8591C91.467 73.5484 91.3021 74.1088 90.968 74.6434C90.636 75.1781 90.1542 75.6032 89.5224 75.9232C88.8906 76.2388 88.1453 76.3977 87.2844 76.3977C86.4234 76.3977 85.6931 76.2603 85.0271 75.9854M89.6573 62.7694L87.1259 64.062L84.5945 62.7694V60.8347L87.1259 62.2605L89.6573 60.8347V62.7694Z" fill="#D9D9D9"/>
<path d="M103.158 64.7856V67.0295H100.117V76.2883H97.3224V67.0295H94.2834V64.7856H103.158Z" fill="#D9D9D9"/>
<path d="M109.581 62.4731L105.64 64.1286V62.1961L109.581 60.2937V62.4731ZM109.073 76.2883H106.279V64.7857H109.073V76.2883Z" fill="#D9D9D9"/>
<path d="M118.668 76.2883L116.28 71.9444H115.612V76.2883H112.817V64.7856H117.507C118.413 64.7856 119.184 64.9445 119.818 65.2602C120.456 65.5758 120.934 66.0117 121.251 66.5635C121.566 67.1154 121.724 67.7273 121.724 68.4058C121.724 69.1702 121.508 69.8531 121.077 70.4543C120.649 71.0555 120.013 71.4807 119.176 71.7319L121.823 76.2883H118.67H118.668ZM115.612 69.9626H117.342C117.854 69.9626 118.242 69.8359 118.495 69.5847C118.752 69.3356 118.878 68.9813 118.878 68.5196C118.878 68.0838 118.749 67.7402 118.495 67.489C118.242 67.2399 117.854 67.1132 117.342 67.1132H115.612V69.9626Z" fill="#D9D9D9"/>
<path d="M135.45 76.2882H132.657L127.982 69.1938V76.2882H125.189V64.7834H127.982L132.657 71.9143V64.7834H135.45V76.2882Z" fill="#D9D9D9"/>
<path d="M146.336 74.257H142.055L141.369 76.2905H138.444L142.596 64.7878H145.832L149.981 76.2905H147.023L146.336 74.257ZM145.616 72.0927L144.194 67.882L142.791 72.0927H145.618H145.616Z" fill="#D9D9D9"/>
<path d="M77.705 6.26563C81.0952 2.86659 84.6075 0.549751 84.8774 0.371533C85.6441 -0.124473 86.6678 0.0902479 87.1646 0.856802C87.6615 1.6255 87.4473 2.64972 86.6806 3.15002C83.5388 5.20061 75.2443 11.7947 74.589 17.5578C74.3769 19.4087 74.9702 21.0384 76.4008 22.5286C76.5957 22.7326 81.0096 27.1601 90.315 22.3074C91.1267 21.8844 92.1247 22.2001 92.5444 23.0117C92.9663 23.8255 92.6515 24.8261 91.842 25.2491C80.1872 31.3257 74.242 25.0709 73.9957 24.8025C71.8926 22.6081 70.9803 20.0336 71.308 17.1778C71.7663 13.1775 74.6896 9.29105 77.7072 6.26348" fill="#D9D9D9"/>
<path d="M81.9241 8.64479C85.7769 4.78195 90.2272 1.53966 91.056 0.947032C91.7991 0.414523 92.8293 0.588447 93.3604 1.33138C93.8915 2.07647 93.718 3.10927 92.977 3.64393C87.8907 7.28775 79.6775 14.4573 79.292 18.172C79.2342 18.741 79.4055 19.0115 79.579 19.2005C79.7032 19.3336 79.7524 19.383 79.821 19.5376C79.9109 19.6664 80.305 20.1431 81.2687 20.244C83.0934 20.4308 87.4431 19.3916 96.0717 10.3196C96.7142 9.66256 97.7486 9.63036 98.4082 10.2616C99.07 10.8908 99.0957 11.9429 98.466 12.6042C90.9982 20.4716 85.0059 24.1369 80.6712 23.5078C78.461 23.19 77.3902 21.8673 77.0283 21.309C76.2187 20.3578 75.8654 19.1597 76.0067 17.8284C76.2958 15.0263 78.9322 11.6444 81.9283 8.64264" fill="#D9D9D9"/>
<path d="M82.0288 15.8186C82.0502 15.7971 82.0695 15.7778 82.0909 15.7585L95.8659 3.28745C96.5448 2.67335 97.59 2.72918 98.2025 3.4077C98.815 4.08622 98.755 5.1362 98.0847 5.74601L84.3097 18.217C83.6308 18.8311 82.5857 18.7774 81.9732 18.0989C81.3799 17.4397 81.412 16.437 82.031 15.8164" fill="#D9D9D9"/>
<path d="M56.856 27.1643C56.9717 27.0484 57.1088 26.9453 57.263 26.8637C68.9177 20.7871 74.8608 27.0419 75.1092 27.3125C77.2123 29.5048 78.1225 32.0793 77.7948 34.9372C76.8225 43.4316 64.7373 51.4063 64.2233 51.7413C63.4566 52.2373 62.435 52.0226 61.9381 51.256C61.437 50.4873 61.6554 49.4631 62.42 48.9628C65.5618 46.9122 73.8563 40.3224 74.5117 34.5571C74.7237 32.702 74.1305 31.0765 72.6999 29.5842C72.505 29.3824 68.0911 24.9548 58.7857 29.8075C57.974 30.2284 56.976 29.9127 56.5562 29.1011C56.2157 28.4419 56.357 27.6603 56.8518 27.1643" fill="#D9D9D9"/>
<path d="M52.1552 37.9521C58.927 31.1626 64.3967 28.0191 68.4359 28.6053C70.646 28.9231 71.719 30.2457 72.0809 30.804C72.8862 31.7552 73.2396 32.9534 73.1025 34.2846C72.4386 40.6919 59.5202 50.1139 58.0511 51.1682C57.3058 51.7007 56.2757 51.5268 55.7445 50.7838C55.2134 50.0409 55.3869 49.0059 56.1279 48.4713C61.2164 44.8275 69.4296 37.6579 69.8129 33.9432C69.8729 33.3742 69.7016 33.1037 69.5281 32.9147C69.4039 32.7816 69.3525 32.7322 69.284 32.5776C69.1961 32.4488 68.7999 31.9721 67.8362 31.8712C66.0137 31.6844 61.6619 32.7215 53.0354 41.7956C52.4014 42.4483 51.3585 42.4848 50.6967 41.8536C50.0349 41.2244 50.0114 40.1723 50.6389 39.511C51.1507 38.972 51.6562 38.4524 52.153 37.9542" fill="#D9D9D9"/>
<path d="M50.9602 46.4249C50.9816 46.4034 51.0009 46.3841 51.0223 46.3648L64.7973 33.8938C65.4762 33.2818 66.5213 33.3355 67.1339 34.014C67.7464 34.6925 67.6992 35.7361 67.0161 36.3566L53.2411 48.8255C52.5622 49.4396 51.5171 49.3859 50.9045 48.7074C50.3113 48.0482 50.3434 47.0454 50.9624 46.4249" fill="#D9D9D9"/>
<path d="M97.1381 33.984C99.8152 36.668 101.64 39.4486 101.779 39.6634C102.173 40.2689 102.002 41.0805 101.398 41.4756C100.796 41.8707 99.9865 41.6989 99.5924 41.0934C97.9755 38.6069 92.782 32.0386 88.2418 31.5168C86.7812 31.3494 85.5005 31.8196 84.3247 32.9533C84.1662 33.1058 80.6775 36.6014 84.5003 43.9685C84.8344 44.6105 84.586 45.3986 83.9456 45.7357C83.3053 46.0685 82.515 45.8194 82.1831 45.1774C77.3965 35.9508 82.3223 31.242 82.5365 31.0466C84.2626 29.3804 86.2907 28.6568 88.5416 28.9166C91.6919 29.2794 94.7545 31.5963 97.136 33.984" fill="#D9D9D9"/>
<path d="M95.2621 37.325C98.3033 40.374 100.858 43.8997 101.325 44.5546C101.745 45.1451 101.61 45.961 101.021 46.3798C100.436 46.8006 99.6225 46.6632 99.2006 46.077C96.3287 42.0467 90.6833 35.5428 87.7557 35.24C87.3102 35.1928 87.0961 35.3281 86.9462 35.4655C86.8391 35.5621 86.8005 35.6029 86.6785 35.6587C86.5778 35.7274 86.2009 36.0409 86.1238 36.8053C85.9739 38.2504 86.7941 41.6945 93.9429 48.5248C94.4569 49.0359 94.4826 49.8539 93.9857 50.3757C93.491 50.8996 92.6622 50.9168 92.1418 50.4208C85.946 44.5052 83.0591 39.762 83.5538 36.3308C83.8044 34.5787 84.8452 33.7305 85.2843 33.4449C86.0338 32.8051 86.9783 32.5281 88.0255 32.6376C90.2336 32.8652 92.8956 34.9523 95.2621 37.325Z" fill="#D9D9D9"/>
<path d="M89.6124 37.4087C89.6295 37.4259 89.6423 37.4431 89.6595 37.4581L99.4831 48.366C99.965 48.9028 99.9243 49.7316 99.3889 50.2147C98.8535 50.7 98.0268 50.6527 97.545 50.1202L87.7213 39.2124C87.2394 38.6756 87.2801 37.8468 87.8155 37.3636C88.3338 36.8956 89.1241 36.9192 89.6124 37.4087Z" fill="#D9D9D9"/>
<path d="M68.5109 5.28222C68.603 5.37455 68.6822 5.48191 68.7465 5.60645C73.533 14.833 68.6073 19.5419 68.3952 19.7373C66.6669 21.4035 64.6388 22.125 62.3901 21.8651C55.6996 21.0964 49.4161 11.5263 49.1527 11.1205C48.7586 10.515 48.9299 9.70333 49.5339 9.30824C50.1378 8.91316 50.9452 9.08494 51.3414 9.69045C52.9583 12.1769 58.1497 18.7452 62.6899 19.267C64.1505 19.4345 65.4312 18.9643 66.607 17.8305C66.7676 17.6759 70.2542 14.1824 66.4314 6.81533C66.0994 6.17332 66.3478 5.38099 66.9861 5.04818C67.5043 4.77763 68.1211 4.89143 68.513 5.28437" fill="#D9D9D9"/>
<path d="M60.0129 1.56106C65.3627 6.9248 67.8385 11.2557 67.3759 14.4529C67.1253 16.2029 66.0845 17.051 65.6454 17.3366C64.8959 17.9765 63.9514 18.2556 62.9041 18.1483C57.8563 17.6201 50.4355 7.39289 49.6046 6.2291C49.1848 5.64291 49.3198 4.82483 49.9087 4.40397C50.4934 3.98312 51.3072 4.12054 51.7291 4.70888C54.601 8.7349 60.2464 15.2409 63.174 15.5437C63.6195 15.5909 63.8336 15.4557 63.9835 15.3182C64.0906 15.2238 64.1292 15.1808 64.2512 15.1271C64.3498 15.0563 64.7288 14.7449 64.8059 13.9784C64.9558 12.5333 64.1356 9.09133 56.9868 2.25891C56.475 1.75646 56.4471 0.929783 56.944 0.408011C57.4387 -0.115909 58.2675 -0.133087 58.7879 0.365066C59.212 0.768742 59.621 1.16812 60.0129 1.56321" fill="#D9D9D9"/>
<path d="M53.3375 0.611865C53.3546 0.629043 53.3674 0.646221 53.3846 0.661251L63.2061 11.5691C63.6901 12.1059 63.6473 12.9347 63.114 13.4178C62.5786 13.9031 61.7584 13.8645 61.2701 13.3234L51.4464 2.41552C50.9645 1.87872 51.0052 1.0499 51.5406 0.566774C52.0589 0.0986816 52.8492 0.122301 53.3375 0.611865Z" fill="#D9D9D9"/>
</g>
<defs>
<clipPath id="clip0_86_1214">
<rect width="149.979" height="76.4042" fill="white"/>
</clipPath>
</defs>
</svg>
