<svg width="113" height="36" viewBox="0 0 113 36" fill="none" xmlns="http://www.w3.org/2000/svg">
<path d="M104.146 35.962H8.13416C6.81449 35.6956 5.58938 35.3774 4.42152 34.6916C1.95664 33.2428 0.533109 30.7779 0.0230875 28.0014C0.0750218 27.3183 -0.0488215 26.5473 0.0230875 25.8788C0.435899 22.0277 3.76102 19.3337 6.61075 17.1272C7.02756 16.8036 8.77601 15.3548 9.1289 15.3868C9.40855 15.4121 10.6004 17.0913 10.5098 17.4242C10.4366 17.6892 7.07283 20.142 6.53751 20.6361C1.37338 25.3967 4.14853 32.8632 10.9879 33.3147L101.685 33.3067C108.339 32.5143 110.8 25.2862 105.745 20.6361C105.21 20.1447 101.846 17.6892 101.773 17.4242C101.724 17.2444 101.748 17.1565 101.822 16.994C101.862 16.9062 102.818 15.5905 102.886 15.5319C103.35 15.1391 104.016 15.8621 104.399 16.1405C106.58 17.7225 109.968 20.3844 111.217 22.7374C114.172 28.3064 110.455 35.3481 104.147 35.9606L104.146 35.962Z" fill="#D9D9D9"/>
<path d="M85.728 29.3291L85.5469 29.0214L92.7085 16.4614L79.8222 22.4192L75.3545 9.29581L75.0242 9.38903L69.5032 29.3304H67.2421L67.0397 28.9961L72.6366 2.20881C72.6632 2.02637 72.7857 1.79866 72.9762 1.76404C73.1533 1.73075 76.1814 2.46448 76.4851 2.59631C76.6795 2.68021 76.8326 2.75212 76.9139 2.96385L81.4841 18.7119L95.999 10.7779C96.1575 10.714 96.276 10.7766 96.4212 10.8259C96.7168 10.9284 99.484 12.7062 99.5599 12.8766L88.9173 29.3317H85.7254L85.728 29.3291Z" fill="#D9D9D9"/>
<path d="M42.7757 29.3292L35.5475 2.8854C35.642 2.49257 36.9803 2.30081 37.3878 2.19561C42.0499 0.986481 48.0597 0.139555 52.8749 0.0023962C54.4223 -0.041548 55.6927 0.513747 56.1081 2.09707C55.8604 5.76042 56.5556 10.1455 56.1254 13.7263C55.7979 16.4429 52.9535 15.9688 50.9533 16.1965L50.96 16.5188L56.6368 29.0003C56.5995 29.505 54.3517 29.3984 53.9469 29.196L47.238 16.8184C47.1648 16.6839 47.0423 16.6692 46.9051 16.6599C46.4031 16.624 43.7092 17.086 43.1805 17.2618C43.0527 17.3044 42.8995 17.2951 42.8569 17.4642L45.3364 28.8951C45.379 29.0349 45.0834 29.3292 45.0368 29.3292H42.7757ZM42.3123 14.7357C44.0114 14.3975 45.7293 14.0619 47.4471 13.8235C48.599 13.6637 49.8827 13.6824 51.0066 13.5266C52.8696 13.2682 52.5979 12.095 52.5566 10.549C52.5114 8.8272 52.4088 6.83373 52.2836 5.11724C52.1025 2.64038 51.3675 2.76289 49.1609 2.92802C46.1554 3.15173 43.1618 3.80956 40.1896 4.25966L42.3136 14.737L42.3123 14.7357Z" fill="#D9D9D9"/>
<path d="M23.3603 29.3292L12.9429 13.4534C12.5221 12.7769 12.9881 12.6171 13.4649 12.2922C17.2454 9.70879 22.9382 6.91899 27.2501 5.34766C29.165 4.64987 31.1358 3.88152 32.2291 6.2838C33.6313 9.36655 34.2239 13.4187 35.6009 16.5854C35.7833 17.5775 35.6967 18.5176 34.9963 19.274C34.3371 19.9851 30.4034 21.3127 29.1876 21.876C27.5817 22.6204 26.0236 23.4806 24.4803 24.3435C24.4044 24.4221 24.3644 24.5153 24.3538 24.6232C24.3018 25.1439 26.4058 28.1694 26.7268 28.8924C26.8346 29.0363 26.6389 29.3279 26.5523 29.3279H23.3603V29.3292ZM22.7744 22.157C24.5828 21.2595 26.3446 20.2687 28.1676 19.3978C29.6178 18.704 32.1572 18.4217 31.7737 16.4243C31.506 15.0314 29.8774 11.2828 29.2449 9.79268C29.0225 9.26934 28.8374 8.48368 28.2222 8.29325C27.3127 8.01094 25.9291 8.77397 25.0662 9.13884C22.4948 10.2215 20.0712 11.6397 17.5823 12.8834L22.7744 22.157Z" fill="#D9D9D9"/>
<path d="M60.4626 29.3289C60.42 29.3169 60.2243 29.1198 60.1963 29.0612L62.4481 0.396283C62.6745 0.0673671 65.9117 0.617336 66.4976 0.685249L62.9089 28.719L62.5893 29.3289H60.4613H60.4626Z" fill="#D9D9D9"/>
</svg>
