<svg width="159" height="35" viewBox="0 0 159 35" fill="none" xmlns="http://www.w3.org/2000/svg">
<path d="M28.647 28.8365L23.5359 28.703L22.7166 21.3969C22.621 20.8432 23.1719 20.7012 23.3715 20.2965C24.0601 18.9011 22.517 18.5258 22.4763 17.923C22.4679 17.8021 22.5775 17.6433 22.5676 17.514C22.4721 16.3757 22.8838 15.9261 22.8487 15.2276C22.8361 14.9845 22.6267 14.8173 22.614 14.5728C22.5817 13.9333 22.9443 12.8667 22.8403 12.0573C22.6337 10.4567 21.6472 9.75261 20.3121 9.07105C22.0322 8.74361 23.0539 8.02269 20.582 7.66294C20.6283 7.43107 20.9712 7.43528 21.1286 7.20481C21.5319 6.61178 20.915 6.67642 20.8518 6.5893C20.7436 6.44174 21.1539 6.15507 21.1188 5.99767C21.0921 5.87822 20.499 5.53392 20.3121 5.51846C20.2503 5.42712 21.4111 4.64156 21.2298 3.74499C20.9234 2.2343 20.2897 4.71183 19.5687 4.46028C19.2483 4.31554 18.845 4.17219 18.5386 4.03307C18.0833 3.82509 18.2267 3.90238 17.6969 3.7745C17.4509 3.71548 17.3034 3.49344 17.0294 3.50749C16.9689 3.5103 15.9684 3.78012 15.8489 3.82088C15.1533 4.05556 14.5532 4.78771 13.9208 4.18484C13.6524 4.07664 13.5442 3.1379 13.2533 3.2447C12.4593 3.53981 13.0903 5.1278 13.7199 5.45383C13.4065 5.82342 12.888 5.62246 13.0482 6.24079C13.0706 6.32791 13.5541 6.34618 13.3194 6.59211C13.28 6.63427 12.7699 6.53027 12.7769 6.93078C12.7826 7.24838 13.3067 7.34394 13.4515 7.59829C13.4571 7.88778 12.101 7.72337 12.1024 8.26862C12.1038 8.7422 13.1985 8.87009 13.5358 8.99094C14.119 9.20033 13.3896 9.33665 13.1817 9.46734C12.5043 9.89455 11.8171 10.3316 11.5698 11.1467L10.9318 9.18065C11.4616 8.31218 10.9472 8.23068 10.766 7.72899C10.6381 7.37205 11.3463 7.66997 11.1665 7.33129C11.0667 7.14298 10.7378 7.18233 10.6577 7.09099C10.5875 7.01088 10.6563 6.78463 10.617 6.74669C10.5355 6.66659 9.98461 6.70032 9.88061 6.85069C9.73727 7.05726 9.87218 7.61376 9.82299 7.66435C9.75554 7.73321 8.69173 7.59408 8.43737 7.66013C8.29684 7.69666 8.30809 7.98195 8.1254 8.04518C7.87947 8.13091 7.53377 8.03675 7.26817 8.06626C7.1684 8.68318 8.29545 8.8195 8.34463 8.87009C8.37696 8.90382 8.24765 9.17363 8.2603 9.31135C8.34181 10.2135 9.11332 12.7993 9.60237 13.5778C10.2727 14.6458 11.789 15.0562 12.5141 16.0357L11.1496 29.0163C11.0063 29.4703 9.99726 29.0712 9.67967 29.2946C9.40142 29.4899 9.70917 30.1813 9.4253 30.3809L5.65349 31.113C5.62538 25.8207 5.68861 20.5228 5.6591 15.229C5.63802 11.5008 5.13773 6.84787 5.53543 3.19271C5.71109 1.58084 6.8775 0.30343 8.53857 0.155875C14.0459 -0.335978 20.2967 0.525466 25.8813 0.172737C27.1053 0.302024 28.6498 1.82536 28.6498 3.04234V28.8351L28.647 28.8365Z" fill="#D9D9D9"/>
<path d="M150.187 13.6004C150.354 13.807 150.346 14.0445 150.367 14.2932C150.586 16.8438 150.039 19.958 150.396 22.4369C150.878 25.7801 155.359 24.5575 155.61 22.4749C155.742 21.3815 155.777 16.6485 155.576 15.669C155.526 15.4189 155.163 14.8062 154.933 14.7022C154.59 14.5476 152.52 14.8652 153.177 13.9222C153.29 13.762 156.502 12.2345 156.727 12.2514C157.128 12.2837 158.779 13.6454 158.803 14.1949L158.797 30.0705C158.61 32.17 157.004 33.2956 155.073 33.7298C152.643 34.2765 146.845 34.3707 145.985 31.3858C145.146 28.4755 147.071 26.8875 149.552 25.9544C148.592 25.2489 147.544 24.4704 147.329 23.2154C146.997 21.2888 147.721 16.7019 147.067 15.3022C146.47 14.0206 144.358 15.1758 144.729 14.0487C144.792 13.859 147.981 12.2696 148.301 12.2542C148.467 12.2457 148.53 12.309 148.657 12.3708C148.815 12.4481 150.082 13.4683 150.187 13.599V13.6004ZM155.607 25.0845C153.251 25.6705 148.475 27.2163 149.625 30.4415C150.309 32.3611 152.355 32.7307 154.084 31.9423C154.504 31.7498 155.607 30.8321 155.607 30.3782V25.0859V25.0845Z" fill="#D9D9D9"/>
<path d="M46.8034 17.3129V23.4091C46.8034 24.13 47.8981 24.8397 48.5206 25.0477C49.1432 25.2556 51.1668 25.309 51.0713 26.0665C51.0038 26.6047 50.3953 26.6609 49.9681 26.6975C48.2775 26.8394 46.3382 26.5316 44.5774 26.5513C43.9984 26.5583 40.1929 27.2146 41.4801 25.6084C42.1294 24.7989 43.2199 25.2697 43.4251 23.5271C43.1707 19.1609 43.8157 14.314 43.4447 10.004C43.4124 9.62177 43.269 8.70973 42.9023 8.53548C42.1279 8.16588 40.7297 9.27465 40.8744 7.86234C40.9447 7.17515 42.0507 6.83648 42.6549 6.6819C46.6179 5.66727 57.9825 5.80218 57.9769 11.7522C57.9727 16.9363 50.5597 17.3115 46.802 17.3129H46.8034ZM46.8034 15.9737H48.7539C49.2669 15.9737 50.7818 15.6266 51.3144 15.4425C55.1888 14.1089 55.0679 9.72013 51.3355 8.31062C50.2745 7.91012 47.8672 7.51804 47.1449 8.60854C47.0648 8.7294 46.8048 9.38708 46.8048 9.47562V15.9737H46.8034Z" fill="#D9D9D9"/>
<path d="M134.127 24.1077C134.754 24.6206 135.694 23.9377 135.97 24.0726C136.384 24.2749 136.289 24.9424 136.007 25.2249C135.885 25.3472 133.34 26.893 133.179 26.9323C132.41 27.1234 130.684 25.5565 130.589 24.7527C130.27 22.077 131.027 18.3544 130.561 15.8038C130.464 15.2754 129.975 14.5967 129.418 14.5264C129.088 14.4857 128.202 14.8918 128.046 14.4168C127.952 14.1301 128.087 13.9292 128.313 13.7704C128.517 13.627 131.162 12.3876 131.34 12.3623C132.455 12.2021 133.247 13.8167 133.748 13.8266C134.119 13.835 135.946 12.5941 136.613 12.3932C137.267 12.1964 138.27 12.1177 138.933 12.285C139.907 12.5309 141.928 14.5545 142.128 15.5354C142.532 17.5225 141.627 22.1234 142.399 23.7072C143.072 25.0914 145.216 23.0889 144.687 24.8567C144.585 25.1926 141.786 26.9436 141.407 26.9632C140.832 26.9914 139.141 25.4146 139.063 24.7541C138.79 22.4565 139.599 17.6968 138.735 15.8347C137.605 13.3994 134.719 14.3353 133.714 16.3378C133.815 18.4247 133.479 20.8235 133.687 22.8738C133.72 23.1928 133.888 23.9124 134.127 24.1091V24.1077Z" fill="#D9D9D9"/>
<path d="M65.5446 23.8322C66.9555 25.142 68.9876 24.0852 70.0008 22.805L70.0415 15.5326C69.9699 15.2136 69.4401 14.6458 69.1323 14.5531C68.632 14.4027 67.3546 15.0913 67.6427 13.9165C67.6891 13.7296 70.8917 12.2653 71.1124 12.2456C71.7082 12.1922 73.1894 13.6284 73.285 14.31C73.649 16.8774 73.0559 20.215 73.292 22.878C73.358 23.6313 73.5492 24.3185 74.4359 24.2861C74.7929 24.2735 75.2159 23.9643 75.4899 24.0304C75.8665 24.1217 75.934 24.6234 75.785 24.9466C75.6993 25.1321 72.7748 26.9365 72.5514 26.959C72.1312 27.0026 70.4603 25.6366 70.2664 25.2207C70.1947 25.0647 70.2102 24.8525 70.2046 24.6796C68.3988 25.4005 66.8684 26.9407 64.7885 26.2564C60.1047 24.7176 62.2674 19.0739 61.6421 15.4553C61.5395 15.1265 61.1249 14.6557 60.7947 14.5517C60.2775 14.3901 59.8658 14.7695 59.4456 14.5629C58.3776 14.0388 60.7118 13.0972 61.1446 12.9061C61.4454 12.7726 62.5513 12.233 62.7495 12.2189C63.1134 12.1936 64.5834 13.3965 64.7464 13.7015C64.8883 13.9671 64.9375 14.3873 64.9628 14.6908C65.1778 17.2217 64.655 20.2768 64.9558 22.7375C64.9993 23.0987 65.279 23.5821 65.5432 23.8266L65.5446 23.8322Z" fill="#D9D9D9"/>
<path d="M111.183 17.0041C110.86 17.3638 107.644 18.4571 106.873 18.8057C106.288 19.0699 102.578 20.9277 102.494 21.279C103.632 23.6652 105.997 25.4696 108.579 23.7214C109.446 23.1354 109.962 21.6331 110.953 21.39C112.198 21.085 111.092 23.408 110.794 23.9181C108.375 28.0581 102.309 27.8656 99.8184 23.9181C97.3788 20.0508 99.1902 15.7295 102.48 13.0903C104.616 11.3759 107.646 11.9071 109.612 13.6258C110.376 14.2947 112.091 15.9909 111.182 17.0027L111.183 17.0041ZM101.811 19.5912C102.58 19.3987 107.864 17.0448 107.861 16.7104C106.679 15.3248 104.304 13.4375 102.681 15.2995C102.421 15.5974 101.811 16.9085 101.811 17.2472V19.5926V19.5912Z" fill="#D9D9D9"/>
<path d="M78.1795 21.6413C79.0887 20.8473 79.1745 22.5786 79.2785 22.9454C79.7703 24.6584 83.4157 24.4631 84.7282 23.9445C86.4918 23.2503 86.4623 21.7705 84.5961 21.1311C82.5753 20.4383 79.2265 20.5536 78.247 18.2109C77.1649 15.6196 78.9665 13.4934 81.3302 12.6544C82.6709 12.178 85.5278 11.8661 86.6015 12.9692C87.7412 14.1412 86.6127 17.4071 85.5981 16.6567C85.1189 16.3026 85.525 15.5128 84.5863 14.8425C82.9674 13.6873 79.2771 14.6345 80.4997 16.5021C81.5227 18.0634 87.6189 16.9574 88.1937 20.3596C88.7558 23.6845 85.993 26.5303 82.7762 26.824C80.8538 26.9996 76.9794 26.9055 77.1986 24.2144C77.2352 23.7633 77.876 21.9041 78.1767 21.6399L78.1795 21.6413Z" fill="#D9D9D9"/>
<path d="M121.061 13.8126C120.303 12.6068 123.894 12.1304 124.611 12.219C126.04 12.3932 126.601 14.4183 126.696 15.6338C127.014 19.6249 125.698 22.4059 122.862 25.0886C122.007 25.8981 120.894 27.0139 119.639 26.8186C119.214 26.7525 116.581 24.9495 116.353 24.5996C116.199 24.3607 116.1 23.9658 116.066 23.6805C115.74 20.9669 115.843 18.1732 115.44 15.461C114.98 13.9658 113.439 15.2094 112.972 14.7035C112.715 14.4253 112.816 14.2061 113.038 13.9601C113.229 13.7493 116.152 12.1164 116.416 12.0897C116.992 12.0307 118.446 13.2603 118.593 13.7929C118.665 14.0543 118.718 14.653 118.756 14.9705C119.036 17.3441 118.892 20.1238 119.33 22.4383C119.96 25.7801 122.181 24.5223 123.354 22.3624C124.488 20.2741 124.927 16.8593 123.44 14.8581C122.65 13.7943 121.168 13.9826 121.061 13.8126Z" fill="#D9D9D9"/>
<path d="M94.835 12.4704C95.0978 12.8836 97.2198 11.8676 97.3758 12.9665C97.5149 13.9446 96.222 13.7183 95.6192 13.8926C94.7212 14.1526 94.4809 14.9269 94.4078 15.7672C94.2841 17.2006 94.2265 22.3173 94.5863 23.5048C95.0641 25.0871 96.4539 23.7071 96.9837 24.3395C97.2198 24.6206 96.9233 25.0562 96.6928 25.2783C96.5017 25.4623 94.3741 26.7524 94.1057 26.855C93.1866 27.2063 91.69 25.8235 91.3499 24.986L91.3147 14.435C91.1292 13.4232 89.3726 14.6458 89.5666 13.367C89.6509 12.8077 92.2493 11.4642 92.8634 10.8796C93.2934 10.4707 94.5765 8.46816 95.0163 8.46535C96.3387 8.45692 94.4865 11.9266 94.8336 12.4704H94.835Z" fill="#D9D9D9"/>
<path d="M0 34.8652C0.597251 34.3649 1.56409 34.1302 2.31733 33.8927C8.5428 31.9337 16.3942 30.6661 22.9246 30.4385C24.989 30.3668 29.9117 30.2937 31.7442 30.9093C32.2178 31.0681 32.8713 31.4391 32.3513 31.9253C31.4168 32.8008 27.6028 32.0855 26.2987 32.0475C18.9209 31.8339 11.522 32.4579 4.32831 34.0206C3.37551 34.2271 1.49803 34.9424 0.723714 34.9973C0.451087 35.0169 0.252955 34.9143 0.00140667 34.8652H0Z" fill="#D9D9D9"/>
</svg>
