<svg width="176" height="49" viewBox="0 0 176 49" fill="none" xmlns="http://www.w3.org/2000/svg">
<path d="M18.6263 0.00292405V12.3799H20.8469L20.9098 7.87294H23.5122L23.4493 3.93793H27.7646V15.6493L27.8597 15.7444H29.6049V12.1897H33.9846V29.7715L32.4501 27.3388C31.2637 25.5541 29.3752 24.7218 27.516 26.1905C26.0721 27.3315 25.6099 29.9924 23.4727 30.143C20.3334 30.3668 20.4929 25.6639 17.2629 25.4517C13.5196 25.2075 13.6834 30.8627 10.1697 30.0699C8.03247 29.5872 7.65798 26.5415 5.59392 25.696C3.90435 25.0041 2.62878 25.8174 1.5887 27.1091L0.0292969 29.6427V12.6315H5.23261L5.2955 15.2968H6.2478V5.45781C6.29461 5.44026 6.32389 5.52072 6.34291 5.52072H9.70596C9.72498 5.52072 9.75422 5.44026 9.80103 5.45781V13.8998H10.7533V0.0950829C10.7533 0.0760662 10.6729 0.0468105 10.6904 0H18.6234L18.6263 0.00292405ZM12.5336 0.890862H11.5184V3.36596H12.5336V0.890862ZM14.5011 0.890862H13.5488V3.36596H14.5011V0.890862ZM16.2141 0.890862H15.1989V3.27089L15.294 3.36596H16.2141V0.890862ZM12.5336 4.1281H11.5184V6.5403H12.5336V4.1281ZM14.5011 4.1281H13.5488V6.38086C13.5488 6.39695 13.4976 6.41889 13.4991 6.44376L13.581 6.53884H14.5011V4.12664V4.1281ZM24.9721 4.5728H24.0841V6.82555C24.324 6.99817 24.6897 6.90308 24.9721 6.85773V4.5728ZM26.3047 4.5728H25.4168V6.92064C25.5821 6.89139 26.2594 6.99963 26.2886 6.82848C26.2155 6.09122 26.195 5.30567 26.3047 4.5728ZM7.71064 6.09561H6.82269V8.41272C7.00993 8.56485 7.51608 8.56778 7.71064 8.41272V6.09561ZM9.23347 6.09561H8.34552V8.41272C8.56495 8.60728 8.95261 8.46831 9.23347 8.50781V6.09561ZM12.5336 7.30244H11.5184V9.58737H12.5336V7.30244ZM24.9721 9.58737V7.39752C24.7848 7.24538 24.2787 7.24246 24.0841 7.39752V9.58737H24.9721ZM7.71064 9.07977H6.82269V11.4276H7.71064V9.07977ZM31.0648 12.7602H30.1768V15.0452H31.0648V12.7602ZM32.3345 12.7602H31.4466V15.0452H32.3345V12.7602ZM1.42777 13.2678H0.539824V15.5528L1.42777 15.6157V13.2678ZM3.0135 13.2678H2.06119V15.5206C2.26453 15.6742 2.80139 15.6757 3.0135 15.5206V13.2678ZM13.3587 14.3474H12.4063V16.7596H13.3587V14.3474ZM15.1989 14.3474H14.311V16.7596H15.1989V14.3474ZM31.0648 15.4899H30.1768V17.7748H31.0648V15.4899ZM4.79083 17.14H3.90288V19.4249H4.79083V17.14ZM6.18784 19.4249V17.235C5.96842 17.0405 5.58075 17.1795 5.29989 17.14V19.4249H6.18784ZM13.3587 17.5203H12.4707V19.773C12.6901 19.9676 13.0778 19.8286 13.3587 19.8681V17.5203ZM27.4472 19.4893H26.4949V21.7113H27.4472V19.4893ZM28.8442 19.4893H27.9563V21.7113H28.8442V19.4893ZM4.85518 20.0598H3.90288V22.2818H4.85518V20.0598ZM27.4472 22.2174C27.1459 22.2598 26.7333 22.115 26.4949 22.3125V24.5024H27.4472V22.2174Z" fill="#D9D9D9"/>
<path d="M25.5221 30.0028C26.8942 28.7023 27.4252 25.9508 29.8286 26.217C31.6118 26.4145 32.9591 29.8214 33.9699 31.0882C34.0986 32.7529 33.7754 34.3957 33.3497 35.9916L32.4501 34.4483C31.4319 33.1201 30.5542 32.0215 28.7037 32.5818C26.2315 33.3307 26.1174 37.513 22.8539 37.1268C20.0862 36.7991 19.9926 32.118 16.7553 32.4369C13.9408 32.7149 13.7931 36.8605 11.1058 37.1326C7.79836 37.4676 7.78373 33.771 5.46952 32.6798C3.14362 31.5826 1.6106 34.1806 0.634889 35.8643C0.36719 34.9062 0.0877689 33.85 0.0292555 32.8524C-0.0146295 32.1093 -0.0555631 31.3427 0.275037 30.6801C0.893816 29.4411 2.38003 26.7319 3.72584 26.3238C7.14594 25.2896 7.12253 31.236 11.0356 30.9054C14.1939 30.6377 14.1822 26.3472 16.944 26.2141C19.2772 26.1014 19.8155 29.2728 21.489 30.3685C22.7631 31.2008 24.4235 31.0443 25.5235 30.0028H25.5221Z" fill="#D9D9D9"/>
<path d="M4.20599 39.1832C7.74897 38.797 7.72851 45.292 11.7893 43.6566C13.8709 42.8184 14.222 39.4919 16.6445 39.1818C20.2182 38.7239 20.2898 44.6484 23.846 43.8453C26.0402 43.3494 26.4601 40.2628 28.4846 39.4085C29.6432 38.9199 30.7681 39.3003 31.6312 40.1589C29.1941 44.2475 25.1655 47.2741 20.48 48.2864C13.4482 49.8063 5.87802 46.3964 2.39062 40.1589C2.8324 39.6587 3.53309 39.2578 4.20599 39.1847V39.1832Z" fill="#D9D9D9"/>
<path d="M49.5244 29.046H54.0285V34.2273C54.0285 34.7422 54.3401 34.9997 54.9661 34.9997C55.5922 34.9997 55.8716 34.7422 55.8716 34.2273V31.5504C55.8716 30.7312 55.326 29.7701 54.2333 28.6686C52.1224 26.6206 50.8102 25.2456 50.2953 24.5419C49.7804 23.8383 49.5229 23.0674 49.5229 22.2263V19.6912C49.5229 16.7612 51.4363 15.2969 55.2646 15.2969C58.692 15.2969 60.4064 16.631 60.4064 19.2977V23.2035H55.9023V19.0461C55.9023 18.5941 55.6508 18.3688 55.1475 18.3688C54.558 18.3688 54.264 18.8047 54.264 19.6766L54.3591 21.1409C54.3591 21.9805 54.9164 22.9577 56.0326 24.0709C58.1054 26.056 59.4249 27.4413 59.9881 28.2283C60.5513 29.0153 60.8321 29.9076 60.8321 30.9052V33.787C60.8321 36.7902 58.9129 38.2911 55.0759 38.2911C51.2388 38.2911 49.5244 36.9262 49.5244 34.1966V29.046Z" fill="#D9D9D9"/>
<path d="M61.856 38.0861V15.5015H67.6985C69.0955 15.5015 70.3082 15.8189 71.3366 16.4538C72.3649 17.0886 72.8798 18.1053 72.8798 19.5008V22.6357C72.8798 24.2214 71.9144 25.339 69.982 25.9899C72.0182 26.4946 73.0378 27.58 73.0378 29.2506V33.6288C73.0378 35.1194 72.5522 36.2356 71.5809 36.9758C70.6095 37.716 69.4524 38.0861 68.1081 38.0861H61.856ZM68.2032 23.4358V19.5828C68.2032 18.7928 67.7409 18.3979 66.8179 18.3979V24.6354C67.7424 24.6354 68.2032 24.236 68.2032 23.4358ZM68.2032 33.9916V28.2749C68.2032 27.4879 67.7409 27.0944 66.8179 27.0944V35.1897C67.7424 35.1897 68.2032 34.7903 68.2032 33.9931V33.9916Z" fill="#D9D9D9"/>
<path d="M74.0312 38.0861V15.5015H80.2219C81.5692 15.5015 82.7702 15.8657 83.8234 16.5957C84.8767 17.3256 85.4033 18.4461 85.4033 19.9587V33.6288C85.4033 35.0361 84.9103 36.1303 83.9258 36.9129C82.9414 37.6955 81.717 38.0861 80.2541 38.0861H74.0312ZM80.4092 33.9901V19.5813C80.4092 18.7928 79.9367 18.3993 78.9917 18.3993V35.1882C79.9367 35.1882 80.4092 34.7889 80.4092 33.9901Z" fill="#D9D9D9"/>
<path d="M103.404 38.0861H98.4432V27.2509H97.0579V38.0861H92.0974V15.5015H97.0579V24.5096H98.4432V15.5015H103.404V38.0861Z" fill="#D9D9D9"/>
<path d="M117.83 38.0861H112.913L112.077 32.0226H109.875L109.028 38.0861H104.112L107.821 15.5015H114.112L117.829 38.0861H117.83ZM111.677 28.8878L110.963 22.1471L110.288 28.8878H111.677Z" fill="#D9D9D9"/>
<path d="M131.281 15.5015L128.238 38.0861H121.225L118.177 15.5015H123.007L124.727 31.2825L126.432 15.5015H131.278H131.281Z" fill="#D9D9D9"/>
<path d="M136.825 38.0863H131.865V15.5017H136.825V38.0863ZM137.093 11.5637L135.219 14.4777H132.747L133.708 11.5637H137.094H137.093Z" fill="#D9D9D9"/>
<path d="M150.071 38.117H145.11C144.575 37.4763 144.307 35.6595 144.307 32.668V32.6358L144.34 31.2812C144.372 29.4015 144.386 28.4404 144.386 28.3995C144.386 27.6329 143.871 27.2497 142.843 27.2497V38.0849H137.883V15.5003H144.009C145.406 15.5003 146.62 15.8206 147.654 16.4613C148.689 17.1021 149.206 18.1143 149.206 19.5011V22.2102C149.206 23.9642 148.182 25.1505 146.136 25.7693C148.194 26.252 149.222 27.4969 149.222 29.5024L149.143 31.9746C149.143 35.5863 149.454 37.6343 150.072 38.117H150.071ZM147.96 10.7285L145.488 14.4763H141.282L138.81 10.7285H141.992L143.377 12.8233L144.762 10.7285H147.96ZM144.369 23.3103V19.5845C144.369 18.7945 143.86 18.3996 142.842 18.3996V24.5098C143.86 24.5098 144.369 24.1105 144.369 23.3103Z" fill="#D9D9D9"/>
<path d="M150.7 34.2271V19.6895C150.7 16.7595 152.597 15.2952 156.393 15.2952C160.189 15.2952 162.007 16.7492 162.007 19.6573V34.1949C162.007 35.507 161.485 36.5179 160.442 37.2273C159.399 37.9353 158.039 38.2908 156.361 38.2908C152.587 38.2908 150.698 36.9362 150.698 34.2271H150.7ZM157.173 34.4641V19.0766C157.173 18.6246 156.905 18.3993 156.37 18.3993C155.834 18.3993 155.534 18.6246 155.534 19.0766V34.4641C155.534 34.9161 155.812 35.1413 156.37 35.1413C156.927 35.1413 157.173 34.9161 157.173 34.4641Z" fill="#D9D9D9"/>
<path d="M175.726 15.5015L172.683 38.0861H165.671L162.622 15.5015H167.452L169.173 31.2825L170.877 15.5015H175.723H175.726Z" fill="#D9D9D9"/>
</svg>
