<svg width="116" height="46" viewBox="0 0 116 46" fill="none" xmlns="http://www.w3.org/2000/svg">
<path d="M51.3158 14.3542C56.8519 13.7904 62.1773 16.9317 63.4443 22.5111C66.0342 33.9131 51.4769 40.5597 44.2634 31.7027C39.0619 25.3163 43.0784 15.1922 51.3158 14.3542ZM51.8193 17.8936C42.2296 18.981 44.9418 35.067 55.131 31.8266C62.7643 29.3994 60.6221 16.8961 51.8193 17.8936Z" fill="#D9D9D9"/>
<path d="M107.047 14.5695C109.705 14.7941 112.262 16.0875 113.111 18.7486C114.204 22.1734 112.799 25.5269 109.317 26.5818C109.178 26.6236 109.091 26.495 109.135 26.7707L114.57 35.0562H110.206L105.147 27.3423L104.2 27.2153V35.0562H100.279V14.5695C102.471 14.7058 104.878 14.3852 107.045 14.5695H107.047ZM104.201 24.3079H106.54C106.788 24.3079 107.802 23.9625 108.081 23.8246C110.437 22.6551 110.148 18.9004 107.462 18.0748C106.823 17.8797 104.867 17.5915 104.28 17.7464C103.967 17.8285 104.201 18.0206 104.201 18.0469V24.3063V24.3079Z" fill="#D9D9D9"/>
<path d="M96.6143 14.5697V17.9836H89.0274V22.5995C89.0274 22.6444 88.8028 22.7405 89.0909 22.9155H96.2363V26.204H89.0909L88.9283 26.3929C88.9252 26.4441 89.0274 26.4874 89.0274 26.52V31.7679H96.4253C96.464 31.7679 96.605 31.5944 96.7413 31.6408V35.0548H85.1069V14.5681H96.6143V14.5697Z" fill="#D9D9D9"/>
<path d="M67.9707 14.5696L73.3441 23.1679L78.087 14.5696H82.3235L74.893 26.5508C74.7985 29.3948 74.8884 32.2402 74.9891 35.0562H70.9431C70.9091 34.9633 71.0702 34.9044 71.0702 34.8673V26.5214L63.2292 14.5711H67.9722L67.9707 14.5696Z" fill="#D9D9D9"/>
<path d="M16.6918 14.6965V18.1105H10.7484V35.1816H6.70249V17.9834C6.60955 17.9494 6.55069 18.1105 6.51352 18.1105H0.506592V14.6965H16.6934H16.6918Z" fill="#D9D9D9"/>
<path d="M115.075 13.9375C110.767 9.94115 106.027 5.74809 100.789 2.99557C97.023 1.01754 95.079 1.04078 91.0533 2.37134C87.2257 3.6353 83.3874 5.68149 79.7938 7.49068L82.1947 11.2826C79.3848 9.16202 76.4154 5.38873 72.9659 4.38964C68.3484 3.05288 60.4052 4.93333 55.639 5.90608C48.3279 7.39774 41.0477 9.2627 33.7334 10.6227L31.7415 10.0806C34.0665 9.23482 36.534 8.73605 38.9473 8.18152C45.1509 6.75801 51.5281 5.35775 57.7673 4.11238C62.4917 3.16906 69.2452 1.66811 73.8472 3.25735C75.7385 3.91101 77.2534 5.26326 78.7188 6.56904C80.4474 5.62417 82.2194 4.75056 84.0101 3.9265C87.5603 2.29079 92.6379 -0.278946 96.5568 0.0246518C99.9645 0.289525 104.876 3.72514 107.607 5.79456C110.459 7.95382 113.565 10.649 115.078 13.9406L115.075 13.9375Z" fill="#D9D9D9"/>
<path d="M13.7519 38.2517C18.3771 37.6786 18.9441 44.5421 14.7185 45.0331C10.1257 45.566 9.48602 38.7815 13.7519 38.2517ZM12.6893 43.4857C12.8488 43.636 13.4158 43.9628 13.6218 44.0062C17.3502 44.793 17.6429 38.6746 13.7302 39.24C11.8451 39.5126 11.4408 42.3162 12.6877 43.4842L12.6893 43.4857Z" fill="#D9D9D9"/>
<path d="M2.52784 38.3447V40.8742H5.6893V38.3447H6.70232V44.9201H5.6893V41.8857H2.52784V44.9201H1.51636V38.3447H2.52784Z" fill="#D9D9D9"/>
<path d="M78.4047 40.4946H80.9326L78.9004 41.9662L79.6036 44.4151L77.5822 43.0179L75.4973 44.4135L76.2454 41.9011L74.2302 40.4946H76.7597L77.5822 37.9636L78.4047 40.4946Z" fill="#D9D9D9"/>
<path d="M104.707 40.4946H107.237L105.203 41.9677L105.908 44.4151L103.866 43.0334L101.798 44.4135L102.567 41.9662L100.534 40.4946H103.062L103.885 37.9636L104.707 40.4946Z" fill="#D9D9D9"/>
<path d="M87.1297 40.4945H89.6591L87.6656 42.0698L88.3301 44.4149L86.4171 43.0317L84.3493 44.4149L85.0974 41.9009L83.0837 40.4945H85.6132C85.7944 39.7974 85.9927 38.9517 86.2545 38.2903C86.3072 38.1586 86.301 37.9851 86.4977 37.9666L87.1312 40.496L87.1297 40.4945Z" fill="#D9D9D9"/>
<path d="M98.3845 40.4946L96.501 41.9708L97.119 44.4135L95.0326 43.0644L93.0747 44.4135L93.7717 42.0064L91.6821 40.4946H94.3371L95.1596 37.9636L96.044 40.4946H98.3845Z" fill="#D9D9D9"/>
<path d="M33.2578 38.3448V39.2293H30.4758V41.1268H32.8783V42.0112H30.4758V44.0342C30.5688 44.0682 30.6276 43.9072 30.6648 43.9072H33.2578V44.9186H29.5278L29.3389 38.3433H33.2593L33.2578 38.3448Z" fill="#D9D9D9"/>
<path d="M25.6712 38.3447V39.2292H23.7737V44.9201H22.7622V39.4197L22.5717 39.2292H20.7393V38.3447H25.6712Z" fill="#D9D9D9"/>
<path d="M38.3169 38.3447V43.8451L38.5012 44.0047L41.0973 43.9086L41.0989 44.9201H37.3054V38.3447H38.3169Z" fill="#D9D9D9"/>
<path d="M45.8729 37.8072C40.5367 35.8137 34.6041 32.7932 30.7905 28.4824C30.5814 28.247 28.9147 26.2271 29.0851 26.0784C33.0613 25.781 39.1999 23.5412 38.6593 18.5892C38.207 14.4519 33.7522 12.2725 30.2887 11.0271C23.2594 8.50227 15.1381 8.26063 7.8626 9.85142C5.14105 10.4462 2.52483 11.4019 0 12.5482L1.32592 13.7765C8.00665 11.34 15.7825 10.8505 22.739 12.3809C25.7145 13.0346 31.9089 15.0668 32.245 18.6821C32.671 23.267 25.7223 24.3203 22.3827 24.0555V14.6981H18.4622V35.1848H22.3827V26.839H25.0376C28.0659 32.5949 34.3129 36.1095 40.1804 38.4407C48.1375 41.6022 57.0844 43.2441 65.6672 42.9978L68.7915 40.7487C60.946 41.6781 53.2476 40.5628 45.8713 37.8072H45.8729Z" fill="#D9D9D9"/>
</svg>
